<?xml version="1.0" encoding="UTF-8"?>
<!DOCTYPE svg PUBLIC "-//W3C//DTD SVG 1.1//EN" "http://www.w3.org/Graphics/SVG/1.1/DTD/svg11.dtd">
<!-- Creator: CorelDRAW X8 -->
<svg xmlns="http://www.w3.org/2000/svg" xml:space="preserve" width="295.631mm" height="55.209mm" version="1.1" style="shape-rendering:geometricPrecision; text-rendering:geometricPrecision; image-rendering:optimizeQuality; fill-rule:evenodd; clip-rule:evenodd"
viewBox="0 0 29563 5521"
 xmlns:xlink="http://www.w3.org/1999/xlink">
 <defs>
  <style type="text/css">
   <![CDATA[
    .fil0 {fill:#FEFEFE}
    .fil1 {fill:#FEFEFE;fill-rule:nonzero}
   ]]>
  </style>
 </defs>
 <g id="图层_x0020_1">
  <metadata id="CorelCorpID_0Corel-Layer"/>
  <g id="_759816352">
   <path class="fil0" d="M2788 2775l681 1695 242 0 -1813 -4470 -105 0 -1793 4470 229 0 674 -1695 1885 0zm-1289 -170c-255,0 -314,0 -544,13 92,-209 112,-255 210,-504l458 -1158c7,-14 20,-59 39,-125l59 -170c7,-39 26,-105 59,-190l46 -157 20 0 52 157c26,85 46,151 59,190l52 164c26,72 40,117 46,131l465 1151c98,249 118,295 216,511 -236,-13 -295,-13 -550,-13l-687 0zm3200 1793c373,39 498,46 740,46 654,0 1086,-347 1086,-871 0,-392 -235,-667 -667,-772l0 -19c281,-164 438,-400 438,-661 0,-485 -373,-760 -1021,-760 -131,0 -288,7 -576,33l0 3004zm759 -1486c544,0 858,243 858,655 0,458 -314,694 -923,694 -157,0 -282,-7 -491,-33 7,-46 7,-59 7,-118l0 -1067c0,-72 0,-85 -13,-144 58,13 71,13 143,13l419 0zm-419 -170c-72,0 -85,0 -143,13 13,-59 13,-72 13,-144l0 -909c0,-72 0,-85 -13,-144 104,-13 307,-20 399,-20 497,0 785,216 785,589 0,210 -124,432 -308,556 -58,33 -117,59 -150,59l-583 0zm4071 -1413c-936,0 -1603,648 -1603,1544 0,956 648,1617 1571,1617 936,0 1564,-642 1564,-1597 0,-910 -642,-1564 -1532,-1564zm-46 189c806,0 1368,576 1368,1401 0,812 -536,1374 -1322,1374 -811,0 -1394,-595 -1394,-1420 0,-805 550,-1355 1348,-1355zm2802 -170l0 1839c0,445 32,622 131,779 202,327 615,517 1112,517 354,0 668,-98 890,-281 262,-216 347,-458 347,-1008l0 -1846 -209 0 0 1846c0,412 -53,628 -183,785 -171,197 -459,308 -812,308 -301,0 -576,-85 -772,-229 -236,-177 -295,-360 -295,-864l0 -1846 -209 0zm3455 46l0 177 1054 0c72,0 85,0 144,-13 -13,59 -13,72 -13,144l0 2768 209 0 0 -2768c0,-72 0,-85 -13,-144 59,13 72,13 144,13l1054 0 0 -177 -2579 0zm8980 -1309l-164 0 -1269 3011c-14,32 -53,131 -112,281l-104 275c-7,26 -33,98 -72,203l-144 399 -27 0 -157 -399c-39,-111 -65,-183 -78,-203l-105 -268c-59,-144 -105,-249 -118,-288l-1335 -3011 -183 0 -432 4385 209 0 275 -2912c7,-85 20,-256 26,-504 7,-138 20,-347 33,-615l33 -7 183 465 170 412c46,111 79,196 98,249l1283 2912 197 0 1223 -2912c20,-40 53,-125 99,-249l98 -262c46,-118 124,-321 229,-608l33 6c13,262 26,471 32,602 13,242 27,413 40,511l327 2912 216 0 -504 -4385zm3501 1309l-1642 0 0 2570 209 -153 0 -774c0,-72 0,-85 -13,-144 59,13 72,13 144,13l1107 0 32 -23 0 -154 -1139 0c-72,0 -85,0 -144,13 13,-59 13,-72 13,-144l0 -896c0,-72 0,-85 -13,-144 59,13 72,13 144,13l1302 0 0 -177z"/>
   <polygon class="fil1" points="24375,5368 29441,1272 29563,1425 24497,5521 "/>
  </g>
 </g>
</svg>
