<?xml version="1.0" encoding="UTF-8"?>
<!DOCTYPE svg PUBLIC "-//W3C//DTD SVG 1.1//EN" "http://www.w3.org/Graphics/SVG/1.1/DTD/svg11.dtd">
<!-- Creator: CorelDRAW X8 -->
<svg xmlns="http://www.w3.org/2000/svg" xml:space="preserve" width="297mm" height="95.864mm" version="1.1" style="shape-rendering:geometricPrecision; text-rendering:geometricPrecision; image-rendering:optimizeQuality; fill-rule:evenodd; clip-rule:evenodd"
viewBox="0 0 29700 9586"
 xmlns:xlink="http://www.w3.org/1999/xlink">
 <defs>
  <style type="text/css">
   <![CDATA[
    .fil0 {fill:#6CD1EF}
    .fil1 {fill:#6CD1EF;fill-rule:nonzero}
   ]]>
  </style>
 </defs>
 <g id="图层_x0020_1">
  <metadata id="CorelCorpID_0Corel-Layer"/>
  <g id="_759822976">
   <path class="fil0" d="M0 7610c802,91 1077,114 1639,114 1524,0 2521,-836 2521,-2132 0,-1031 -584,-1684 -1753,-1948l-12 -34c825,-493 1181,-1009 1181,-1742 0,-1123 -883,-1799 -2361,-1799 -298,0 -642,23 -1215,80l0 7461zm355 -333c35,-114 35,-126 35,-263l0 -2923c0,-126 0,-149 -23,-252 103,23 126,23 252,23l917 0c1409,0 2223,630 2223,1719 0,1169 -779,1788 -2235,1788 -286,0 -550,-12 -813,-46l-321 -46 -35 0zm264 -3713c-126,0 -149,0 -252,23 23,-103 23,-126 23,-252l0 -2613c0,-126 0,-149 -35,-264 344,-23 745,-45 929,-45 1180,0 1890,561 1890,1489 0,447 -229,952 -595,1295 -218,207 -505,367 -642,367l-1318 0zm6166 -3495l-390 0 0 7598 3770 0 103 -344 -3254 0c-126,0 -149,0 -252,23 23,-103 23,-126 23,-252l0 -7025zm8675 -69c-2235,0 -3816,1604 -3816,3896 0,2270 1569,3920 3747,3920 2212,0 3725,-1605 3725,-3954 0,-2235 -1536,-3862 -3656,-3862zm-92 367c848,0 1811,389 2372,951 631,630 974,1558 974,2601 0,2098 -1317,3530 -3243,3530 -1994,0 -3426,-1513 -3426,-3621 0,-2052 1352,-3461 3323,-3461zm7999 6728c-1213,-567 -1994,-1769 -1994,-3256 0,-1994 1456,-3472 3404,-3472 951,0 1719,263 2498,836l206 -355c-882,-596 -1661,-848 -2612,-848 -2247,0 -3897,1650 -3897,3896 0,1550 794,2820 2034,3463l361 -264zm4114 -3006l0 -9 -2509 0 -81 344 1972 0c84,0 123,0 170,-7l448 -328z"/>
   <polygon class="fil1" points="20615,9319 29485,2147 29700,2414 20830,9586 "/>
  </g>
 </g>
</svg>
