<?xml version="1.0" encoding="UTF-8"?>
<!DOCTYPE svg PUBLIC "-//W3C//DTD SVG 1.1//EN" "http://www.w3.org/Graphics/SVG/1.1/DTD/svg11.dtd">
<!-- Creator: CorelDRAW -->
<svg xmlns="http://www.w3.org/2000/svg" xml:space="preserve" width="84.648mm" height="5.4588mm" version="1.1" style="shape-rendering:geometricPrecision; text-rendering:geometricPrecision; image-rendering:optimizeQuality; fill-rule:evenodd; clip-rule:evenodd"
viewBox="0 0 8464.8 545.88"
 xmlns:xlink="http://www.w3.org/1999/xlink"
 xmlns:xodm="http://www.corel.com/coreldraw/odm/2003">
 <defs>
  <style type="text/css">
   <![CDATA[
    .str1 {stroke:#003153;stroke-width:12;stroke-miterlimit:22.9256}
    .str0 {stroke:#8B8B8C;stroke-width:12;stroke-miterlimit:22.9256}
    .fil0 {fill:none}
    .fil3 {fill:#003153}
    .fil5 {fill:#003153}
    .fil1 {fill:#8B8B8C}
    .fil4 {fill:#003153;fill-rule:nonzero}
    .fil6 {fill:#003153;fill-rule:nonzero}
    .fil2 {fill:#8B8B8C;fill-rule:nonzero}
   ]]>
  </style>
 </defs>
 <g id="圖層_x0020_1">
  <metadata id="CorelCorpID_0Corel-Layer"/>
  <g id="_1509295521232">
   <g id="_2887802771104">
    <g>
     <rect class="fil0" x="1691.63" y="10.45" width="1692.56" height="270.93"/>
     <rect class="fil0" x="-0.94" y="10.45" width="1692.56" height="270.93"/>
     <rect class="fil0" x="3385.19" y="10.45" width="1692.56" height="270.93"/>
     <rect class="fil0" x="5077.75" y="10.45" width="1692.56" height="270.93"/>
     <rect class="fil0" x="6770.32" y="10.45" width="1692.56" height="270.93"/>
     <rect class="fil0" x="-0.94" y="281.38" width="1692.56" height="270.93"/>
     <rect class="fil0" x="1691.63" y="281.38" width="1692.56" height="270.93"/>
     <rect class="fil0" x="3385.19" y="281.38" width="1692.56" height="270.93"/>
     <rect class="fil0" x="5077.75" y="281.38" width="1692.56" height="270.93"/>
     <rect class="fil0" x="6770.32" y="281.38" width="1692.56" height="270.93"/>
    </g>
    <rect class="fil0" x="6770.32" y="10.45" width="1692.56" height="270.93"/>
   </g>
   <g id="_756589632">
    <path class="fil1" d="M3772.09 147.42l32.99 82.98 12 0 -87.98 -217.94 -6 0 -86.98 217.94 11 0 32.99 -82.98 91.98 0 0 0zm-62.99 -7.99c-12,0 -15,0 -25.99,1 4,-11 5,-13 10,-24.99l21.99 -56.99c0,0 1,-2 2,-6l3 -8c0,-2 1,-5 3,-9l2 -8 1 0 3 8c1,4 2,7 2,9l3 8c1,4 2,6 2,6l22.99 56.99c5,12 6,14 10,24.99 -11,-1 -14,-1 -25.99,-1l-33.99 0 0 0 -0.01 0zm155.96 86.97c18,2 23.99,3 35.99,3 31.99,0 52.99,-17 52.99,-42.99 0,-19 -11,-31.99 -31.99,-37.99l0 0c13,-8 20.99,-19.99 20.99,-32.99 0,-22.99 -18,-36.99 -49.99,-36.99 -6,0 -14,1 -27.99,2l0 145.96zm36.99 -71.98c26.99,0 41.99,12 41.99,31.99 0,21.99 -15,33.99 -44.99,33.99 -8,0 -14,-1 -23.99,-2 0,-2 0,-3 0,-6l0 -51.99c0,-3 0,-4 0,-7 3,1 3,1 7,1l19.99 0 0 0.01zm-19.99 -8c-4,0 -4,0 -7,0 0,-3 0,-3 0,-7l0 -43.99c0,-4 0,-4 0,-7 5,-1 15,-1 19,-1 23.99,0 38.99,10 38.99,28.99 0,10 -7,20.99 -15,26.99 -3,1 -6,3 -8,3l-27.99 0 0 0.01zm197.95 -68.98c-44.99,0 -77.98,30.99 -77.98,74.98 0,46.99 31.99,78.98 76.98,78.98 44.99,0 75.98,-30.99 75.98,-77.98 0,-43.99 -30.99,-75.98 -74.98,-75.98zm-2 9c38.99,0 66.98,27.99 66.98,67.98 0,39.99 -25.99,66.98 -64.98,66.98 -38.99,0 -67.98,-28.99 -67.98,-68.98 0,-38.99 26.99,-65.98 65.98,-65.98l0 0zm136.96 -8l0 88.98c0,21.99 1,30.99 6,37.99 10,16 29.99,25.99 53.99,25.99 18,0 32.99,-5 43.99,-14 13,-11 17,-22.99 17,-48.99l0 -89.98 -11 0 0 89.98c0,19.99 -2,29.99 -8,37.99 -9,10 -22.99,15 -39.99,15 -15,0 -27.99,-4 -37.99,-11 -11,-9 -14,-18 -14,-41.99l0 -89.98 -10 0 0 0 0 0.01zm167.96 2l0 8 51.99 0c3,0 4,0 7,0 -1,3 -1,3 -1,7l0 134.97 10 0 0 -134.97c0,-4 0,-4 0,-7 2,0 3,0 7,0l50.99 0 0 -8 -125.97 0 0 0 -0.01 0zm437.89 -63.98l-8 0 -61.98 146.96c0,1 -2,6 -5,14l-5 13c-1,1 -2,5 -4,10l-7 19 -1 0 -8 -19c-2,-6 -3,-9 -4,-10l-5 -13c-3,-7 -5,-12 -5,-14l-65.98 -146.96 -8 0 -21.99 213.94 11 0 13 -141.96c0,-4 1,-13 1,-24.99 1,-6 1,-17 2,-29.99l2 0 9 22.99 8 19.99c2,5 4,9 5,12l61.98 141.96 10 0 58.98 -141.96c1,-2 3,-6 5,-12l5 -13c2,-6 6,-16 11,-29.99l2 1c0,12 1,22.99 1,28.99 1,12 2,19.99 2,24.99l16 141.96 11 0 -24.99 -213.94 0 0 -0.02 0.01zm170.95 63.98l-79.98 0 0 124.97 10 -7 0 -37.99c0,-4 0,-4 -1,-7 3,1 4,1 7,1l53.99 0 2 -2 0 -7 -55.99 0c-3,0 -4,0 -7,1 1,-3 1,-4 1,-7l0 -43.99c0,-4 0,-4 -1,-7 3,0 4,0 7,0l63.98 0 0 -8 0 0 0 0.01z"/>
    <polygon class="fil2" points="4824.82,274.39 5071.75,74.44 5077.75,81.44 4830.81,281.39 "/>
   </g>
   <g id="_2922564132784">
    <g id="_759822976">
     <path class="fil1" d="M857.84 220.41c21.99,2 29.99,3 45.99,3 42.99,0 70.98,-22.99 70.98,-59.98 0,-28.99 -17,-46.99 -48.99,-54.99l-1 -1c22.99,-13 32.99,-27.99 32.99,-47.99 0,-31.99 -23.99,-50.99 -65.98,-50.99 -8,0 -18,1 -33.99,2l0 209.95zm10 -10c1,-3 1,-3 1,-7l0 -81.98c0,-4 0,-4 -1,-7 3,1 4,1 7,1l25.99 0c39.99,0 61.98,17 61.98,47.99 0,32.99 -20.99,49.99 -61.98,49.99 -8,0 -16,0 -22.99,-1l-9 -2 -1 0zm7 -103.98c-3,0 -4,0 -7,1 1,-3 1,-4 1,-7l0 -73.98c0,-3 0,-4 -1,-7 10,-1 20.99,-1 25.99,-1 32.99,0 52.99,15 52.99,40.99 0,13 -6,26.99 -17,36.99 -6,6 -14,10 -18,10l-36.99 0 0.01 0zm172.95 -97.97l-10 0 0 212.94 104.97 0 3 -9 -90.98 0c-4,0 -4,0 -7,0 0,-2 0,-3 0,-7l0 -196.95 0.01 0.01zm243.94 -2c-62.98,0 -106.97,44.99 -106.97,108.97 0,63.98 43.99,110.97 104.97,110.97 61.98,0 104.97,-44.99 104.97,-110.97 0,-62.98 -42.99,-108.97 -102.97,-108.97zm-2 10c22.99,0 49.99,11 65.98,26.99 18,18 27.99,43.99 27.99,72.98 0,58.98 -36.99,98.97 -91.98,98.97 -55.99,0 -95.98,-41.99 -95.98,-100.97 0,-57.99 37.99,-97.97 93.98,-97.97l0.01 0zm223.94 188.95c-33.99,-16 -55.99,-48.99 -55.99,-90.98 0,-55.99 40.99,-97.97 95.98,-97.97 26.99,0 47.99,8 69.98,23.99l6 -10c-24.99,-17 -46.99,-23.99 -73.98,-23.99 -62.98,0 -108.97,45.99 -108.97,108.97 0,43.99 21.99,79.98 56.99,97.97l10 -8 -0.01 0.01zm115.97 -83.98l0 0 -70.98 0 -2 9 54.99 0c3,0 4,0 5,0l13 -9 -0.01 0z"/>
     <polygon class="fil2" points="1436.69,268.39 1685.63,66.45 1691.63,74.44 1442.69,275.39 "/>
    </g>
   </g>
   <g id="_2922564129904">
    <g id="_753630848">
     <path class="fil1" d="M2608.39 10.46l0 10 72.98 0c4,0 4,0 7,-1 -1,3 -1,4 -1,8l0 200.95 12 0 0 -200.95c0,-4 0,-5 -1,-8 3,1 4,1 7,1l72.98 0 0 -10 -169.96 0zm326.91 217.94l12 0 -66.98 -157.96 -10 0 -65.98 157.96 10 0 24.99 -59.98 70.98 0 24.99 59.98zm-63.98 -68.98c-14,0 -17,0 -28.99,1 5,-11 7,-15 12,-25.99l5 -13c8,-19.99 9,-22.99 15,-39.99l1 0c6,17 8,20.99 15,39.99l6 13c5,13 6,15 11,25.99 -12,-1 -15,-1 -27.99,-1l-8 0 -0.02 0zm239.94 40.99c0,3 0,5 1,8 -15,8 -26.99,11 -42.99,11 -42.99,0 -74.98,-29.99 -74.98,-70.98 0,-38.99 29.99,-67.98 69.98,-67.98 19.99,0 34.99,5 52.99,18l5 -9c-19.99,-13 -34.99,-18 -56.99,-18 -45.99,0 -80.98,33.99 -80.98,78.98 0,44.99 34.99,78.98 83.98,78.98 19,0 34.99,-4 52.99,-15l0 -61.98 -55.99 0 -3 9 41.99 0c4,0 5,0 8,-1 -1,3 -1,4 -1,7l0 32.99 0 -0.01zm150.96 -115.97c-12,-9 -23.99,-13 -36.99,-13 -25.99,0 -43.99,16 -43.99,37.99 0,19 8,27.99 31.99,37.99 22.99,10 24.99,11 30.99,17 5,3 9,10 10,17l10 -7c-4,-13 -13,-21.99 -31.99,-29.99l-15 -6c-19,-9 -25.99,-16 -25.99,-28.99 0,-17 13,-28.99 31.99,-28.99 12,0 21.99,4 33.99,13l5 -9 0 -0.01zm-58.98 133.97c-10,-2 -19,-7 -28.99,-17l-5 11c8,6 16,11 23.99,14l10 -8z"/>
     <polygon class="fil2" points="3124.26,274.39 3378.19,68.44 3385.19,75.44 3130.25,281.39 "/>
    </g>
   </g>
   <g id="_2922564127312">
    <g id="_755350320">
     <path class="fil1" d="M5868.55 28.45c-15,-12 -29.99,-18 -45.99,-18 -31.99,0 -56.99,22.99 -56.99,52.99 0,24.99 10,37.99 41.99,51.99 21.99,11 32.99,17 40.99,22.99 9,8 14,20.99 14,33.99 0,29.99 -20.99,48.99 -51.99,48.99 -20.99,0 -36.99,-7 -53.99,-23.99l-5 11c19.99,17 35.99,22.99 57.99,22.99 37.99,0 63.98,-23.99 63.98,-58.98 0,-27.99 -10,-42.99 -42.99,-57.99l-18 -9c-26.99,-13 -34.99,-22.99 -34.99,-41.99 0,-24.99 18,-42.99 41.99,-42.99 16,0 29.99,6 42.99,18l6 -10 0.01 0zm146.96 48.99l-80.98 0 0 149.96 88.98 0 2 -9 -73.98 0c-4,0 -4,0 -7,0 0,-2 0,-3 0,-7l0 -52.99c0,-3 0,-4 0,-7 3,1 3,1 7,1l55.99 0 0 -9 -55.99 0c-4,0 -4,0 -7,1 0,-3 0,-4 0,-7l0 -44.99c0,-3 0,-4 0,-7 3,1 3,1 7,1l63.98 0 0 -9 0 0.02zm166.96 151.96l11 0 -65.98 -154.96 -9 0 -65.98 154.96 11 0 24.99 -58.98 68.98 0 24.99 58.98zm-63.99 -67.98c-13,0 -16,0 -27.99,1 5,-11 7,-15 12,-25.99l5 -12c8,-19.99 9,-22.99 15,-39.99l1 0c6,17 7,19.99 15,39.99l5 12c6,13 6,15 11,25.99 -12,-1 -15,-1 -27.99,-1l-8 0 -0.02 0zm123.97 67.98l10 0 0 -62.98c0,-4 0,-5 0,-7 3,0 3,0 7,0l27.99 0 50.99 69.98 13 0 -43.99 -59.98c-5,-6 -6,-7 -10,-12l1 -1c20.99,-9 29.99,-20.99 29.99,-38.99 0,-25.99 -19.99,-41.99 -53.99,-41.99 -9,0 -17,1 -31.99,3l0 150.96zm17 -78.98c-4,0 -4,0 -7,1 0,-3 0,-3 0,-7l0 -51.99c0,-3 0,-4 0,-7 5,-1 15,-1 20.99,-1 27.99,0 43.99,12 43.99,31.99 0,19 -15,33.99 -31.99,33.99l-25.99 0 0 0.01zm256.93 -63.98c-18,-8 -30.99,-12 -45.99,-12 -46.99,0 -80.98,31.99 -80.98,76.98 0,45.99 33.99,78.98 79.98,78.98 19,0 35.99,-5 47.99,-14l-4 -8c-13,8 -26.99,12 -42.99,12 -40.99,0 -69.98,-28.99 -69.98,-68.98 0,-39.99 26.99,-67.98 68.98,-67.98 14,0 23.99,3 42.99,12l4 -9zm68.98 56.99c-3,0 -4,0 -7,1 1,-3 1,-4 1,-7l0 -61.98 -11 0 0 153.96 4 0 7 -5 0 -65.98c0,-3 0,-4 -1,-7 3,1 4,1 7,1l87.98 0c3,0 4,0 6,-1l11 -8 0 -67.98 -11 0 0 61.98c0,3 0,4 1,7 -3,-1 -4,-1 -7,-1l-87.98 0z"/>
     <polygon class="fil2" points="6513.38,274.39 6764.32,71.44 6770.31,78.44 6520.38,281.39 "/>
    </g>
   </g>
   <g id="_2922564126576">
    <g id="_759822976_0">
     <path class="fil3" d="M857.84 491.34c21.99,2 29.99,3 45.99,3 42.99,0 70.98,-23.99 70.98,-59.98 0,-28.99 -17,-46.99 -48.99,-54.99l-1 -1c22.99,-13 32.99,-27.99 32.99,-48.99 0,-30.99 -23.99,-49.99 -65.98,-49.99 -8,0 -18,1 -33.99,2l0 209.95zm10 -10c1,-3 1,-3 1,-7l0 -81.98c0,-4 0,-4 -1,-7 3,0 4,0 7,0l25.99 0c39.99,0 61.98,18 61.98,48.99 0,32.99 -20.99,49.99 -61.98,49.99 -8,0 -16,0 -22.99,-1l-9 -2 -1 0zm7 -103.98c-3,0 -4,0 -7,1 1,-3 1,-4 1,-7l0 -73.98c0,-3 0,-4 -1,-7 10,-1 20.99,-1 25.99,-1 32.99,0 52.99,15 52.99,40.99 0,13 -6,26.99 -17,36.99 -6,6 -14,10 -18,10l-36.99 0 0.01 0zm172.95 -97.97l-10 0 0 212.94 104.97 0 3 -9 -90.98 0c-4,0 -4,0 -7,0 0,-3 0,-3 0,-7l0 -196.95 0.01 0.01zm243.94 -2c-62.98,0 -106.97,44.99 -106.97,108.97 0,63.98 43.99,110.97 104.97,110.97 61.98,0 104.97,-45.99 104.97,-111.97 0,-61.98 -42.99,-107.97 -102.97,-107.97zm-2 10c22.99,0 49.99,11 65.98,26.99 18,18 27.99,43.99 27.99,72.98 0,58.98 -36.99,98.97 -91.98,98.97 -55.99,0 -95.98,-41.99 -95.98,-101.97 0,-56.99 37.99,-96.97 93.98,-96.97l0.01 0zm223.94 188.95c-33.99,-16 -55.99,-48.99 -55.99,-90.98 0,-55.99 40.99,-97.97 95.98,-97.97 26.99,0 47.99,8 69.98,23.99l6 -10c-24.99,-17 -46.99,-23.99 -73.98,-23.99 -62.98,0 -108.97,45.99 -108.97,108.97 0,43.99 21.99,79.98 56.99,97.97l10 -8 -0.01 0.01zm115.97 -83.98l0 0 -70.98 0 -2 9 54.99 0c3,0 4,0 5,0l13 -9 -0.01 0z"/>
     <polygon class="fil4" points="1436.69,539.32 1685.63,337.38 1691.63,345.37 1442.69,546.32 "/>
    </g>
   </g>
   <g id="_2922564125360">
    <g id="_753630848_1">
     <path class="fil5" d="M2608.39 281.39l0 10 72.98 0c4,0 4,0 7,-1 -1,3 -1,4 -1,8l0 200.95 12 0 0 -200.95c0,-4 0,-5 -1,-8 3,1 4,1 7,1l72.98 0 0 -10 -169.96 0zm326.91 217.94l12 0 -66.98 -157.96 -10 0 -65.98 157.96 10 0 24.99 -59.98 70.98 0 24.99 59.98zm-63.98 -68.98c-14,0 -17,0 -28.99,1 5,-11 7,-15 12,-25.99l5 -13c8,-19.99 9,-22.99 15,-39.99l1 0c6,17 8,20.99 15,39.99l6 13c5,13 6,15 11,25.99 -12,-1 -15,-1 -27.99,-1l-8 0 -0.02 0zm239.94 40.99c0,3 0,5 1,8 -15,8 -26.99,11 -42.99,11 -42.99,0 -74.98,-29.99 -74.98,-70.98 0,-38.99 29.99,-67.98 69.98,-67.98 19.99,0 34.99,5 52.99,18l5 -9c-19.99,-13 -34.99,-18 -56.99,-18 -45.99,0 -80.98,33.99 -80.98,78.98 0,44.99 34.99,78.98 83.98,78.98 19,0 34.99,-4 52.99,-15l0 -61.98 -55.99 0 -3 9 41.99 0c4,0 5,0 8,-1 -1,3 -1,4 -1,7l0 32.99 0 -0.01zm150.96 -115.97c-12,-9 -23.99,-13 -36.99,-13 -25.99,0 -43.99,16 -43.99,37.99 0,19 8,27.99 31.99,37.99 22.99,10 24.99,11 30.99,17 5,3 9,10 10,17l10 -7c-4,-13 -13,-21.99 -31.99,-29.99l-15 -6c-19,-9 -25.99,-16 -25.99,-28.99 0,-17 13,-28.99 31.99,-28.99 12,0 21.99,4 33.99,13l5 -9 0 -0.01zm-58.98 133.97c-10,-2 -19,-7 -28.99,-17l-5 11c8,6 16,11 23.99,13l10 -7z"/>
     <polygon class="fil6" points="3124.26,544.32 3378.19,339.37 3385.19,346.37 3130.25,552.32 "/>
    </g>
   </g>
   <g id="_756589632_2">
    <path class="fil5" d="M3772.09 418.35l32.99 82.98 12 0 -87.98 -217.94 -6 0 -86.98 217.94 11 0 32.99 -82.98 91.98 0 0 0zm-62.99 -7.99c-12,0 -15,0 -25.99,0 4,-10 5,-12 10,-23.99l21.99 -56.99c0,0 1,-3 2,-6l3 -8c0,-2 1,-5 3,-9l2 -8 1 0 3 8c1,4 2,7 2,9l3 8c1,3 2,6 2,6l22.99 56.99c5,12 6,14 10,23.99 -11,0 -14,0 -25.99,0l-33.99 0 0 0 -0.01 0zm155.96 86.97c18,2 23.99,2 35.99,2 31.99,0 52.99,-16 52.99,-41.99 0,-19 -11,-32.99 -31.99,-37.99l0 -1c13,-8 20.99,-19 20.99,-31.99 0,-22.99 -18,-36.99 -49.99,-36.99 -6,0 -14,0 -27.99,2l0 145.96zm36.99 -71.98c26.99,0 41.99,12 41.99,31.99 0,21.99 -15,33.99 -44.99,33.99 -8,0 -14,-1 -23.99,-2 0,-2 0,-3 0,-6l0 -51.99c0,-3 0,-4 0,-7 3,1 3,1 7,1l19.99 0 0 0.01zm-19.99 -9c-4,0 -4,0 -7,1 0,-3 0,-3 0,-7l0 -43.99c0,-4 0,-4 0,-7 5,-1 15,-1 19,-1 23.99,0 38.99,10 38.99,27.99 0,11 -7,21.99 -15,27.99 -3,1 -6,2 -8,2l-27.99 0 0 0.01zm197.95 -67.98c-44.99,0 -77.98,30.99 -77.98,74.98 0,45.99 31.99,78.98 76.98,78.98 44.99,0 75.98,-31.99 75.98,-77.98 0,-44.99 -30.99,-75.98 -74.98,-75.98zm-2 9c38.99,0 66.98,27.99 66.98,67.98 0,39.99 -25.99,66.98 -64.98,66.98 -38.99,0 -67.98,-28.99 -67.98,-68.98 0,-38.99 26.99,-65.98 65.98,-65.98l0 0zm136.96 -9l0 89.98c0,21.99 1,30.99 6,37.99 10,16 29.99,24.99 53.99,24.99 18,0 32.99,-4 43.99,-13 13,-11 17,-22.99 17,-48.99l0 -90.98 -11 0 0 90.98c0,19.99 -2,29.99 -8,37.99 -9,9 -22.99,15 -39.99,15 -15,0 -27.99,-4 -37.99,-11 -11,-9 -14,-18 -14,-41.99l0 -90.98 -10 0 0 0 0 0.01zm167.96 3l0 8 51.99 0c3,0 4,0 7,0 -1,3 -1,3 -1,7l0 134.97 10 0 0 -134.97c0,-4 0,-4 0,-7 2,0 3,0 7,0l50.99 0 0 -8 -125.97 0 0 0 -0.01 0zm437.89 -63.98l-8 0 -61.98 146.96c0,1 -2,6 -5,13l-5 14c-1,1 -2,5 -4,10l-7 19 -1 0 -8 -19c-2,-6 -3,-9 -4,-10l-5 -13c-3,-7 -5,-12 -5,-14l-65.98 -146.96 -8 0 -21.99 213.94 11 0 13 -141.96c0,-4 1,-13 1,-24.99 1,-7 1,-17 2,-29.99l2 0 9 21.99 8 20.99c2,5 4,9 5,12l61.98 141.96 10 0 58.98 -141.96c1,-2 3,-6 5,-12l5 -13c2,-6 6,-16 11,-29.99l2 0c0,13 1,22.99 1,29.99 1,12 2,19.99 2,24.99l16 141.96 11 0 -24.99 -213.94 0 0 -0.02 0.01zm170.95 63.98l-79.98 0 0 124.97 10 -7 0 -37.99c0,-4 0,-4 -1,-7 3,0 4,0 7,0l53.99 0 2 -1 0 -7 -55.99 0c-3,0 -4,0 -7,0 1,-2 1,-3 1,-7l0 -42.99c0,-4 0,-4 -1,-7 3,0 4,0 7,0l63.98 0 0 -8 0 0 0 0.01z"/>
    <polygon class="fil6" points="4824.82,545.32 5071.75,345.37 5077.75,352.37 4830.81,552.32 "/>
   </g>
   <g id="_2922564079760">
    <g id="_755350320_3">
     <path class="fil5" d="M5868.55 299.38c-15,-12 -29.99,-18 -45.99,-18 -31.99,0 -56.99,22.99 -56.99,52.99 0,24.99 10,36.99 41.99,51.99 21.99,10 32.99,17 40.99,22.99 9,8 14,20.99 14,33.99 0,29.99 -20.99,48.99 -51.99,48.99 -20.99,0 -36.99,-7 -53.99,-23.99l-5 11c19.99,17 35.99,22.99 57.99,22.99 37.99,0 63.98,-23.99 63.98,-59.98 0,-26.99 -10,-41.99 -42.99,-56.99l-18 -9c-26.99,-13 -34.99,-22.99 -34.99,-41.99 0,-24.99 18,-42.99 41.99,-42.99 16,0 29.99,6 42.99,18l6 -10 0.01 0zm146.96 48.99l-80.98 0 0 149.96 88.98 0 2 -9 -73.98 0c-4,0 -4,0 -7,0 0,-3 0,-3 0,-7l0 -52.99c0,-3 0,-4 0,-7 3,1 3,1 7,1l55.99 0 0 -9 -55.99 0c-4,0 -4,0 -7,1 0,-3 0,-4 0,-8l0 -43.99c0,-4 0,-4 0,-7 3,1 3,1 7,1l63.98 0 0 -9 0 0.02zm166.96 151.96l11 0 -65.98 -154.96 -9 0 -65.98 154.96 11 0 24.99 -58.98 68.98 0 24.99 58.98zm-63.99 -67.98c-13,0 -16,0 -27.99,1 5,-11 7,-15 12,-25.99l5 -13c8,-19 9,-21.99 15,-38.99l1 0c6,17 7,19.99 15,38.99l5 13c6,13 6,15 11,25.99 -12,-1 -15,-1 -27.99,-1l-8 0 -0.02 0zm123.97 67.98l10 0 0 -62.98c0,-4 0,-5 0,-8 3,1 3,1 7,1l27.99 0 50.99 69.98 13 0 -43.99 -59.98c-5,-6 -6,-7 -10,-12l1 -1c20.99,-9 29.99,-20.99 29.99,-38.99 0,-26.99 -19.99,-41.99 -53.99,-41.99 -9,0 -17,1 -31.99,2l0 151.96zm17 -78.98c-4,0 -4,0 -7,1 0,-3 0,-4 0,-7l0 -51.99c0,-4 0,-4 0,-7 5,-1 15,-1 20.99,-1 27.99,0 43.99,12 43.99,31.99 0,19 -15,33.99 -31.99,33.99l-25.99 0 0 0.01zm256.93 -63.98c-18,-9 -30.99,-12 -45.99,-12 -46.99,0 -80.98,31.99 -80.98,76.98 0,45.99 33.99,78.98 79.98,78.98 19,0 35.99,-5 47.99,-14l-4 -8c-13,8 -26.99,12 -42.99,12 -40.99,0 -69.98,-28.99 -69.98,-68.98 0,-39.99 26.99,-67.98 68.98,-67.98 14,0 23.99,3 42.99,12l4 -9zm68.98 56.99c-3,0 -4,0 -7,1 1,-3 1,-4 1,-8l0 -60.98 -11 0 0 153.96 4 0 7 -5 0 -65.98c0,-3 0,-4 -1,-7 3,1 4,1 7,1l87.98 0c3,0 4,0 6,-1l11 -8 0 -67.98 -11 0 0 60.98c0,4 0,5 1,8 -3,-1 -4,-1 -7,-1l-87.98 0z"/>
     <polygon class="fil6" points="6513.38,545.32 6764.32,342.37 6770.31,349.37 6520.38,552.32 "/>
    </g>
   </g>
   <g>
    <path class="fil2" d="M7337.68 14.01l0 213.66 11.01 0 0 -91.94c0,-2.91 0,-3.89 -0.65,-6.47 11.01,1.29 16.83,1.61 25.25,1.61 24.6,0 42.08,-3.88 53.41,-11.65 16.84,-11.33 26.55,-30.11 26.55,-50.82 0,-36.91 -25.25,-57.63 -70.9,-57.63 -13.27,0 -19.74,0.33 -38.2,2.59l-6.47 0.65zm11.01 15.54c0,-3.56 0,-4.21 -0.65,-7.12 10.36,-1.3 21.69,-1.94 30.43,-1.94 42.08,0 63.77,16.83 63.77,49.2 0,33.67 -23.31,51.47 -67.66,51.47 -8.09,0 -14.89,-0.32 -26.54,-1.62 0.65,-1.62 0.65,-2.26 0.65,-5.5l0 -84.49z"/>
    <path class="fil2" d="M7511.67 227.67l10.36 0 0 -63.45c0,-3.56 0,-4.21 -0.65,-7.12 2.91,0.64 3.56,0.64 7.12,0.64l27.84 0 50.83 69.93 13.27 0 -44.35 -60.22c-4.86,-6.15 -5.5,-7.12 -10.04,-12.3l0.97 -0.32c21.37,-9.39 30.11,-21.04 30.11,-39.49 0,-26.23 -19.42,-41.44 -53.41,-41.44 -9.39,0 -16.84,0.65 -32.05,2.27l0 151.5zm16.83 -78.67c-3.56,0 -4.21,0 -7.12,0.65 0.65,-2.91 0.65,-3.56 0.65,-7.12l0 -51.8c0,-3.56 0,-4.21 -0.65,-7.12 4.86,-0.65 15.21,-0.97 20.72,-0.97 28.16,0 44.67,11.98 44.67,32.05 0,18.45 -14.89,34.31 -32.37,34.31l-25.9 0z"/>
    <path class="fil2" d="M7735.31 72.28c-46.29,0 -79.31,32.05 -79.31,76.4 0,47.26 32.05,79.96 77.7,79.96 46.29,0 77.38,-31.73 77.38,-78.99 0,-45 -31.74,-77.37 -75.77,-77.37zm-2.26 9.39c39.82,0 67.66,28.49 67.66,69.27 0,40.15 -26.55,67.99 -65.4,67.99 -40.14,0 -68.95,-29.46 -68.95,-70.25 0,-39.82 27.19,-67.01 66.69,-67.01z"/>
    <path class="fil2" d="M7911.13 73.25l-10.36 0 0 104.24c0,14.24 -0.32,21.04 -1.29,25.57 -2.59,10.36 -9.72,15.22 -22.99,15.22 -8.41,0 -15.54,-1.94 -23.31,-6.48l-3.23 10.04c8.09,3.88 16.51,5.83 25.57,5.83 25.25,0 35.61,-12.31 35.61,-43.06l0 -111.36z"/>
    <path class="fil2" d="M8063.81 75.52l-81.25 0 0 149.88 88.37 0 2.27 -9.06 -73.81 0c-3.56,0 -4.21,0 -7.12,0.64 0.65,-2.91 0.65,-3.56 0.65,-7.12l0 -53.09c0,-3.56 0,-4.21 -0.65,-7.12 2.91,0.65 3.56,0.65 7.12,0.65l56.33 0 0 -8.74 -56.33 0c-3.56,0 -4.21,0 -7.12,0.64 0.65,-2.91 0.65,-3.56 0.65,-7.12l0 -44.35c0,-3.56 0,-4.21 -0.65,-7.12 2.91,0.65 3.56,0.65 7.12,0.65l64.42 0 0 -8.74z"/>
    <path class="fil2" d="M8242.74 84.58c-17.48,-8.41 -30.43,-11.98 -45.96,-11.98 -46.62,0 -80.61,32.38 -80.61,77.05 0,45.64 33.34,78.66 79.96,78.66 18.77,0 35.93,-4.85 47.91,-13.59l-3.89 -8.42c-13.27,8.42 -27.19,12.3 -43.05,12.3 -40.79,0 -70.57,-29.13 -70.57,-68.95 0,-40.47 27.84,-67.66 69.27,-67.66 14.25,0 24.28,2.92 42.74,11.66l4.2 -9.07z"/>
    <path class="fil2" d="M8269.56 75.52l0 8.74 52.12 0c3.56,0 4.21,0 7.12,-0.65 -0.64,2.91 -0.64,3.56 -0.64,7.12l0 136.94 10.35 0 0 -136.94c0,-3.56 0,-4.21 -0.64,-7.12 2.91,0.65 3.56,0.65 7.12,0.65l52.12 0 0 -8.74 -127.55 0z"/>
   </g>
   <line class="fil0 str0" x1="8261.93" y1="281.39" x2="8463.88" y2= "118.43" />
   <g>
    <path class="fil6" d="M7337.68 284.9l0 213.66 11.01 0 0 -91.94c0,-2.91 0,-3.89 -0.65,-6.47 11.01,1.29 16.83,1.61 25.25,1.61 24.6,0 42.08,-3.88 53.41,-11.65 16.84,-11.33 26.55,-30.11 26.55,-50.82 0,-36.91 -25.25,-57.63 -70.9,-57.63 -13.27,0 -19.74,0.33 -38.2,2.59l-6.47 0.65zm11.01 15.54c0,-3.56 0,-4.21 -0.65,-7.12 10.36,-1.3 21.69,-1.94 30.43,-1.94 42.08,0 63.77,16.83 63.77,49.2 0,33.67 -23.31,51.47 -67.66,51.47 -8.09,0 -14.89,-0.32 -26.54,-1.62 0.65,-1.62 0.65,-2.26 0.65,-5.5l0 -84.49z"/>
    <path class="fil6" d="M7511.67 498.56l10.36 0 0 -63.45c0,-3.56 0,-4.21 -0.65,-7.12 2.91,0.64 3.56,0.64 7.12,0.64l27.84 0 50.83 69.93 13.27 0 -44.35 -60.22c-4.86,-6.15 -5.5,-7.12 -10.04,-12.3l0.97 -0.32c21.37,-9.39 30.11,-21.04 30.11,-39.49 0,-26.23 -19.42,-41.44 -53.41,-41.44 -9.39,0 -16.84,0.65 -32.05,2.27l0 151.5zm16.83 -78.67c-3.56,0 -4.21,0 -7.12,0.65 0.65,-2.91 0.65,-3.56 0.65,-7.12l0 -51.8c0,-3.56 0,-4.21 -0.65,-7.12 4.86,-0.65 15.21,-0.97 20.72,-0.97 28.16,0 44.67,11.98 44.67,32.05 0,18.45 -14.89,34.31 -32.37,34.31l-25.9 0z"/>
    <path class="fil6" d="M7735.31 343.17c-46.29,0 -79.31,32.05 -79.31,76.4 0,47.26 32.05,79.96 77.7,79.96 46.29,0 77.38,-31.73 77.38,-78.99 0,-45 -31.74,-77.37 -75.77,-77.37zm-2.26 9.39c39.82,0 67.66,28.49 67.66,69.27 0,40.15 -26.55,67.99 -65.4,67.99 -40.14,0 -68.95,-29.46 -68.95,-70.25 0,-39.82 27.19,-67.01 66.69,-67.01z"/>
    <path class="fil6" d="M7911.13 344.14l-10.36 0 0 104.24c0,14.24 -0.32,21.04 -1.29,25.57 -2.59,10.36 -9.72,15.22 -22.99,15.22 -8.41,0 -15.54,-1.94 -23.31,-6.48l-3.23 10.04c8.09,3.88 16.51,5.83 25.57,5.83 25.25,0 35.61,-12.31 35.61,-43.06l0 -111.36z"/>
    <path class="fil6" d="M8063.81 346.41l-81.25 0 0 149.88 88.37 0 2.27 -9.06 -73.81 0c-3.56,0 -4.21,0 -7.12,0.64 0.65,-2.91 0.65,-3.56 0.65,-7.12l0 -53.09c0,-3.56 0,-4.21 -0.65,-7.12 2.91,0.65 3.56,0.65 7.12,0.65l56.33 0 0 -8.74 -56.33 0c-3.56,0 -4.21,0 -7.12,0.64 0.65,-2.91 0.65,-3.56 0.65,-7.12l0 -44.35c0,-3.56 0,-4.21 -0.65,-7.12 2.91,0.65 3.56,0.65 7.12,0.65l64.42 0 0 -8.74z"/>
    <path class="fil6" d="M8242.74 355.47c-17.48,-8.41 -30.43,-11.98 -45.96,-11.98 -46.62,0 -80.61,32.38 -80.61,77.05 0,45.64 33.34,78.66 79.96,78.66 18.77,0 35.93,-4.85 47.91,-13.59l-3.89 -8.42c-13.27,8.42 -27.19,12.3 -43.05,12.3 -40.79,0 -70.57,-29.13 -70.57,-68.95 0,-40.47 27.84,-67.66 69.27,-67.66 14.25,0 24.28,2.92 42.74,11.66l4.2 -9.07z"/>
    <path class="fil6" d="M8269.56 346.41l0 8.74 52.12 0c3.56,0 4.21,0 7.12,-0.65 -0.64,2.91 -0.64,3.56 -0.64,7.12l0 136.94 10.35 0 0 -136.94c0,-3.56 0,-4.21 -0.64,-7.12 2.91,0.65 3.56,0.65 7.12,0.65l52.12 0 0 -8.74 -127.55 0z"/>
   </g>
   <line class="fil0 str1" x1="8261.93" y1="552.32" x2="8463.88" y2= "389.36" />
  </g>
 </g>
</svg>
