<?xml version="1.0" encoding="UTF-8"?>
<!DOCTYPE svg PUBLIC "-//W3C//DTD SVG 1.1//EN" "http://www.w3.org/Graphics/SVG/1.1/DTD/svg11.dtd">
<!-- Creator: CorelDRAW X8 -->
<svg xmlns="http://www.w3.org/2000/svg" xml:space="preserve" width="297mm" height="103.563mm" version="1.1" style="shape-rendering:geometricPrecision; text-rendering:geometricPrecision; image-rendering:optimizeQuality; fill-rule:evenodd; clip-rule:evenodd"
viewBox="0 0 29700 10356"
 xmlns:xlink="http://www.w3.org/1999/xlink">
 <defs>
  <style type="text/css">
   <![CDATA[
    .fil0 {fill:#6CD1EF}
    .fil1 {fill:#6CD1EF;fill-rule:nonzero}
   ]]>
  </style>
 </defs>
 <g id="图层_x0020_1">
  <metadata id="CorelCorpID_0Corel-Layer"/>
  <g id="_753630848">
   <path class="fil0" d="M0 0l0 377 2804 0c139,0 164,0 277,-25 -25,113 -25,138 -25,277l0 7708 427 0 0 -7708c0,-139 0,-164 -25,-277 113,25 138,25 277,25l2791 0 0 -377 -6526 0zm12512 8337l453 0 -2553 -6036 -377 0 -2540 6036 415 0 955 -2301 2692 0 955 2301zm-2452 -2640c-516,0 -629,0 -1094,25 201,-428 264,-579 440,-994l201 -490c315,-755 365,-880 591,-1547l38 0c227,667 277,805 579,1547l201 490c214,491 239,579 440,994 -465,-25 -578,-25 -1082,-25l-314 0zm9180 1571c0,114 0,176 25,302 -553,302 -1006,415 -1610,415 -1659,0 -2879,-1144 -2879,-2703 0,-1497 1144,-2603 2678,-2603 767,0 1333,188 2012,666l189 -352c-755,-490 -1346,-679 -2176,-679 -1760,0 -3106,1308 -3106,3018 0,1735 1371,3030 3219,3030 717,0 1333,-163 2050,-565l0 -2390 -2150 0 -101 340 1597 0c139,0 164,0 277,-25 -25,113 -25,138 -25,276l0 1270zm5772 -4451c-453,-340 -918,-503 -1408,-503 -981,0 -1698,629 -1698,1471 0,705 314,1069 1245,1459 855,365 943,415 1194,616 189,148 322,390 370,652l370 -270c-126,-494 -495,-823 -1230,-1136l-541 -227c-754,-327 -1006,-603 -1006,-1119 0,-629 503,-1081 1208,-1081 477,0 867,151 1295,503l201 -365zm-2259 5128c-375,-86 -712,-284 -1111,-639l-176 390c314,254 600,427 900,532l387 -283z"/>
   <polygon class="fil1" points="19731,10063 29464,2193 29700,2486 19967,10356 "/>
  </g>
 </g>
</svg>
