<?xml version="1.0" encoding="UTF-8"?>
<!DOCTYPE svg PUBLIC "-//W3C//DTD SVG 1.1//EN" "http://www.w3.org/Graphics/SVG/1.1/DTD/svg11.dtd">
<!-- Creator: CorelDRAW X8 -->
<svg xmlns="http://www.w3.org/2000/svg" xml:space="preserve" width="297mm" height="210mm" version="1.1" style="shape-rendering:geometricPrecision; text-rendering:geometricPrecision; image-rendering:optimizeQuality; fill-rule:evenodd; clip-rule:evenodd"
viewBox="0 0 29700 21000"
 xmlns:xlink="http://www.w3.org/1999/xlink">
 <defs>
  <style type="text/css">
   <![CDATA[
    .str0 {stroke:#8B8B8C;stroke-width:50}
    .str1 {stroke:#8B8B8C;stroke-width:50}
    .str3 {stroke:#332C2B;stroke-width:20}
    .str2 {stroke:#332C2B;stroke-width:7.62}
    .fil0 {fill:none}
    .fil5 {fill:none;fill-rule:nonzero}
    .fil1 {fill:#EEEEEF}
    .fil2 {fill:#332C2B;fill-rule:nonzero}
    .fil3 {fill:#F08519;fill-rule:nonzero}
    .fil4 {fill:#62C3D0;fill-rule:nonzero}
   ]]>
  </style>
 </defs>
 <g id="图层_x0020_1">
  <metadata id="CorelCorpID_0Corel-Layer"/>
  <g id="_1662328564576">
   <line class="fil0 str0" x1="6628" y1="15073" x2="7062" y2= "15502" />
   <line class="fil0 str0" x1="14743" y1="5563" x2="20368" y2= "12826" />
   <line class="fil0 str0" x1="14067" y1="5651" x2="6257" y2= "14540" />
   <circle class="fil1 str1" cx="14336" cy="5076" r="635"/>
   <g>
    <circle class="fil1 str1" cx="13031" cy="6831" r="635"/>
    <path class="fil2" d="M12896 7021l0 -74c0,-12 2,-20 7,-26 5,-5 12,-8 22,-8 12,0 21,8 28,23 4,10 8,17 11,21 12,15 29,27 51,36 23,9 47,13 74,13 30,0 53,-5 71,-17 18,-12 27,-28 27,-47 0,-19 -7,-33 -21,-42 -14,-8 -38,-12 -72,-12l-24 0c-56,0 -99,-10 -128,-29 -30,-20 -45,-48 -45,-86 0,-35 15,-63 43,-84 28,-21 67,-31 117,-31 27,0 57,4 88,14 8,3 14,4 17,4 3,0 9,-2 17,-8 9,-5 17,-8 25,-8 10,0 16,4 21,10 5,7 7,18 7,31l0 49c0,14 -2,25 -7,31 -4,7 -11,10 -21,10 -8,0 -18,-7 -31,-21 -8,-9 -15,-17 -21,-22 -15,-13 -30,-23 -47,-29 -16,-6 -35,-9 -58,-9 -26,0 -46,6 -62,17 -16,12 -24,26 -24,44 0,17 8,30 24,37 16,8 51,12 104,13 58,2 100,11 127,30 26,19 40,47 40,86 0,37 -15,67 -44,90 -29,22 -69,34 -118,34 -17,0 -35,-2 -56,-5 -20,-3 -43,-8 -70,-15 -10,7 -19,12 -25,15 -7,3 -12,5 -17,5 -10,0 -17,-4 -23,-11 -5,-7 -7,-16 -7,-29z"/>
   </g>
   <g>
    <circle class="fil1 str1" cx="11655" cy="8454" r="635"/>
    <path class="fil2" d="M11814 8314c13,0 23,3 29,7 7,5 10,12 10,23 0,9 -3,17 -9,21 -6,5 -15,8 -26,8l-168 0 0 138c0,45 6,74 18,88 12,15 32,22 60,22 25,0 55,-8 90,-22 35,-15 57,-22 65,-22 8,0 14,3 20,9 6,6 9,13 9,20 0,9 -3,17 -10,24 -7,7 -19,13 -36,20 -27,11 -51,18 -73,23 -22,5 -42,8 -61,8 -32,0 -59,-5 -80,-16 -22,-10 -39,-25 -51,-46 -5,-9 -9,-21 -12,-34 -2,-13 -3,-34 -3,-61l0 -13 0 -138 -69 0c-12,0 -20,-3 -26,-7 -5,-5 -8,-12 -8,-22 0,-12 4,-19 11,-24 7,-4 22,-6 46,-6l46 0 0 -106c0,-12 3,-21 8,-27 5,-5 13,-8 24,-8 13,0 21,3 26,10 5,8 7,23 7,47l0 84 163 0z"/>
   </g>
   <g>
    <circle class="fil1 str1" cx="10385" cy="9918" r="635"/>
    <path class="fil2" d="M10390 10079l138 0c10,0 18,2 23,7 5,4 8,11 8,22 0,11 -2,19 -7,23 -5,4 -14,6 -27,6l-270 0c-11,0 -20,-2 -25,-7 -6,-6 -9,-13 -9,-22 0,-10 3,-17 9,-22 5,-5 14,-7 26,-7l73 0 0 -265 -50 0c-13,0 -23,-3 -29,-7 -6,-5 -9,-12 -9,-23 0,-9 2,-17 8,-21 5,-5 13,-8 25,-8l94 0c7,0 13,2 17,5 4,2 5,7 5,12l0 70c27,-32 54,-57 82,-73 29,-16 59,-24 92,-24 25,0 45,5 60,15 15,10 22,23 22,39 0,9 -4,18 -11,26 -8,8 -16,12 -25,12 -7,0 -18,-4 -33,-12 -15,-9 -28,-13 -40,-13 -21,0 -44,8 -67,23 -24,15 -51,40 -80,73l0 171z"/>
   </g>
   <circle class="fil1 str1" cx="9009" cy="11540" r="635"/>
   <path class="fil2" d="M9135 11727c21,0 35,2 40,6 6,4 9,12 9,23 0,11 -3,19 -8,23 -6,4 -20,6 -41,6l-271 0c-10,0 -17,-2 -23,-7 -5,-5 -7,-12 -7,-22 0,-11 3,-19 9,-23 6,-4 19,-6 41,-6l92 0 0 -372 -92 0c-21,0 -35,-3 -41,-7 -6,-4 -9,-12 -9,-23 0,-11 3,-19 9,-23 6,-5 19,-7 41,-7l270 0c10,0 18,3 23,8 5,5 7,12 7,22 0,11 -3,19 -9,23 -6,4 -20,7 -40,7l-94 0 0 372 94 0z"/>
   <g>
    <circle class="fil1 str1" cx="7633" cy="12969" r="635"/>
    <path class="fil2" d="M7525 13130l0 -265 -18 0c-14,0 -23,-2 -29,-7 -6,-4 -9,-12 -9,-22 0,-11 3,-19 9,-23 6,-4 22,-6 47,-6l39 0c8,0 14,2 18,4 4,4 6,8 6,13l0 28c21,-19 41,-34 60,-43 20,-9 40,-13 61,-13 41,0 74,13 98,39 25,26 37,62 37,108l0 187 18 0c14,0 24,3 30,7 6,5 9,12 9,22 0,11 -3,18 -9,23 -7,5 -18,7 -35,7l-91 0c-18,0 -29,-2 -34,-6 -5,-4 -8,-12 -8,-24 0,-11 3,-18 9,-22 6,-4 17,-7 33,-7l13 0 0 -172c0,-32 -7,-57 -21,-73 -15,-17 -36,-26 -63,-26 -29,0 -54,10 -75,29 -22,19 -33,43 -33,70l0 172c3,0 6,0 10,0 4,0 7,0 8,0 15,0 26,2 31,6 6,4 9,12 9,23 0,12 -3,20 -8,24 -5,4 -17,6 -36,6l-98 0c-11,0 -20,-3 -26,-8 -6,-5 -8,-12 -8,-22 0,-11 3,-18 10,-22 6,-4 19,-7 38,-7l8 0z"/>
   </g>
   <g>
    <circle class="fil1 str1" cx="6257" cy="14592" r="635"/>
    <path class="fil2" d="M6292 14491c-36,0 -66,11 -89,33 -23,23 -34,52 -34,87 0,35 11,64 34,86 23,23 53,34 89,34 36,0 65,-11 88,-34 23,-22 35,-51 35,-86 0,-35 -12,-64 -35,-87 -23,-22 -52,-33 -88,-33zm179 299l0 9c0,34 -2,59 -6,74 -3,15 -10,29 -19,41 -16,21 -37,36 -65,47 -28,10 -61,16 -99,16 -31,0 -54,-3 -69,-9 -14,-7 -21,-16 -21,-30 0,-8 3,-16 10,-22 7,-7 16,-10 25,-10 9,0 21,1 36,3 15,2 27,3 34,3 41,0 70,-9 87,-28 17,-19 25,-51 25,-96l0 -50c-16,20 -35,34 -55,43 -21,9 -44,14 -71,14 -52,0 -94,-18 -128,-52 -34,-34 -50,-78 -50,-132 0,-52 17,-95 52,-130 35,-35 78,-52 130,-52 21,0 41,4 61,12 20,8 40,19 61,35l0 -29c0,-6 2,-10 5,-13 4,-3 10,-4 19,-4l62 0c11,0 20,2 25,7 5,5 8,12 8,22 0,11 -3,18 -10,23 -7,4 -20,6 -39,6l-8 0 0 302z"/>
   </g>
   <line class="fil0 str0" x1="14067" y1="5651" x2="13450" y2= "6354" />
   <line class="fil0 str0" x1="14067" y1="5651" x2="13450" y2= "6354" />
   <g>
    <circle class="fil1 str1" cx="12836" cy="10025" r="635"/>
    <path class="fil2" d="M12870 9924c-36,0 -66,11 -89,33 -22,23 -34,52 -34,87 0,35 12,64 34,87 23,22 53,33 89,33 36,0 65,-11 88,-33 23,-23 35,-52 35,-87 0,-35 -12,-64 -34,-86 -23,-23 -53,-34 -89,-34zm179 299l0 9c0,34 -2,59 -5,74 -4,16 -11,29 -20,41 -16,21 -37,36 -65,47 -28,11 -61,16 -99,16 -31,0 -54,-3 -68,-9 -15,-6 -22,-16 -22,-29 0,-9 3,-16 10,-23 7,-6 16,-10 25,-10 9,0 21,1 36,3 16,3 27,4 34,4 41,0 70,-10 87,-29 17,-18 26,-50 26,-96l0 -50c-17,20 -36,34 -56,43 -21,9 -44,14 -71,14 -51,0 -94,-17 -128,-52 -33,-34 -50,-78 -50,-132 0,-52 17,-95 52,-130 35,-35 78,-52 130,-52 21,0 41,4 61,12 20,8 41,20 61,35l0 -29c0,-6 2,-10 5,-13 4,-3 10,-4 19,-4l62 0c11,0 20,2 25,7 5,5 8,12 8,22 0,11 -3,18 -10,23 -7,4 -20,6 -39,6l-8 0 0 302z"/>
   </g>
   <line class="fil0 str0" x1="12129" y1="8876" x2="12571" y2= "9448" />
   <g>
    <circle class="fil1 str1" cx="15450" cy="6712" r="635"/>
    <path class="fil2" d="M15484 6611c-36,0 -65,11 -88,33 -23,23 -35,51 -35,87 0,35 12,64 35,86 23,23 52,34 88,34 36,0 66,-11 89,-34 23,-22 34,-51 34,-86 0,-35 -11,-64 -34,-87 -23,-22 -53,-33 -89,-33zm180 299l0 9c0,34 -2,59 -6,74 -4,15 -10,29 -20,41 -15,21 -37,36 -65,47 -28,10 -60,16 -98,16 -32,0 -55,-3 -69,-10 -15,-6 -22,-15 -22,-29 0,-8 4,-16 11,-22 7,-7 15,-10 25,-10 8,0 20,1 36,3 15,2 26,3 33,3 41,0 70,-9 87,-28 17,-19 26,-51 26,-96l0 -50c-17,20 -36,34 -56,43 -20,9 -44,14 -70,14 -52,0 -95,-18 -128,-52 -34,-34 -51,-79 -51,-132 0,-52 18,-95 53,-130 35,-35 78,-52 129,-52 21,0 42,4 62,12 20,7 40,19 60,35l0 -29c0,-6 2,-10 6,-13 4,-3 10,-4 18,-4l62 0c11,0 20,2 25,7 6,5 8,12 8,21 0,11 -3,19 -10,23 -7,5 -20,7 -39,7l-7 0 0 302z"/>
   </g>
   <circle class="fil1 str1" cx="17900" cy="9775" r="635"/>
   <path class="fil2" d="M17774 9961c-21,0 -35,2 -41,6 -6,4 -9,12 -9,23 0,11 3,19 9,23 6,5 19,7 41,7l271 0c10,0 17,-3 22,-8 5,-5 8,-12 8,-22 0,-11 -3,-19 -9,-23 -6,-4 -20,-6 -41,-6l-92 0 0 -372 92 0c21,0 34,-2 41,-7 6,-4 9,-12 9,-23 0,-11 -3,-19 -9,-23 -6,-4 -20,-6 -41,-6l-270 0c-10,0 -18,2 -23,7 -5,5 -8,12 -8,22 0,11 3,19 10,23 6,5 19,7 40,7l93 0 0 372 -93 0z"/>
   <circle class="fil1 str1" cx="19275" cy="11203" r="635"/>
   <path class="fil2" d="M19064 11365l0 -265 -18 0c-14,0 -23,-3 -30,-7 -6,-5 -9,-13 -9,-23 0,-11 3,-18 9,-23 7,-4 22,-6 48,-6l39 0c8,0 14,2 18,5 4,3 6,7 6,12l0 28c20,-19 41,-33 60,-42 20,-9 40,-14 61,-14 41,0 74,13 98,39 24,27 36,63 36,108l0 188 19 0c14,0 24,2 30,6 6,5 9,12 9,22 0,11 -3,19 -10,23 -6,5 -18,7 -34,7l-92 0c-17,0 -28,-2 -33,-6 -5,-4 -8,-12 -8,-24 0,-11 3,-18 9,-22 6,-4 17,-6 32,-6l14 0 0 -172c0,-33 -7,-57 -21,-74 -15,-17 -36,-25 -64,-25 -28,0 -53,9 -75,28 -21,19 -32,43 -32,71l0 172c2,0 6,0 10,-1 4,0 6,0 8,0 15,0 25,2 31,6 6,5 9,12 9,23 0,12 -3,20 -8,24 -5,4 -17,6 -36,6l-98 0c-12,0 -20,-2 -26,-7 -6,-5 -9,-13 -9,-23 0,-11 4,-18 10,-22 7,-4 20,-6 39,-6l8 0z"/>
   <circle class="fil1 str1" cx="20651" cy="12826" r="635"/>
   <path class="fil2" d="M20568 12725c-36,0 -66,11 -89,34 -22,22 -34,51 -34,86 0,35 12,64 34,87 23,22 53,33 89,33 36,0 65,-11 88,-33 23,-23 35,-52 35,-87 0,-35 -12,-64 -34,-86 -23,-23 -53,-34 -89,-34zm179 299l0 9c0,34 -2,59 -5,74 -4,16 -11,29 -20,41 -16,21 -37,36 -65,47 -28,11 -61,16 -99,16 -31,0 -54,-3 -68,-9 -15,-6 -22,-16 -22,-29 0,-9 3,-16 10,-23 7,-6 16,-10 25,-10 9,0 21,1 36,4 16,2 27,3 34,3 41,0 70,-10 87,-28 17,-19 26,-51 26,-97l0 -50c-17,20 -36,34 -56,43 -21,9 -44,14 -71,14 -51,0 -94,-17 -128,-52 -33,-34 -50,-78 -50,-132 0,-52 17,-95 52,-130 35,-34 78,-52 130,-52 21,0 41,4 61,12 20,8 41,20 61,35l0 -29c0,-6 2,-10 5,-13 4,-3 10,-4 19,-4l62 0c11,0 20,2 25,7 5,5 8,12 8,22 0,11 -3,18 -10,23 -7,4 -20,6 -39,6l-8 0 0 302z"/>
   <circle class="fil1 str1" cx="16650" cy="8228" r="635"/>
   <path class="fil2" d="M16439 8389l0 -265 -18 0c-14,0 -24,-2 -30,-7 -6,-5 -9,-12 -9,-23 0,-11 3,-18 9,-22 6,-4 22,-6 48,-6l39 0c8,0 14,1 18,4 4,3 6,7 6,13l0 28c20,-20 40,-34 60,-43 20,-9 40,-13 61,-13 41,0 74,13 98,39 24,26 36,62 36,108l0 187 19 0c14,0 24,2 30,7 6,4 9,12 9,22 0,10 -3,18 -10,23 -6,4 -18,6 -34,6l-92 0c-17,0 -29,-2 -34,-6 -4,-4 -7,-12 -7,-23 0,-11 3,-19 9,-23 6,-4 17,-6 32,-6l14 0 0 -172c0,-32 -7,-57 -21,-74 -15,-17 -36,-25 -64,-25 -28,0 -53,10 -75,29 -21,19 -32,42 -32,70l0 172c2,0 6,0 10,0 4,-1 6,-1 8,-1 15,0 25,2 31,7 6,4 8,12 8,23 0,11 -2,19 -7,23 -5,4 -17,6 -36,6l-98 0c-12,0 -20,-2 -26,-7 -6,-5 -9,-12 -9,-22 0,-11 4,-19 10,-23 7,-4 20,-6 38,-6l9 0z"/>
   <path class="fil3" d="M7087 15478l109 -47c1,-1 3,-1 5,-2 2,0 4,0 5,0 2,0 4,0 5,2 2,1 4,5 6,12l10 31c1,5 2,8 2,9 0,1 1,2 1,3 0,3 -2,5 -4,7 -2,1 -5,2 -9,3l-116 26 78 91c2,3 4,5 5,6 0,2 1,3 1,5 0,2 -1,4 -3,6 -2,2 -4,4 -7,6l-28 19c0,1 -2,2 -3,3 -5,3 -8,4 -9,4 -2,0 -5,-1 -6,-2 -2,-1 -3,-4 -5,-7l-61 -103 -62 103c-2,3 -3,5 -5,7 -2,1 -4,2 -6,2 -1,0 -3,0 -5,-2 -2,-1 -5,-2 -7,-5l-27 -19c-4,-2 -6,-5 -8,-7 -2,-2 -3,-4 -3,-5 0,-2 0,-4 1,-6 1,-2 3,-4 5,-5l78 -91 -115 -26c-4,-1 -8,-2 -10,-3 -3,-2 -4,-4 -4,-6 0,-1 0,-3 1,-5 0,-2 1,-5 2,-8l11 -31c2,-6 3,-10 5,-12 1,-2 3,-2 6,-2 2,0 4,0 5,0 2,0 3,1 5,1l109 48 -11 -119 0 -5c0,-5 1,-8 4,-9 2,-2 7,-3 14,-3l33 0c7,0 12,1 14,3 2,1 4,4 4,9l0 5 -10 119z"/>
   <line class="fil0 str0" x1="8061" y1="13439" x2="8494" y2= "13867" />
   <path class="fil3" d="M8519 13843l109 -47c1,0 3,-1 5,-1 2,-1 4,-1 5,-1 2,0 4,1 5,2 2,2 4,6 6,12l10 32c1,4 2,7 2,9 1,1 1,2 1,2 0,3 -1,5 -4,7 -2,2 -5,3 -9,4l-116 26 78 90c2,3 4,5 5,7 0,1 1,3 1,5 0,1 -1,3 -3,5 -1,2 -4,4 -7,6l-27 20c-1,0 -3,1 -4,2 -5,3 -7,5 -9,5 -2,0 -4,-1 -6,-3 -2,-1 -3,-3 -5,-7l-61 -102 -62 102c-1,3 -3,5 -5,7 -2,2 -4,3 -6,3 -1,0 -3,-1 -5,-2 -2,-1 -5,-3 -7,-5l-27 -20c-3,-2 -6,-4 -8,-6 -2,-2 -3,-4 -3,-5 0,-2 0,-4 1,-6 1,-2 3,-4 5,-6l78 -90 -115 -26c-4,-1 -8,-2 -10,-4 -2,-2 -4,-3 -4,-6 0,-1 0,-2 1,-5 0,-2 1,-4 2,-7l11 -32c2,-6 4,-9 5,-11 2,-2 3,-3 6,-3 2,0 4,0 5,0 2,1 3,1 5,2l109 47 -11 -119 0 -5c0,-4 1,-7 4,-9 2,-2 7,-3 14,-3l33 0c7,0 12,1 14,3 3,2 4,5 4,9l0 5 -10 119z"/>
   <line class="fil0 str0" x1="9457" y1="11991" x2="9891" y2= "12419" />
   <path class="fil3" d="M9915 12395l109 -47c2,0 4,-1 6,-1 2,-1 3,-1 4,-1 3,0 4,1 6,2 1,2 3,6 5,12l10 32c1,4 2,7 2,8 1,2 1,3 1,3 0,3 -1,5 -3,7 -3,2 -6,3 -10,4l-116 26 78 90c3,3 4,5 5,7 1,1 1,3 1,4 0,2 -1,4 -3,6 -1,2 -4,4 -7,6l-27 20c-1,0 -2,1 -4,2 -4,3 -7,4 -9,4 -2,0 -4,0 -6,-2 -1,-1 -3,-3 -5,-7l-61 -102 -62 102c-1,3 -3,5 -5,7 -2,2 -4,2 -6,2 -1,0 -3,0 -5,-1 -2,-1 -4,-3 -7,-5l-27 -20c-3,-2 -6,-4 -8,-6 -2,-2 -3,-4 -3,-6 0,-2 1,-4 2,-5 1,-2 2,-4 4,-6l78 -90 -115 -26c-4,-1 -7,-2 -10,-4 -2,-2 -4,-4 -4,-6 0,-1 1,-2 1,-5 0,-2 1,-4 2,-7l11 -32c2,-6 4,-9 5,-11 2,-2 4,-3 6,-3 2,0 4,0 5,0 2,0 4,1 5,1l109 48 -11 -119 0 -5c0,-4 1,-8 4,-9 2,-2 7,-3 14,-3l33 0c8,0 12,1 15,3 2,1 3,5 3,9l0 5 -10 119z"/>
   <line class="fil0 str0" x1="10770" y1="10358" x2="11204" y2= "10787" />
   <path class="fil3" d="M11229 10763l109 -47c1,-1 3,-1 5,-2 2,0 4,0 5,0 2,0 4,0 5,2 2,1 4,5 6,12l10 31c1,5 2,8 2,9 0,1 1,2 1,3 0,3 -2,5 -4,7 -2,1 -5,2 -9,3l-116 26 78 91c2,2 4,5 5,6 0,2 1,3 1,5 0,2 -1,3 -3,6 -2,2 -4,4 -7,6l-28 19c0,1 -2,2 -3,3 -5,3 -8,4 -9,4 -2,0 -4,-1 -6,-2 -2,-1 -3,-4 -5,-7l-61 -103 -62 103c-2,3 -3,5 -5,7 -2,1 -4,2 -6,2 -1,0 -3,-1 -5,-2 -2,-1 -5,-2 -7,-5l-27 -19c-4,-2 -6,-5 -8,-7 -2,-2 -3,-4 -3,-5 0,-2 0,-4 1,-6 1,-2 3,-4 5,-5l78 -91 -115 -26c-4,-1 -8,-2 -10,-3 -3,-2 -4,-4 -4,-6 0,-1 0,-3 1,-5 0,-2 1,-5 2,-8l11 -32c2,-5 3,-9 5,-11 1,-2 3,-2 6,-2 2,0 4,0 5,0 2,0 3,0 5,1l109 48 -11 -119 0 -5c0,-5 1,-8 4,-9 2,-2 7,-3 14,-3l33 0c7,0 12,1 14,3 3,1 4,4 4,9l0 5 -10 119z"/>
   <line class="fil0 str0" x1="13228" y1="10525" x2="13662" y2= "10953" />
   <path class="fil3" d="M13686 10929l109 -47c2,0 3,-1 6,-1 1,-1 3,-1 4,-1 2,0 4,0 6,2 1,2 3,5 5,12l10 32c1,4 2,7 2,8 1,2 1,3 1,3 0,3 -1,5 -4,7 -2,1 -5,3 -9,3l-116 27 78 90c2,3 4,5 5,6 0,2 1,4 1,5 0,2 -1,4 -3,6 -1,2 -4,4 -7,6l-27 20c-1,0 -3,1 -4,2 -5,3 -7,4 -9,4 -2,0 -4,0 -6,-2 -2,-1 -3,-4 -5,-7l-61 -102 -62 102c-1,3 -3,5 -5,7 -2,1 -4,2 -6,2 -1,0 -3,0 -5,-1 -2,-2 -4,-3 -7,-5l-27 -20c-3,-2 -6,-5 -8,-7 -2,-2 -3,-3 -3,-5 0,-2 0,-4 1,-5 1,-2 3,-4 5,-6l78 -90 -115 -27c-4,0 -7,-2 -10,-3 -2,-2 -4,-4 -4,-6 0,-1 0,-2 1,-5 0,-2 1,-5 2,-7l11 -32c2,-6 4,-9 5,-11 2,-2 3,-3 6,-3 2,0 4,0 5,0 2,0 3,1 5,1l109 48 -11 -119 0 -5c0,-4 1,-8 4,-9 2,-2 7,-3 14,-3l33 0c8,0 12,1 15,3 2,1 3,5 3,9l0 5 -10 119z"/>
   <line class="fil0 str0" x1="11655" y1="9089" x2="12089" y2= "9517" />
   <path class="fil3" d="M12113 9493l109 -47c2,-1 4,-1 6,-2 2,0 3,0 5,0 2,0 4,0 5,2 1,1 3,5 5,12l11 32c1,4 1,7 2,8 0,2 0,3 0,3 0,3 -1,5 -3,7 -2,1 -6,3 -10,3l-115 26 77 91c3,3 4,5 5,6 1,2 1,4 1,5 0,2 -1,4 -2,6 -2,2 -5,4 -8,6l-27 20c-1,0 -2,1 -4,2 -4,3 -7,4 -8,4 -3,0 -5,-1 -7,-2 -1,-1 -3,-4 -5,-7l-61 -102 -61 102c-2,3 -4,5 -6,7 -2,1 -4,2 -6,2 -1,0 -2,0 -4,-2 -3,-1 -5,-2 -8,-4l-26 -20c-4,-2 -7,-5 -9,-7 -2,-2 -3,-4 -3,-5 0,-2 1,-4 2,-6 1,-2 2,-4 5,-5l77 -91 -115 -26c-4,0 -7,-2 -10,-3 -2,-2 -3,-4 -3,-6 0,-1 0,-2 0,-5 1,-2 1,-5 2,-7l11 -32c2,-6 4,-10 6,-12 1,-2 3,-2 5,-2 2,0 4,0 6,0 1,0 3,1 4,1l110 48 -11 -119 0 -5c0,-5 1,-8 3,-9 2,-2 7,-3 14,-3l33 0c8,0 13,1 15,3 2,1 3,4 3,9l0 5 -10 119z"/>
   <line class="fil0 str0" x1="13423" y1="7330" x2="13857" y2= "7758" />
   <path class="fil3" d="M13882 7734l109 -47c1,0 3,-1 5,-1 2,-1 4,-1 5,-1 2,0 4,1 5,2 2,2 4,6 6,12l10 32c1,4 2,7 2,9 0,1 1,2 1,2 0,3 -2,5 -4,7 -2,2 -5,3 -9,4l-116 26 78 90c2,3 4,5 5,7 0,1 1,3 1,5 0,1 -1,3 -3,5 -2,2 -4,4 -7,6l-28 20c0,0 -2,1 -3,2 -5,3 -8,5 -9,5 -2,0 -5,-1 -6,-3 -2,-1 -3,-3 -5,-7l-61 -102 -62 102c-2,3 -3,5 -5,7 -2,2 -4,3 -6,3 -1,0 -3,-1 -5,-2 -2,-1 -5,-3 -7,-5l-27 -20c-4,-2 -6,-4 -8,-6 -2,-2 -3,-4 -3,-5 0,-2 0,-4 1,-6 1,-2 3,-4 5,-6l78 -90 -115 -26c-4,-1 -8,-2 -10,-4 -3,-2 -4,-3 -4,-6 0,-1 0,-2 1,-5 0,-2 1,-4 2,-7l11 -32c2,-6 3,-9 5,-11 1,-2 3,-3 6,-3 2,0 4,0 5,0 2,1 3,1 5,2l109 47 -11 -119 0 -5c0,-4 1,-7 4,-9 2,-2 7,-3 14,-3l33 0c7,0 12,1 14,3 2,2 4,5 4,9l0 5 -10 119z"/>
   <line class="fil0 str0" x1="16085" y1="6712" x2="16519" y2= "7140" />
   <path class="fil3" d="M16543 7116l109 -47c2,0 4,-1 6,-1 2,-1 3,-1 4,-1 3,0 5,1 6,2 1,2 3,6 5,12l10 32c2,4 2,7 3,9 0,1 0,2 0,2 0,3 -1,5 -3,7 -3,2 -6,3 -10,4l-115 26 77 90c3,3 4,5 5,7 1,1 1,3 1,4 0,2 -1,4 -2,6 -2,2 -5,4 -8,6l-27 20c-1,0 -2,1 -4,2 -4,3 -7,4 -9,4 -2,0 -4,0 -6,-2 -1,-1 -3,-3 -5,-7l-61 -102 -61 102c-2,3 -4,5 -6,7 -2,2 -4,2 -6,2 -1,0 -2,0 -5,-1 -2,-1 -4,-3 -7,-5l-27 -20c-3,-2 -6,-4 -8,-6 -2,-2 -3,-4 -3,-6 0,-1 1,-3 2,-5 1,-2 2,-4 5,-6l77 -90 -115 -26c-4,-1 -7,-2 -10,-4 -2,-2 -3,-4 -3,-6 0,-1 0,-2 0,-5 1,-2 1,-4 2,-7l11 -32c2,-6 4,-9 5,-11 2,-2 4,-3 6,-3 2,0 4,0 6,0 1,0 3,1 4,1l110 48 -12 -119 0 -5c0,-4 2,-8 4,-9 2,-2 7,-3 14,-3l33 0c8,0 13,1 15,3 2,1 3,5 3,9l0 5 -10 119z"/>
   <line class="fil0 str0" x1="17265" y1="8389" x2="17698" y2= "8818" />
   <path class="fil3" d="M17723 8793l109 -46c1,-1 3,-1 5,-2 2,0 4,-1 5,-1 2,0 4,1 5,3 2,1 4,5 6,12l10 31c1,5 2,8 2,9 1,1 1,2 1,3 0,3 -1,5 -4,6 -2,2 -5,3 -9,4l-116 26 78 90c2,3 4,6 5,7 0,2 1,3 1,5 0,2 -1,3 -3,5 -1,3 -4,5 -7,7l-27 19c-1,1 -3,2 -4,3 -5,3 -7,4 -9,4 -2,0 -4,-1 -6,-2 -2,-1 -3,-4 -5,-7l-61 -103 -62 103c-1,3 -3,5 -5,6 -2,2 -4,3 -6,3 -1,0 -3,-1 -5,-2 -2,-1 -5,-2 -7,-5l-27 -19c-3,-3 -6,-5 -8,-7 -2,-2 -3,-4 -3,-5 0,-2 0,-4 1,-6 1,-2 3,-4 5,-6l78 -90 -115 -26c-4,-1 -8,-2 -10,-4 -2,-1 -4,-3 -4,-5 0,-1 0,-3 1,-5 0,-2 1,-5 2,-8l11 -32c2,-5 4,-9 5,-11 2,-2 3,-3 6,-3 2,0 4,1 5,1 2,0 3,0 5,1l109 47 -11 -118 0 -5c0,-5 1,-8 4,-10 2,-1 7,-2 14,-2l33 0c7,0 12,1 14,2 3,2 4,5 4,10l0 5 -10 118z"/>
   <line class="fil0 str0" x1="18515" y1="9933" x2="18949" y2= "10361" />
   <path class="fil3" d="M18973 10337l109 -47c2,0 4,-1 6,-1 2,-1 3,-1 4,-1 3,0 4,1 6,2 1,2 3,6 5,12l10 32c1,4 2,7 2,8 1,2 1,3 1,3 0,3 -1,5 -3,7 -3,2 -6,3 -10,4l-116 26 78 90c3,3 4,5 5,7 1,1 1,3 1,4 0,2 -1,4 -3,6 -1,2 -4,4 -7,6l-27 20c-1,0 -2,1 -4,2 -4,3 -7,4 -9,4 -2,0 -4,0 -6,-2 -1,-1 -3,-3 -5,-7l-61 -102 -62 102c-1,3 -3,5 -5,7 -2,2 -4,2 -6,2 -1,0 -3,0 -5,-1 -2,-1 -4,-3 -7,-5l-27 -20c-3,-2 -6,-4 -8,-7 -2,-1 -3,-3 -3,-5 0,-2 1,-4 2,-5 1,-2 2,-4 4,-6l78 -90 -115 -26c-4,-1 -7,-2 -10,-4 -2,-2 -4,-4 -4,-6 0,-1 1,-2 1,-5 0,-2 1,-4 2,-7l11 -32c2,-6 4,-9 5,-11 2,-2 4,-3 6,-3 2,0 4,0 5,0 2,0 4,1 5,1l110 48 -12 -119 0 -5c0,-4 1,-8 4,-9 2,-2 7,-3 14,-3l33 0c8,0 12,1 15,3 2,1 3,5 3,9l0 5 -10 119z"/>
   <line class="fil0 str0" x1="19804" y1="11556" x2="20238" y2= "11984" />
   <path class="fil3" d="M20262 11960l109 -47c2,0 4,-1 6,-1 2,-1 3,-1 4,-1 3,0 4,0 6,2 1,2 3,6 5,12l10 32c2,4 2,7 2,8 1,2 1,3 1,3 0,3 -1,5 -3,7 -3,2 -6,3 -10,3l-115 27 77 90c3,3 4,5 5,7 1,1 1,3 1,4 0,2 -1,4 -2,6 -2,2 -5,4 -8,6l-27 20c-1,0 -2,1 -4,2 -4,3 -7,4 -9,4 -2,0 -4,0 -6,-2 -1,-1 -3,-3 -5,-7l-61 -102 -62 102c-1,3 -3,5 -5,7 -2,1 -4,2 -6,2 -1,0 -3,0 -5,-1 -2,-2 -4,-3 -7,-5l-27 -20c-3,-2 -6,-4 -8,-7 -2,-2 -3,-3 -3,-5 0,-2 1,-4 2,-5 1,-2 2,-4 4,-6l78 -90 -115 -27c-4,0 -7,-1 -10,-3 -2,-2 -4,-4 -4,-6 0,-1 1,-2 1,-5 0,-2 1,-5 2,-7l11 -32c2,-6 4,-9 5,-11 2,-2 4,-3 6,-3 2,0 4,0 6,0 1,0 3,1 4,1l110 48 -12 -119 0 -5c0,-4 2,-8 4,-9 2,-2 7,-3 14,-3l33 0c8,0 12,1 15,3 2,1 3,5 3,9l0 5 -10 119z"/>
   <line class="fil0 str0" x1="21082" y1="13218" x2="21516" y2= "13647" />
   <path class="fil3" d="M21540 13622l109 -47c2,0 3,-1 6,-1 1,-1 3,-1 4,-1 2,0 4,1 6,2 1,2 3,6 5,12l10 32c1,4 2,7 2,9 1,1 1,2 1,2 0,3 -1,5 -3,7 -3,2 -6,3 -10,4l-116 26 78 90c2,3 4,5 5,7 0,1 1,3 1,5 0,1 -1,3 -3,5 -1,2 -4,4 -7,6l-27 20c-1,1 -2,1 -4,3 -5,2 -7,4 -9,4 -2,0 -4,-1 -6,-3 -2,-1 -3,-3 -5,-6l-61 -103 -62 103c-1,2 -3,5 -5,6 -2,2 -4,3 -6,3 -1,0 -3,-1 -5,-2 -2,-1 -4,-3 -7,-5l-27 -20c-3,-2 -6,-4 -8,-6 -2,-2 -3,-4 -3,-5 0,-2 0,-4 1,-6 1,-2 3,-4 5,-6l78 -90 -115 -26c-4,-1 -7,-2 -10,-4 -2,-2 -4,-3 -4,-6 0,-1 0,-2 1,-4 0,-3 1,-5 2,-8l11 -32c2,-5 4,-9 5,-11 2,-2 3,-3 6,-3 2,0 4,0 5,0 2,1 3,1 5,2l109 47 -11 -119 0 -4c0,-5 1,-8 4,-10 2,-2 7,-2 14,-2l33 0c8,0 12,0 15,2 2,2 3,5 3,10l0 4 -10 119z"/>
   <line class="fil0 str0" x1="5830" y1="15061" x2="5396" y2= "15490" />
   <path class="fil4" d="M5371 15465l-109 -46c-1,-1 -3,-1 -5,-2 -2,0 -4,-1 -5,-1 -2,0 -4,1 -5,3 -2,1 -3,5 -6,12l-10 31c-1,5 -2,8 -2,9 0,1 0,2 0,3 0,3 1,5 3,6 2,2 5,3 9,4l116 26 -78 90c-2,3 -4,6 -4,7 -1,2 -1,3 -1,5 0,1 0,3 2,5 2,3 4,5 7,7l28 19c1,1 2,2 4,3 4,2 7,4 8,4 3,0 5,-1 6,-2 2,-2 4,-4 5,-7l61 -103 62 103c2,3 3,5 5,6 2,2 4,3 6,3 1,0 3,-1 5,-2 2,-1 5,-3 8,-5l26 -19c4,-3 7,-5 8,-7 2,-2 3,-4 3,-5 0,-2 0,-4 -1,-6 -1,-2 -3,-4 -5,-6l-78 -90 115 -26c5,-1 8,-2 10,-4 3,-1 4,-3 4,-5 0,-1 0,-3 -1,-5 0,-2 -1,-5 -2,-8l-11 -32c-2,-5 -3,-9 -5,-11 -1,-2 -3,-3 -5,-3 -3,0 -4,0 -6,1 -1,0 -3,0 -5,1l-109 47 11 -118 0 -5c0,-5 -1,-8 -3,-10 -3,-1 -7,-2 -15,-2l-33 0c-7,0 -12,1 -14,2 -2,2 -3,5 -3,10l0 5 9 118z"/>
   <line class="fil0 str0" x1="12671" y1="10639" x2="12237" y2= "11067" />
   <path class="fil4" d="M12213 11043l-109 -47c-2,0 -4,-1 -6,-1 -2,-1 -3,-1 -4,-1 -3,0 -4,0 -6,2 -1,1 -3,5 -5,12l-10 32c-2,4 -2,7 -3,8 0,2 0,3 0,3 0,3 1,5 3,7 3,1 6,3 10,3l115 27 -77 90c-3,3 -4,5 -5,6 -1,2 -1,4 -1,5 0,2 1,4 2,6 2,2 5,4 8,6l27 20c1,0 2,1 4,2 4,3 7,4 9,4 2,0 4,0 6,-2 1,-1 3,-4 5,-7l61 -102 62 102c1,3 3,5 5,7 2,1 4,2 6,2 1,0 2,0 5,-1 2,-2 4,-3 7,-5l27 -20c3,-2 6,-5 8,-7 2,-2 3,-3 3,-5 0,-2 -1,-4 -2,-6 -1,-1 -2,-3 -4,-5l-78 -90 115 -27c4,0 7,-2 10,-3 2,-2 3,-4 3,-6 0,-1 0,-2 0,-5 0,-2 -1,-5 -2,-7l-11 -32c-2,-6 -4,-10 -5,-11 -2,-2 -4,-3 -6,-3 -2,0 -4,0 -6,0 -1,0 -3,1 -4,1l-110 48 12 -119 0 -5c0,-4 -2,-8 -4,-9 -2,-2 -7,-3 -14,-3l-33 0c-8,0 -13,1 -15,3 -2,1 -3,5 -3,9l0 5 10 119z"/>
   <line class="fil0 str0" x1="20255" y1="13323" x2="19821" y2= "13751" />
   <path class="fil4" d="M19797 13727l-109 -47c-2,0 -4,-1 -6,-1 -2,-1 -3,-1 -4,-1 -3,0 -4,0 -6,2 -1,2 -3,5 -5,12l-10 32c-1,4 -2,7 -2,8 -1,2 -1,3 -1,3 0,3 1,5 3,7 3,1 6,3 10,3l116 27 -78 90c-3,3 -4,5 -5,6 -1,2 -1,4 -1,5 0,2 1,4 3,6 1,2 4,4 7,6l27 20c1,0 2,1 4,2 4,3 7,4 9,4 2,0 4,0 6,-2 1,-1 3,-4 5,-7l61 -102 62 102c1,3 3,5 5,7 2,1 4,2 6,2 1,0 3,0 5,-1 2,-2 4,-3 7,-5l27 -20c3,-2 6,-5 8,-7 2,-2 3,-3 3,-5 0,-2 -1,-4 -2,-6 -1,-1 -2,-3 -4,-5l-78 -90 115 -27c4,0 7,-2 10,-3 2,-2 4,-4 4,-6 0,-1 -1,-2 -1,-5 0,-2 -1,-5 -2,-7l-11 -32c-2,-6 -4,-9 -5,-11 -2,-2 -4,-3 -6,-3 -2,0 -4,0 -5,0 -2,0 -4,1 -5,1l-110 48 12 -119 0 -5c0,-4 -1,-8 -4,-9 -2,-2 -7,-3 -14,-3l-33 0c-8,0 -12,1 -15,3 -2,1 -3,5 -3,9l0 5 10 119z"/>
   <path class="fil2" d="M14102 5009l0 -239 106 0c21,0 38,2 49,6 11,4 20,12 26,23 7,11 10,23 10,36 0,17 -5,31 -16,43 -11,11 -28,19 -51,22 8,4 15,8 19,12 9,8 18,19 26,32l41 65 -39 0 -32 -50c-9,-14 -16,-25 -22,-33 -6,-8 -12,-13 -17,-16 -4,-3 -9,-5 -14,-6 -3,-1 -9,-2 -18,-2l-36 0 0 107 -32 0zm32 -134l68 0c14,0 25,-1 34,-4 8,-3 14,-8 18,-15 4,-6 6,-13 6,-21 0,-12 -4,-21 -12,-28 -8,-7 -21,-11 -39,-11l-75 0 0 79z"/>
   <path id="1" class="fil2" d="M14352 4892c0,-39 10,-70 32,-93 21,-22 48,-33 82,-33 22,0 42,5 60,15 18,11 31,26 40,44 10,19 14,41 14,65 0,24 -5,45 -14,65 -10,19 -24,33 -42,43 -18,10 -37,15 -58,15 -23,0 -43,-6 -60,-17 -18,-10 -32,-25 -41,-44 -9,-19 -13,-39 -13,-60zm32 1c0,29 8,51 23,68 16,16 35,25 59,25 24,0 43,-9 59,-25 15,-17 23,-41 23,-72 0,-19 -4,-36 -10,-50 -7,-15 -16,-26 -29,-34 -13,-8 -27,-12 -43,-12 -22,0 -41,8 -58,23 -16,15 -24,41 -24,77z"/>
   <path id="2" class="fil2" d="M14092 5265c0,-39 10,-70 32,-93 21,-22 49,-33 82,-33 22,0 42,5 60,15 18,11 31,26 41,45 9,18 14,40 14,64 0,24 -5,46 -15,65 -10,19 -24,33 -42,43 -18,10 -37,15 -58,15 -22,0 -42,-6 -60,-17 -18,-10 -31,-25 -41,-44 -9,-19 -13,-39 -13,-60zm33 1c0,29 7,51 23,68 15,16 35,25 58,25 24,0 43,-9 59,-25 15,-17 23,-41 23,-71 0,-20 -3,-37 -10,-51 -7,-15 -16,-26 -29,-34 -13,-8 -27,-12 -43,-12 -22,0 -41,8 -57,23 -16,15 -24,41 -24,77z"/>
   <polygon id="3" class="fil2" points="14441,5382 14441,5171 14362,5171 14362,5143 14551,5143 14551,5171 14472,5171 14472,5382 "/>
   <path id="4" class="fil5 str2" d="M14102 5009l0 -239 106 0c21,0 38,2 49,6 11,4 20,12 26,23 7,11 10,23 10,36 0,17 -5,31 -16,43 -11,11 -28,19 -51,22 8,4 15,8 19,12 9,8 18,19 26,32l41 65 -39 0 -32 -50c-9,-14 -16,-25 -22,-33 -6,-8 -12,-13 -17,-16 -4,-3 -9,-5 -14,-6 -3,-1 -9,-2 -18,-2l-36 0 0 107 -32 0zm32 -134l68 0c14,0 25,-1 34,-4 8,-3 14,-8 18,-15 4,-6 6,-13 6,-21 0,-12 -4,-21 -12,-28 -8,-7 -21,-11 -39,-11l-75 0 0 79z"/>
   <path id="5" class="fil5 str2" d="M14352 4892c0,-39 10,-70 32,-93 21,-22 48,-33 82,-33 22,0 42,5 60,15 18,11 31,26 40,44 10,19 14,41 14,65 0,24 -5,45 -14,65 -10,19 -24,33 -42,43 -18,10 -37,15 -58,15 -23,0 -43,-6 -60,-17 -18,-10 -32,-25 -41,-44 -9,-19 -13,-39 -13,-60zm32 1c0,29 8,51 23,68 16,16 35,25 59,25 24,0 43,-9 59,-25 15,-17 23,-41 23,-72 0,-19 -4,-36 -10,-50 -7,-15 -16,-26 -29,-34 -13,-8 -27,-12 -43,-12 -22,0 -41,8 -58,23 -16,15 -24,41 -24,77z"/>
   <path id="6" class="fil5 str2" d="M14092 5265c0,-39 10,-70 32,-93 21,-22 49,-33 82,-33 22,0 42,5 60,15 18,11 31,26 41,45 9,18 14,40 14,64 0,24 -5,46 -15,65 -10,19 -24,33 -42,43 -18,10 -37,15 -58,15 -22,0 -42,-6 -60,-17 -18,-10 -31,-25 -41,-44 -9,-19 -13,-39 -13,-60zm33 1c0,29 7,51 23,68 15,16 35,25 58,25 24,0 43,-9 59,-25 15,-17 23,-41 23,-71 0,-20 -3,-37 -10,-51 -7,-15 -16,-26 -29,-34 -13,-8 -27,-12 -43,-12 -22,0 -41,8 -57,23 -16,15 -24,41 -24,77z"/>
   <polygon id="7" class="fil5 str2" points="14441,5382 14441,5171 14362,5171 14362,5143 14551,5143 14551,5171 14472,5171 14472,5382 "/>
   <g>
    <path class="fil2" d="M5575 4823c0,-33 13,-58 38,-76 25,-18 55,-26 91,-26 19,0 38,2 56,6 18,7 30,11 36,11 7,0 12,-2 17,-4 4,-2 10,-7 16,-13l13 108 -19 3c-9,-28 -24,-51 -45,-67 -21,-17 -45,-25 -71,-25 -29,0 -51,6 -68,17 -16,11 -24,26 -24,46 0,18 3,32 11,42 8,9 22,17 42,21 15,7 35,13 59,20 22,9 43,18 63,26 17,9 32,21 44,35 13,14 19,30 19,48 0,33 -12,59 -35,78 -23,18 -57,28 -101,28 -29,0 -50,-4 -63,-10 -15,-5 -28,-7 -36,-7 -7,0 -14,2 -22,5 -8,3 -16,7 -25,12l-10 -122 20 -4c7,36 21,62 43,80 22,17 53,26 93,26 31,0 54,-5 71,-16 16,-11 25,-28 25,-50 0,-15 -5,-28 -13,-38 -9,-10 -18,-17 -27,-22 -22,-8 -46,-18 -73,-29 -26,-9 -49,-18 -69,-27 -20,-9 -34,-20 -43,-33 -9,-13 -13,-28 -13,-43z"/>
    <path id="1" class="fil2" d="M6199 4992c0,31 5,52 16,63 11,11 28,16 50,16 22,0 39,-7 53,-21 13,-15 22,-35 26,-62l17 7c-5,31 -16,56 -35,76 -19,20 -44,30 -74,30 -33,0 -58,-10 -75,-30 -16,-20 -25,-51 -25,-93l0 -231 -99 0 0 -20 27 0c26,0 47,-8 64,-24 17,-17 27,-43 32,-78l3 -26 20 0 0 128 132 0 0 20 -132 0 0 245z"/>
    <path id="2" class="fil2" d="M6677 4830c22,-36 46,-63 71,-81 25,-19 51,-28 78,-28 22,0 39,5 51,14 12,10 18,22 18,35 0,11 -3,20 -8,26 -6,7 -14,10 -25,10 -11,0 -19,-3 -25,-10 -5,-6 -7,-15 -5,-26 0,-7 -1,-12 -3,-16 -2,-5 -9,-7 -20,-7 -17,0 -39,11 -64,33 -25,22 -48,53 -68,93l0 178c0,9 3,16 9,20 5,5 12,7 21,7l73 0 0 19 -245 0 0 -19 66 0c11,0 19,-2 23,-7 4,-4 7,-11 7,-20l0 -274c0,-9 -3,-16 -7,-22 -4,-5 -12,-8 -23,-8l-63 0 0 -20 27 0c15,0 33,-1 54,-5 21,-3 37,-7 48,-12l10 0 0 120z"/>
    <path id="3" class="fil2" d="M7205 4779c0,-9 -3,-16 -7,-22 -4,-5 -12,-8 -23,-8l-69 -2 0 -20 33 0c19,0 38,-1 56,-5 18,-3 34,-9 50,-17l6 0 0 347c0,8 3,15 9,19 5,5 12,7 21,7l70 0 0 19 -245 0 0 -19 69 0c11,0 19,-2 23,-7 4,-4 7,-11 7,-19l0 -273zm26 -253c11,0 21,4 30,11 9,8 13,18 13,29 0,11 -4,21 -13,30 -9,9 -19,13 -30,13 -11,0 -21,-4 -30,-13 -9,-9 -13,-19 -13,-30 0,-11 4,-21 13,-29 9,-7 19,-11 30,-11z"/>
    <path id="4" class="fil2" d="M7550 5097l0 -19 17 0c11,0 19,-2 23,-7 5,-4 7,-11 7,-20l0 -284c0,-7 -1,-12 -4,-15 -2,-3 -6,-5 -13,-5l-26 0 0 -20 23 0c11,0 21,-1 31,-3 10,-2 20,-7 29,-14l6 0 0 77c20,-22 40,-39 60,-50 20,-11 41,-16 63,-16 37,0 64,10 82,29 18,20 26,50 26,90l0 211c0,9 3,16 9,20 5,5 13,7 21,7l17 0 0 19 -139 0 0 -19 16 0c11,0 19,-2 23,-7 5,-4 7,-11 7,-20l0 -221c0,-27 -6,-47 -17,-62 -11,-14 -27,-21 -49,-21 -20,0 -40,7 -61,20 -21,13 -40,32 -58,56l0 228c0,9 3,16 9,20 5,5 12,7 21,7l17 0 0 19 -140 0z"/>
    <path id="5" class="fil2" d="M8148 4850c0,26 8,49 23,68 15,18 37,28 63,28 29,0 50,-8 64,-25 15,-17 22,-40 22,-71 0,-38 -8,-65 -25,-82 -17,-16 -37,-24 -61,-24 -24,0 -45,8 -61,24 -17,17 -25,44 -25,82zm162 178c33,5 58,14 73,28 15,15 23,34 23,58 0,34 -14,60 -41,80 -28,20 -71,30 -131,30 -46,0 -84,-10 -112,-29 -29,-18 -43,-40 -43,-64 0,-16 5,-31 16,-46 11,-16 29,-28 53,-37 -13,-6 -24,-14 -32,-21 -7,-8 -11,-17 -11,-29 0,-13 4,-24 13,-34 9,-10 20,-18 33,-25 -13,-11 -25,-24 -35,-40 -10,-15 -15,-32 -15,-49 0,-33 12,-63 35,-88 23,-25 56,-38 98,-38 18,0 35,2 51,7 17,4 31,12 42,23 15,-11 29,-20 41,-25 12,-6 23,-8 31,-8 11,0 19,3 23,11 5,8 7,15 7,22 0,8 -2,16 -5,21 -3,6 -9,8 -18,8 -7,0 -12,-1 -17,-5 -4,-3 -7,-8 -9,-15 -3,-6 -8,-9 -15,-8 -8,1 -16,5 -25,12 9,9 15,21 20,36 4,16 6,31 6,47 0,26 -10,52 -31,77 -21,26 -55,38 -101,38 -13,0 -25,-1 -37,-5 -11,-3 -19,-7 -26,-11 -9,4 -15,10 -20,16 -4,7 -6,13 -6,17 0,9 2,16 6,20 5,4 11,7 20,7 29,4 55,8 78,11 23,3 43,6 61,8zm-135 27c-20,9 -34,19 -42,31 -7,13 -11,28 -11,45 0,18 10,34 29,50 20,15 50,23 90,23 37,0 67,-6 89,-18 22,-12 33,-31 33,-55 0,-15 -3,-28 -8,-36 -6,-9 -14,-15 -25,-17 -22,-4 -46,-9 -73,-13 -26,-2 -54,-6 -82,-10z"/>
    <path id="6" class="fil2" d="M8599 5038c0,-9 4,-18 12,-26 8,-9 19,-14 35,-14 17,0 31,8 41,22 10,14 15,29 15,45 0,30 -9,59 -27,85 -17,27 -43,47 -76,60l-13 -16c22,-14 38,-28 49,-42 11,-14 17,-29 17,-45 0,-11 -9,-20 -27,-29 -17,-9 -26,-22 -26,-40z"/>
    <path id="7" class="fil2" d="M7099 5670c0,-33 13,-59 38,-76 25,-18 55,-27 91,-27 20,0 38,3 56,7 18,7 30,10 36,10 7,0 12,-1 17,-3 4,-2 10,-7 16,-14l13 109 -19 3c-9,-28 -24,-51 -45,-68 -21,-16 -44,-24 -71,-24 -29,0 -51,5 -68,16 -16,11 -24,27 -24,47 0,17 4,31 11,41 8,10 22,17 42,22 15,6 35,13 59,20 22,8 43,17 63,26 17,9 32,20 44,35 13,14 19,30 19,48 0,33 -12,59 -35,77 -23,19 -57,28 -101,28 -29,0 -50,-3 -63,-10 -15,-4 -28,-6 -36,-6 -7,0 -14,1 -22,5 -8,3 -16,7 -25,11l-10 -121 20 -4c7,35 21,62 43,79 22,18 53,27 93,27 31,0 54,-6 71,-17 17,-11 25,-27 25,-49 0,-16 -5,-28 -13,-38 -9,-10 -18,-17 -27,-22 -22,-9 -46,-19 -72,-30 -27,-9 -50,-17 -70,-26 -20,-9 -34,-20 -43,-33 -9,-13 -13,-28 -13,-43z"/>
    <path id="8" class="fil2" d="M7723 5838c0,31 5,52 16,63 11,11 28,17 50,17 22,0 39,-7 53,-22 13,-14 22,-34 26,-61l17 7c-5,31 -16,56 -35,76 -19,20 -44,29 -74,29 -33,0 -58,-9 -75,-29 -16,-20 -25,-51 -25,-93l0 -231 -99 0 0 -20 27 0c26,0 48,-8 64,-25 17,-16 27,-42 32,-77l3 -27 20 0 0 129 132 0 0 20 -132 0 0 244z"/>
    <path id="9" class="fil2" d="M8148 5696c0,27 8,50 23,68 15,19 37,29 63,29 29,0 50,-9 64,-25 15,-17 22,-41 22,-72 0,-37 -8,-64 -25,-81 -17,-16 -37,-25 -61,-25 -24,0 -45,9 -61,25 -17,17 -25,44 -25,81zm162 179c33,4 58,14 73,28 15,15 23,34 23,58 0,33 -14,60 -41,79 -28,20 -71,30 -131,30 -46,0 -84,-9 -112,-28 -29,-19 -43,-40 -43,-64 0,-16 5,-31 16,-47 11,-15 29,-27 53,-36 -13,-7 -24,-14 -32,-22 -7,-7 -11,-17 -11,-28 0,-13 4,-25 13,-35 9,-10 20,-18 33,-24 -13,-11 -25,-25 -35,-40 -10,-16 -15,-32 -15,-50 0,-33 12,-62 35,-87 23,-26 56,-38 98,-38 18,0 35,2 51,6 17,5 31,12 42,23 15,-11 29,-19 41,-24 12,-6 23,-9 31,-9 11,0 19,4 23,12 5,8 7,15 7,21 0,9 -2,16 -5,22 -3,5 -9,8 -18,8 -7,0 -12,-2 -17,-5 -4,-3 -7,-8 -9,-15 -3,-7 -8,-9 -15,-8 -8,1 -16,5 -25,12 9,8 15,21 20,36 4,16 6,31 6,46 0,27 -10,53 -31,78 -21,25 -55,38 -101,38 -13,0 -25,-2 -37,-5 -11,-3 -19,-7 -26,-12 -9,5 -15,10 -20,17 -4,7 -6,12 -6,17 0,9 2,15 6,20 5,4 11,6 20,6 29,5 55,9 78,12 23,3 43,6 61,8zm-135 26c-20,9 -34,20 -42,32 -7,12 -11,27 -11,45 0,17 10,34 29,49 20,16 50,24 90,24 37,0 67,-6 89,-18 22,-13 33,-31 33,-55 0,-16 -3,-28 -8,-37 -6,-8 -14,-14 -25,-16 -22,-5 -46,-9 -73,-14 -26,-2 -54,-5 -82,-10z"/>
    <path id="10" class="fil2" d="M8599 5885c0,-9 4,-18 12,-27 8,-9 19,-13 35,-13 17,0 31,7 41,21 10,15 15,30 15,45 0,31 -9,60 -27,86 -17,27 -43,46 -76,60l-13 -17c22,-13 38,-27 49,-41 11,-15 17,-29 17,-45 0,-11 -9,-21 -27,-30 -17,-8 -26,-22 -26,-39z"/>
    <path id="11" class="fil2" d="M6116 6543c0,26 8,49 23,68 15,19 36,28 63,28 29,0 50,-8 64,-25 15,-16 22,-40 22,-71 0,-38 -9,-65 -25,-81 -17,-17 -37,-25 -61,-25 -24,0 -45,8 -61,25 -17,16 -25,43 -25,81zm162 179c33,4 57,13 73,28 15,14 23,33 23,58 0,33 -14,59 -41,79 -28,20 -71,30 -131,30 -46,0 -84,-9 -112,-28 -29,-19 -44,-41 -44,-65 0,-15 6,-31 17,-46 11,-15 29,-28 53,-36 -13,-7 -24,-14 -32,-22 -7,-8 -11,-17 -11,-28 0,-13 4,-25 13,-35 9,-10 20,-18 33,-25 -13,-11 -25,-24 -35,-39 -10,-16 -15,-32 -15,-50 0,-33 12,-62 35,-88 23,-25 56,-38 98,-38 17,0 35,3 51,7 17,4 31,12 42,23 15,-11 29,-19 41,-25 12,-5 22,-8 31,-8 11,0 19,4 23,12 5,7 7,14 7,21 0,9 -2,16 -5,21 -3,6 -9,9 -18,9 -7,0 -12,-2 -17,-5 -4,-4 -7,-9 -10,-15 -2,-7 -7,-10 -14,-9 -8,2 -16,6 -25,12 9,9 15,21 20,37 4,15 6,31 6,46 0,26 -10,52 -31,78 -21,25 -55,38 -101,38 -13,0 -25,-2 -37,-5 -11,-4 -19,-7 -26,-12 -9,5 -15,10 -20,17 -4,6 -6,12 -6,16 0,9 2,16 6,20 5,5 11,7 20,7 29,4 55,8 78,11 23,4 43,6 61,9zm-135 26c-20,9 -34,20 -42,32 -8,12 -11,27 -11,44 0,18 10,35 29,50 20,16 50,23 90,23 37,0 67,-6 89,-18 22,-12 33,-30 33,-55 0,-15 -3,-27 -8,-36 -6,-9 -14,-14 -25,-17 -22,-4 -46,-8 -73,-13 -26,-2 -54,-5 -82,-10z"/>
    <path id="12" class="fil2" d="M6534 6791l0 -20 17 0c11,0 19,-2 23,-6 4,-5 7,-11 7,-20l0 -285c0,-6 -1,-11 -4,-15 -2,-3 -6,-5 -13,-5l-26 0 0 -19 23 0c11,0 21,-1 31,-4 10,-2 20,-6 29,-13l6 0 0 76c20,-22 40,-38 60,-49 20,-12 41,-17 63,-17 37,0 64,10 82,30 18,20 26,49 26,89l0 212c0,9 3,15 9,20 5,4 12,6 21,6l17 0 0 20 -139 0 0 -20 16 0c11,0 19,-2 23,-6 5,-5 7,-11 7,-20l0 -222c0,-26 -6,-47 -17,-61 -11,-15 -27,-22 -49,-22 -20,0 -40,7 -61,20 -21,13 -40,32 -58,56l0 229c0,9 3,15 9,20 5,4 12,6 21,6l17 0 0 20 -140 0z"/>
    <path id="13" class="fil2" d="M7205 6472c0,-9 -3,-16 -7,-21 -4,-6 -12,-9 -23,-9l-69 -2 0 -19 33 -1c19,1 38,-1 56,-4 18,-3 34,-9 50,-18l6 0 0 347c0,9 3,15 9,20 5,4 12,6 21,6l70 0 0 20 -245 0 0 -20 69 0c11,0 19,-2 23,-6 4,-5 7,-11 7,-20l0 -273zm26 -253c11,0 21,4 30,12 9,8 13,17 13,28 0,11 -4,21 -13,30 -9,9 -19,13 -30,13 -11,0 -21,-4 -30,-13 -9,-9 -13,-19 -13,-30 0,-11 4,-20 13,-28 9,-8 19,-12 30,-12z"/>
    <path id="14" class="fil2" d="M7550 6791l0 -20 17 0c11,0 19,-2 23,-6 5,-5 7,-11 7,-20l0 -285c0,-6 -1,-11 -4,-15 -2,-3 -6,-5 -13,-5l-26 0 0 -19 23 0c11,0 21,-1 31,-4 10,-2 20,-6 29,-13l6 0 0 76c20,-22 40,-38 60,-49 20,-12 41,-17 63,-17 37,0 64,10 82,30 18,20 26,49 26,89l0 212c0,9 3,15 9,20 5,4 13,6 21,6l17 0 0 20 -139 0 0 -20 16 0c11,0 19,-2 23,-6 5,-5 7,-11 7,-20l0 -222c0,-26 -6,-47 -17,-61 -11,-15 -27,-22 -49,-22 -20,0 -40,7 -61,20 -21,13 -40,32 -58,56l0 229c0,9 3,15 9,20 5,4 12,6 21,6l17 0 0 20 -140 0z"/>
    <path id="15" class="fil2" d="M8148 6543c0,26 8,49 23,68 15,19 37,28 63,28 29,0 50,-8 64,-25 15,-16 22,-40 22,-71 0,-38 -8,-65 -25,-81 -17,-17 -37,-25 -61,-25 -24,0 -45,8 -61,25 -17,16 -25,43 -25,81zm162 179c33,4 58,13 73,28 15,14 23,33 23,58 0,33 -14,59 -41,79 -28,20 -71,30 -131,30 -46,0 -84,-9 -112,-28 -29,-19 -43,-41 -43,-65 0,-15 5,-31 16,-46 11,-15 29,-28 53,-36 -13,-7 -24,-14 -32,-22 -7,-8 -11,-17 -11,-28 0,-13 4,-25 13,-35 9,-10 20,-18 33,-25 -13,-11 -25,-24 -35,-39 -10,-16 -15,-32 -15,-50 0,-33 12,-62 35,-88 23,-25 56,-38 98,-38 18,0 35,3 51,7 17,4 31,12 42,23 15,-11 29,-19 41,-25 12,-5 23,-8 31,-8 11,0 19,4 23,12 5,7 7,14 7,21 0,9 -2,16 -5,21 -3,6 -9,9 -18,9 -7,0 -12,-2 -17,-5 -4,-4 -7,-9 -9,-15 -3,-7 -8,-10 -15,-9 -8,2 -16,6 -25,12 9,9 15,21 20,37 4,15 6,31 6,46 0,26 -10,52 -31,78 -21,25 -55,38 -101,38 -13,0 -25,-2 -37,-5 -11,-4 -19,-7 -26,-12 -9,5 -15,10 -20,17 -4,6 -6,12 -6,16 0,9 2,16 6,20 5,5 11,7 20,7 29,4 55,8 78,11 23,4 43,6 61,9zm-135 26c-20,9 -34,20 -42,32 -7,12 -11,27 -11,44 0,18 10,35 29,50 20,16 50,23 90,23 37,0 67,-6 89,-18 22,-12 33,-30 33,-55 0,-15 -3,-27 -8,-36 -6,-9 -14,-14 -25,-17 -22,-4 -46,-8 -73,-13 -26,-2 -54,-5 -82,-10z"/>
    <path id="16" class="fil2" d="M8599 6731c0,-8 4,-17 12,-26 8,-9 19,-13 35,-13 17,0 31,7 41,21 10,15 15,29 15,45 0,31 -9,59 -27,86 -17,26 -43,46 -76,59l-13 -16c22,-13 38,-27 49,-41 11,-15 17,-30 17,-45 0,-11 -9,-21 -27,-30 -17,-9 -26,-22 -26,-40z"/>
    <rect class="fil0 str3" x="5274" y="4199" width="3747" height="3069"/>
   </g>
   <line class="fil0 str0" x1="19784" y1="5018" x2="20218" y2= "5447" />
   <path class="fil3" d="M20242 5422l109 -46c2,-1 4,-2 6,-2 2,-1 3,-1 4,-1 3,0 4,1 6,2 1,2 3,6 5,13l10 31c1,4 2,7 2,9 1,1 1,2 1,3 0,2 -1,5 -3,6 -3,2 -6,3 -10,4l-116 26 78 90c3,3 4,5 5,7 1,2 1,3 1,5 0,1 -1,3 -3,5 -1,2 -4,5 -7,7l-27 19c-1,1 -2,2 -4,3 -4,2 -7,4 -9,4 -2,0 -4,-1 -6,-2 -1,-2 -3,-4 -5,-7l-61 -103 -62 103c-1,2 -3,5 -5,6 -2,2 -4,3 -6,3 -1,0 -3,-1 -5,-2 -2,-1 -4,-3 -7,-5l-27 -19c-3,-3 -6,-5 -8,-7 -2,-2 -3,-4 -3,-5 0,-2 1,-4 2,-6 1,-2 2,-4 4,-6l78 -90 -115 -26c-4,-1 -7,-2 -10,-4 -2,-1 -4,-3 -4,-6 0,0 1,-2 1,-4 0,-3 1,-5 2,-8l11 -32c2,-5 4,-9 5,-11 2,-2 4,-3 6,-3 2,0 4,0 6,1 1,0 3,0 4,1l110 47 -12 -118 0 -5c0,-5 2,-8 4,-10 2,-1 7,-2 14,-2l33 0c8,0 12,1 15,2 2,2 3,5 3,10l0 5 -10 118z"/>
   <line class="fil0 str0" x1="19775" y1="6172" x2="20209" y2= "6600" />
   <path class="fil4" d="M20234 6576l109 -47c1,0 3,-1 5,-1 2,-1 4,-1 5,-1 2,0 4,1 5,2 2,2 3,6 6,12l10 32c1,4 2,7 2,8 0,2 0,3 0,3 0,3 -1,5 -3,7 -2,2 -5,3 -9,4l-116 26 78 90c2,3 4,5 4,7 1,1 1,3 1,4 0,2 0,4 -2,6 -2,2 -4,4 -7,6l-28 20c-1,0 -2,1 -3,2 -5,3 -8,4 -9,4 -2,0 -5,0 -6,-2 -2,-1 -4,-3 -5,-7l-61 -102 -62 102c-2,3 -3,5 -5,7 -2,1 -4,2 -6,2 -1,0 -3,0 -5,-1 -2,-1 -5,-3 -8,-5l-26 -20c-4,-2 -6,-4 -8,-7 -2,-2 -3,-3 -3,-5 0,-2 0,-4 1,-5 1,-2 3,-4 5,-6l78 -90 -115 -26c-5,-1 -8,-2 -10,-4 -3,-2 -4,-4 -4,-6 0,-1 0,-2 1,-5 0,-2 1,-5 2,-7l11 -32c2,-6 3,-9 5,-11 1,-2 3,-3 5,-3 3,0 5,0 6,0 1,0 3,1 5,1l109 48 -11 -119 0 -5c0,-4 1,-8 3,-9 3,-2 8,-3 15,-3l33 0c7,0 12,1 14,3 2,1 4,5 4,9l0 5 -10 119z"/>
   <path class="fil2" d="M20931 5239l0 46 67 0 0 -46 -67 0zm0 54l0 46 67 0 0 -46 -67 0zm-58 -106l182 0c9,-14 15,-26 21,-37 5,-11 9,-21 13,-32l28 20c-7,3 -15,9 -25,19 -11,10 -20,20 -28,30l80 0 21 -21 29 29 -275 0c-12,0 -23,2 -33,5l-13 -13zm192 204c1,-20 1,-48 1,-82 0,-35 0,-61 -1,-80l29 13 -9 9 0 89c0,15 0,29 1,42l-21 9zm62 -184l33 18 -14 11 0 162c1,23 -10,38 -33,45 -1,-14 -16,-24 -44,-31l0 -5c25,2 42,2 49,2 8,-1 11,-6 10,-18l0 -126c0,-23 0,-43 -1,-58zm-167 -86c27,16 42,28 43,36 2,8 1,14 -4,20 -4,5 -8,7 -10,7 -2,0 -5,-4 -8,-14 -4,-13 -12,-28 -25,-46l4 -3zm-29 314l-20 8c1,-26 1,-44 1,-53l0 -122c0,-20 0,-37 -1,-50l20 12 65 0 10 -14 21 17 -11 9 0 168c0,15 -8,26 -24,33 -2,-12 -12,-20 -31,-24l0 -5c12,1 21,1 27,1 7,-1 10,-6 10,-17l0 -50 -67 0 0 87z"/>
   <path id="1" class="fil2" d="M21485 5301c5,28 14,52 26,74 12,-21 20,-46 26,-74l-52 0zm-111 -152l65 0 9 -14 20 17 -10 7c-6,18 -14,35 -22,52 16,16 24,26 25,32 1,5 0,11 -4,15 -3,5 -5,7 -7,7 -2,0 -4,-3 -7,-11 -4,-11 -10,-22 -17,-32 -18,23 -38,42 -62,57l-4 -2c23,-21 42,-43 56,-66 -6,-12 -16,-24 -28,-37l3 -3c9,7 20,16 34,28 7,-16 12,-30 15,-42l-20 0c-12,0 -23,2 -33,5l-13 -13zm105 1l65 0 9 -12 21 21c-6,1 -11,6 -15,14 -5,8 -12,21 -22,39 21,15 32,26 32,34 0,8 -1,14 -3,17 -2,2 -4,4 -6,4 -2,0 -5,-4 -8,-11 -6,-11 -14,-21 -24,-33 -18,22 -40,40 -66,54l-2 -3c24,-20 43,-40 57,-60 -20,-18 -33,-29 -39,-33l3 -4c13,7 27,15 43,27 8,-14 15,-29 21,-45l-20 0c-12,0 -23,1 -33,4l-13 -13zm-106 139l57 0 10 -12 20 19 -12 7c-5,20 -12,39 -21,59 17,16 25,28 24,35 -1,8 -2,13 -4,15 -2,2 -3,3 -4,3 -3,0 -5,-3 -7,-9 -4,-10 -10,-21 -18,-33 -21,27 -47,49 -79,65l-3 -4c31,-22 55,-47 72,-75 -10,-14 -19,-27 -30,-40l3 -3c15,13 27,24 35,32 8,-18 13,-34 16,-50l-13 0c-12,0 -23,1 -34,4l-12 -13zm87 3l77 0 9 -14 20 18 -11 9c-11,36 -23,64 -34,84 18,18 40,31 67,38l0 4c-12,1 -19,6 -22,15 -21,-13 -40,-29 -56,-47 -23,21 -55,37 -94,49l-1 -5c39,-16 67,-36 85,-57 -10,-23 -18,-52 -22,-85l-9 2 -9 -11zm-163 22c20,-2 45,-5 77,-10l2 6c-30,8 -51,13 -61,17 -11,4 -20,8 -26,14l-17 -27c7,-2 15,-7 24,-17 9,-10 23,-29 43,-58 -19,2 -32,5 -39,7 -8,3 -15,6 -21,11l-13 -24c9,-1 19,-13 32,-36 12,-23 22,-47 30,-72l26 18 -12 7c-21,34 -38,62 -52,83l52 -1c9,-16 16,-30 19,-42l24 18 -12 7c-24,33 -49,67 -76,99zm-13 99l-16 -26c19,-4 36,-9 50,-14 14,-4 35,-11 62,-21l1 5c-29,14 -58,28 -88,44l-9 12z"/>
   <path id="2" class="fil2" d="M21869 5192c0,-38 0,-63 -1,-75l34 18 -14 10 0 47 51 0 17 -16 24 25 -92 0 0 63 37 0 17 -17 24 26 -119 0c-12,0 -23,1 -34,4l-12 -13 68 0 0 -63 -35 0c-12,0 -23,1 -33,4l-13 -13 81 0zm-57 253c1,-21 1,-45 1,-72 0,-27 0,-50 -1,-70l22 13 96 0 12 -13 20 20 -13 8 0 58c0,20 1,35 2,43l-20 9 0 -29 -99 0 0 23 -20 10zm20 -121l0 80 99 0 0 -80 -99 0zm-135 0l97 -15 0 5c-11,3 -29,8 -53,15 -25,7 -42,15 -54,23l-15 -25c7,-3 14,-7 21,-14 6,-7 22,-27 46,-60 -11,2 -22,4 -32,6 -10,2 -20,6 -29,12l-13 -25c9,0 20,-14 33,-40 12,-27 22,-54 30,-82l29 15 -12 7c-20,38 -39,71 -58,100l56 -2c12,-17 20,-34 27,-49l25 19 -12 7c-27,34 -55,69 -86,103zm-18 101l-14 -27c13,-1 29,-4 47,-9 18,-4 46,-12 85,-23l1 6c-69,27 -109,45 -119,53z"/>
   <path id="3" class="fil2" d="M22342 5153c0,27 1,46 2,55l-21 8 0 -14 -199 0c1,62 -3,109 -13,142 -9,34 -28,67 -56,99l-4 -3c14,-21 25,-43 33,-65 8,-22 13,-47 17,-76 3,-29 4,-87 2,-174l21 14 197 0 10 -14 24 18 -13 10zm-218 -5l0 46 199 0 0 -46 -199 0zm96 152l-61 7 -11 6 -14 -11 86 -10 0 -39c-29,3 -56,6 -81,8l-1 -5c40,-6 74,-12 101,-19 28,-7 49,-15 63,-23l25 25c-9,0 -22,1 -38,3 -16,3 -33,5 -50,8l0 39 50 -5 14 -17 30 21 -94 10 0 40 82 -10 17 -21 31 24 -130 16 0 43c-1,16 7,23 23,22l69 0c10,1 17,-3 19,-11 2,-9 4,-24 4,-45l7 0c1,20 2,33 4,40 3,7 8,12 15,15 -7,13 -20,19 -38,18l-89 0c-23,1 -33,-9 -33,-31l0 -49 -75 10 -10 6 -15 -11 100 -13 0 -41z"/>
   <path id="4" class="fil2" d="M22699 5286c35,36 55,58 59,66 4,9 5,15 5,20 0,6 -1,12 -5,18 -4,6 -6,9 -7,9 -5,0 -9,-8 -13,-24 -6,-22 -21,-50 -43,-86l4 -3zm-113 -133l124 0 17 -16 25 25 -143 0 -12 3 -11 -12zm19 254c25,5 40,6 45,5 5,0 7,-4 7,-11l0 -155 -69 0 -12 2 -11 -11 166 0 18 -18 27 27 -98 0 0 166c-1,15 -11,26 -31,33 0,-11 -14,-22 -42,-31l0 -7zm2 -123l30 18 -14 7c-23,42 -48,75 -74,101l-4 -5c26,-34 47,-75 62,-121zm-82 -26c0,101 1,161 2,180l-23 8c1,-40 2,-95 2,-165 -14,32 -33,63 -55,91l-4 -6c26,-42 46,-92 59,-150l-35 0 -13 3 -11 -11 59 0c0,-36 -1,-66 -2,-93l34 17 -13 10 0 66 19 0 15 -16 24 24 -58 0 0 35c18,10 30,18 36,24 6,7 9,12 9,17 0,3 -1,7 -4,12 -3,5 -5,8 -7,8 -3,0 -6,-6 -10,-17 -6,-15 -14,-27 -24,-37z"/>
   <path id="5" class="fil2" d="M22997 5192c0,-34 -1,-59 -2,-75l34 15 -13 10 0 50 83 0 20 -19 28 28 -131 0 0 69 61 0 19 -20 28 28 -182 0c-12,0 -23,1 -33,4l-13 -12 101 0 0 -69 -84 0c-12,0 -24,1 -34,4l-12 -13 130 0zm-105 138l5 1c-1,31 -3,51 -7,60 -3,10 -9,15 -17,16 -8,2 -14,1 -17,-1 -3,-2 -5,-4 -5,-6 0,-4 4,-9 11,-16 11,-9 20,-27 30,-54zm40 63c0,-29 0,-53 -1,-70l32 17 -11 9 0 42c-1,13 7,20 24,19l77 0c10,1 16,-4 19,-15 2,-11 4,-26 5,-46l7 0c0,14 0,26 2,37 1,10 7,17 16,21 -8,14 -21,20 -41,19l-96 0c-24,1 -34,-10 -33,-33zm38 -98l3 -4c21,9 36,18 46,25 11,8 15,17 12,26 -2,9 -5,14 -7,16 -2,2 -4,3 -5,3 -3,0 -7,-6 -11,-16 -6,-12 -18,-29 -38,-50zm126 39l3 -3c22,11 37,21 47,29 10,8 14,16 12,25 -2,9 -5,15 -9,19 -4,4 -9,-1 -13,-14 -5,-12 -18,-31 -40,-56z"/>
   <path class="fil2" d="M21036 6214c-29,49 -60,87 -93,113l157 0 16 -15c-32,-26 -58,-59 -80,-98zm-13 -30l31 17 -12 8c13,21 33,44 61,68 29,25 64,40 107,47l0 6c-15,3 -24,10 -28,20 -21,-8 -43,-20 -66,-38l25 24 -92 0 0 71 62 0 17 -17 26 26 -105 0 0 83 101 0 21 -22 30 31 -270 0c-13,0 -24,2 -35,4l-13 -13 146 0 0 -83 -54 0c-13,0 -25,2 -35,4l-13 -13 102 0 0 -71 -47 0c-13,0 -24,1 -34,4l-10 -10c-21,15 -44,28 -68,38l-2 -5c38,-22 70,-49 95,-80 25,-31 45,-64 60,-99z"/>
   <path id="1" class="fil2" d="M21437 6345l0 68 62 0 0 -68 -62 0zm-20 114c1,-23 1,-45 1,-68 0,-22 0,-44 -1,-65l20 10 59 0 14 -15 21 21 -13 9c0,42 0,72 1,90l-20 9 0 -28 -62 0 0 28 -20 9zm-24 -177l119 0 16 -16 23 24 -117 0c-7,0 -17,2 -27,5l-14 -13zm120 206c28,3 46,4 52,3 6,0 10,-4 10,-12l0 -256 -126 0c-8,0 -17,2 -28,4l-13 -13 164 0 14 -14 22 22 -15 10 0 257c0,9 -2,16 -6,22 -4,6 -12,11 -23,15 -6,-15 -23,-25 -51,-31l0 -7zm-196 -284l3 -4c18,7 31,14 39,21 8,7 12,15 10,22 -2,7 -6,12 -11,15 -6,2 -10,-4 -14,-17 -5,-14 -14,-26 -27,-37zm40 254l48 -42 3 4c-14,18 -25,33 -34,46 -10,12 -18,24 -24,35l-18 -22c4,-6 6,-13 6,-21l0 -138 -7 0c-13,0 -25,1 -35,4l-14 -13 53 0 15 -15 19 19 -12 9 0 134z"/>
   <path id="2" class="fil2" d="M21913 6263c0,-40 -1,-66 -2,-79l35 19 -14 10 0 50 54 0 17 -18 25 26 -96 0 0 66 39 0 18 -17 25 26 -125 0c-12,0 -24,2 -35,5l-13 -14 72 0 0 -66 -37 0c-12,0 -24,2 -35,5l-13 -13 85 0zm-60 263c1,-22 1,-47 1,-75 0,-28 0,-52 -1,-73l23 13 100 0 13 -13 20 21 -13 8 0 60c0,22 1,37 2,45l-21 9 0 -29 -104 0 0 23 -20 11zm20 -126l0 83 104 0 0 -83 -104 0zm-140 0l101 -16 0 6c-12,3 -30,8 -56,15 -25,7 -43,15 -55,24l-16 -26c8,-3 15,-8 22,-15 7,-7 23,-27 48,-62 -12,1 -23,4 -34,6 -10,2 -21,7 -30,12l-13 -26c9,0 21,-14 34,-41 13,-28 24,-57 31,-86l31 16 -13 8c-21,38 -41,73 -60,103l58 -1c12,-19 21,-36 28,-51l26 19 -13 7c-27,36 -57,72 -89,108zm-19 105l-14 -28c13,-2 29,-5 48,-9 19,-4 49,-12 89,-24l1 6c-72,28 -113,46 -124,55z"/>
   <path id="3" class="fil2" d="M22406 6222c0,28 0,47 1,57l-22 8 0 -14 -207 0c1,64 -3,114 -13,148 -10,35 -29,69 -58,103l-5 -3c15,-22 26,-45 34,-68 9,-23 15,-49 18,-79 3,-31 4,-91 2,-182l22 15 206 0 10 -15 25 19 -13 11zm-228 -6l0 48 207 0 0 -48 -207 0zm101 159l-64 7 -12 6 -15 -11 91 -11 0 -40c-31,3 -60,6 -85,8l-1 -6c42,-5 77,-12 106,-19 28,-8 50,-16 65,-24l26 26c-10,0 -23,1 -40,4 -16,2 -34,5 -52,8l0 40 52 -5 15 -18 31 22 -98 10 0 43 86 -11 18 -22 32 25 -136 16 0 46c-1,16 7,24 25,23l71 0c11,1 18,-3 20,-12 2,-10 4,-25 4,-46l7 0c1,20 3,34 5,41 2,8 8,13 15,16 -7,13 -21,20 -39,19l-94 0c-23,1 -34,-10 -33,-33l0 -51 -79 11 -10 5 -16 -11 105 -13 0 -43z"/>
   <path id="4" class="fil2" d="M22778 6360c37,38 57,60 61,69 4,9 6,16 6,21 0,7 -2,13 -6,19 -4,6 -6,8 -7,8 -5,0 -9,-8 -13,-24 -7,-23 -22,-53 -46,-90l5 -3zm-118 -138l130 0 17 -18 26 27 -149 0 -13 3 -11 -12zm20 264c26,5 42,7 47,6 5,-1 7,-5 7,-12l0 -162 -72 0 -13 3 -11 -12 173 0 19 -19 28 28 -102 0 0 174c-1,16 -12,27 -32,34 0,-12 -15,-23 -44,-32l0 -8zm1 -128l33 19 -15 7c-24,44 -50,79 -77,105l-5 -4c27,-36 49,-79 64,-127zm-84 -27c0,106 0,168 1,187l-23 9c1,-42 1,-99 1,-172 -14,34 -33,65 -57,95l-4 -6c27,-44 48,-96 61,-157l-36 0 -13 3 -12 -11 61 0c0,-37 0,-69 -1,-97l35 18 -13 10 0 69 19 0 16 -16 25 24 -60 0 0 37c18,10 31,18 37,25 6,7 9,12 9,17 0,3 -1,7 -4,13 -3,5 -5,8 -7,8 -3,0 -7,-6 -10,-18 -7,-15 -16,-28 -25,-38z"/>
   <path id="5" class="fil2" d="M23088 6263c0,-36 0,-63 -1,-79l35 16 -13 10 0 53 86 0 20 -21 30 29 -136 0 0 72 63 0 20 -20 29 29 -190 0c-12,0 -24,1 -35,4l-13 -13 105 0 0 -72 -87 0c-13,0 -25,2 -35,5l-13 -13 135 0zm-109 143l6 1c-1,32 -4,53 -8,63 -3,10 -10,15 -18,17 -8,1 -14,1 -17,-2 -4,-2 -6,-4 -6,-6 0,-4 4,-9 12,-16 11,-10 21,-29 31,-57zm42 65c0,-30 0,-54 -1,-72l33 17 -11 10 0 44c-1,14 7,20 24,19l81 0c11,1 17,-4 20,-15 2,-11 4,-27 5,-48l7 0c0,15 1,27 2,38 2,11 7,18 17,22 -8,15 -22,22 -42,21l-101 0c-25,1 -36,-11 -34,-36zm40 -102l3 -4c21,10 37,19 48,27 10,8 15,17 12,26 -2,9 -5,15 -7,17 -3,2 -4,3 -5,3 -4,0 -8,-5 -12,-16 -6,-13 -19,-30 -39,-53zm131 41l3 -3c22,12 39,22 49,30 10,8 14,17 12,26 -2,10 -5,16 -9,20 -5,4 -9,-1 -14,-14 -5,-13 -18,-33 -41,-59z"/>
  </g>
  <polygon class="fil2" points="11415,16994 11278,16994 11278,17411 11217,17411 11217,16994 11081,16994 11081,16939 11415,16939 "/>
  <path id="1" class="fil2" d="M11638 17133c-10,-7 -23,-10 -41,-10 -23,0 -42,11 -57,32 -15,22 -23,50 -23,86l0 170 -59 0 0 -337 59 0 0 69 2 0c17,-50 46,-74 88,-74 14,0 24,1 31,4l0 60z"/>
  <path id="2" class="fil2" d="M11726 16955c0,-10 3,-19 10,-26 8,-7 17,-11 27,-11 11,0 20,4 27,11 8,7 12,16 12,26 0,11 -4,20 -12,27 -7,7 -16,10 -27,10 -11,0 -20,-3 -27,-10 -7,-7 -10,-16 -10,-27zm7 456l0 -337 59 0 0 337 -59 0z"/>
  <path id="3" class="fil2" d="M12211 17258l-236 0c1,36 11,64 29,83 19,20 45,30 79,30 37,0 72,-12 104,-36l0 53c-30,21 -69,31 -118,31 -49,0 -87,-15 -115,-46 -27,-31 -41,-74 -41,-129 0,-51 15,-94 45,-127 30,-34 68,-51 112,-51 44,0 79,15 103,43 25,28 38,68 38,119l0 30zm-60 -48c0,-30 -8,-54 -22,-70 -14,-17 -34,-26 -60,-26 -24,0 -44,9 -61,27 -18,18 -29,41 -33,69l176 0z"/>
  <path id="4" class="fil2" d="M13376 17519c-72,-80 -108,-175 -108,-288 0,-114 36,-211 108,-291l53 0c-72,82 -108,179 -108,290 0,110 36,206 107,289l-52 0z"/>
  <path id="5" class="fil2" d="M16862 17519l-53 0c72,-82 108,-180 108,-292 0,-110 -36,-206 -107,-287l52 0c72,78 108,174 108,287 0,115 -36,212 -108,292z"/>
  <path id="6" class="fil2" d="M12477 17073c23,39 45,77 67,113 20,-56 32,-118 37,-186l-144 0 0 -44 191 0 0 41c-9,88 -27,168 -55,239 28,49 56,97 82,143l-43 27c-21,-40 -42,-80 -63,-119 -31,62 -70,115 -118,161 -7,-13 -17,-27 -28,-43 50,-48 90,-103 119,-166 -27,-49 -54,-97 -82,-143l37 -23zm-235 206c37,-62 65,-135 85,-220l-76 0 0 -42 80 0 0 -124 43 0 0 124 66 0 0 42 -66 0 0 96 23 -21c22,21 42,41 62,62l-31 29c-16,-21 -34,-41 -54,-60l0 329 -43 0 0 -331c-21,72 -44,128 -70,169 -5,-18 -12,-35 -19,-53zm397 -258l111 0 0 -125 45 0 0 125 58 0 0 43 -58 0 0 342c0,51 -25,76 -74,76 -15,0 -37,0 -66,-1 -1,-14 -4,-31 -9,-50 27,3 49,4 66,4 25,0 38,-11 38,-34l0 -337 -111 0 0 -43zm-17 123l37 -19c21,41 40,82 57,123l-39 20c-18,-47 -37,-88 -55,-124z"/>
  <path id="7" class="fil2" d="M13586 17493l-46 0 0 -406 267 0 0 341c0,40 -21,59 -62,59 -17,0 -40,-1 -70,-2 -2,-15 -5,-30 -9,-45 25,2 48,3 69,3 17,1 25,-8 25,-25l0 -77 -174 0 0 152zm-86 -508l196 0c-13,-21 -30,-44 -51,-69l39 -26c25,28 45,53 61,75l-31 20 167 0 -24 -13c21,-27 40,-54 56,-83l46 27c-19,25 -37,48 -56,69l193 0 0 43 -596 0 0 -43zm505 83l47 0 0 341c0,50 -23,75 -70,75 -22,1 -49,0 -81,0 -2,-17 -5,-34 -8,-52 30,4 54,5 73,5 26,0 39,-13 39,-39l0 -330zm-126 29l47 0 0 274 -47 0 0 -274zm-119 32l-174 0 0 65 174 0 0 -65zm-174 171l174 0 0 -65 -174 0 0 65z"/>
  <path id="8" class="fil2" d="M14529 17234l0 -41 204 0 0 41c-14,56 -38,106 -72,148 27,27 61,49 101,66 -11,15 -21,29 -29,42 -40,-20 -75,-45 -103,-74 -31,31 -69,57 -113,79 -9,-12 -19,-24 -29,-36 45,-22 83,-47 113,-77 -30,-41 -51,-91 -61,-148l-11 0zm-304 18c19,-1 54,-4 106,-9 -2,18 -4,31 -5,40 -80,7 -130,12 -152,15l-8 -38c20,-21 47,-62 80,-124 -31,2 -58,4 -80,6l-12 -38c39,-62 73,-132 103,-210l47 17c-34,73 -67,136 -98,189 13,0 33,0 59,-1 11,-21 22,-43 34,-68l44 19c-52,94 -91,161 -118,202zm309 -234l27 -28c28,21 55,42 82,63 20,-26 36,-56 47,-89l-144 0 0 -40 191 0 0 37c-14,44 -34,84 -61,119 25,21 50,42 74,63l-34 34c-21,-22 -44,-43 -68,-65 -27,28 -59,52 -96,74 -8,-13 -17,-25 -28,-37 36,-18 66,-40 91,-65 -26,-22 -53,-44 -81,-66zm-195 274l28 -27c22,18 44,36 66,55 15,-27 27,-56 37,-87l-128 0 0 -41 170 0 0 40c-11,43 -26,82 -46,117 19,18 39,37 58,55l-33 33c-16,-17 -32,-34 -49,-50 -30,41 -67,76 -111,106 -9,-11 -20,-23 -32,-33 45,-29 82,-64 111,-104 -23,-22 -47,-43 -71,-64zm7 -275l27 -26c23,19 45,38 66,57 19,-25 33,-53 42,-84l-136 0 0 -40 180 0 0 39c-12,42 -30,80 -55,113 20,18 38,36 56,53l-33 32c-14,-16 -30,-34 -49,-53 -26,28 -57,53 -93,73 -11,-14 -20,-26 -28,-34 36,-20 66,-42 90,-68 -20,-19 -42,-40 -67,-62zm-193 360c52,-7 112,-16 182,-27 -2,18 -3,30 -4,38 -70,15 -126,26 -167,35l-11 -46zm536 -143l-108 0c10,44 26,82 50,115 27,-34 46,-72 58,-115z"/>
  <path id="9" class="fil2" d="M14819 17253l286 0 0 -39 120 -75 -295 0 0 -45 369 0 0 50 -144 92 0 17 266 0 0 45 -266 0 0 112c0,51 -26,77 -77,77 -21,0 -51,0 -91,-1 -2,-15 -4,-34 -8,-54 33,4 61,7 86,7 27,0 40,-15 40,-44l0 -97 -286 0 0 -45zm23 -269l281 0c-15,-21 -33,-45 -55,-70l41 -28c26,28 47,54 64,78l-29 20 257 0 0 124 -50 0 0 -80 -460 0 0 80 -49 0 0 -124z"/>
  <path id="10" class="fil2" d="M15688 16896l45 0 0 76 96 0 0 -76 45 0 0 76 142 0 0 314 59 0 0 45 -587 0 0 -45 59 0 0 -314 141 0 0 -76zm170 457c71,31 141,63 211,95l-24 46c-76,-38 -146,-71 -211,-99l24 -42zm-159 -2l25 41c-63,32 -132,66 -207,101 -9,-14 -18,-28 -29,-44 81,-35 151,-68 211,-98zm175 -65l97 0 0 -113 -97 0 0 113zm-282 0l96 0 0 -113 -96 0 0 113zm141 0l96 0 0 -113 -96 0 0 113zm0 -158l96 0 0 -111 -96 0 0 111zm238 -111l-97 0 0 111 97 0 0 -111zm-379 111l96 0 0 -111 -96 0 0 111z"/>
  <path id="11" class="fil2" d="M16369 17073c23,39 45,77 67,113 20,-56 32,-118 37,-186l-143 0 0 -44 190 0 0 41c-8,88 -27,168 -55,239 29,49 56,97 82,143l-43 27c-20,-40 -42,-80 -63,-119 -31,62 -70,115 -118,161 -7,-13 -16,-27 -28,-43 50,-48 90,-103 120,-166 -27,-49 -55,-97 -82,-143l36 -23zm-235 206c37,-62 65,-135 85,-220l-76 0 0 -42 80 0 0 -124 44 0 0 124 66 0 0 42 -66 0 0 96 22 -21c22,21 42,41 62,62l-31 29c-16,-21 -34,-41 -53,-60l0 329 -44 0 0 -331c-20,72 -44,128 -70,169 -5,-18 -11,-35 -19,-53zm397 -258l111 0 0 -125 45 0 0 125 58 0 0 43 -58 0 0 342c0,51 -24,76 -74,76 -15,0 -36,0 -65,-1 -2,-14 -5,-31 -9,-50 26,3 48,4 65,4 25,0 38,-11 38,-34l0 -337 -111 0 0 -43zm-17 123l37 -19c21,41 40,82 58,123l-40 20c-18,-47 -37,-88 -55,-124z"/>
 </g>
</svg>
