<?xml version="1.0" encoding="UTF-8"?>
<!DOCTYPE svg PUBLIC "-//W3C//DTD SVG 1.1//EN" "http://www.w3.org/Graphics/SVG/1.1/DTD/svg11.dtd">
<!-- Creator: CorelDRAW X8 -->
<svg xmlns="http://www.w3.org/2000/svg" xml:space="preserve" width="297mm" height="210mm" version="1.1" style="shape-rendering:geometricPrecision; text-rendering:geometricPrecision; image-rendering:optimizeQuality; fill-rule:evenodd; clip-rule:evenodd"
viewBox="0 0 29700 21000"
 xmlns:xlink="http://www.w3.org/1999/xlink">
 <defs>
  <style type="text/css">
   <![CDATA[
    .fil4 {fill:#C9CACA}
    .fil5 {fill:#D8C0CB}
    .fil0 {fill:#EF8762}
    .fil2 {fill:#A0D9F6}
    .fil3 {fill:#A6D4AE}
    .fil1 {fill:#332C2B;fill-rule:nonzero}
   ]]>
  </style>
 </defs>
 <g id="图层_x0020_1">
  <metadata id="CorelCorpID_0Corel-Layer"/>
  <g id="_2366286721664">
   <circle class="fil0" cx="11389" cy="11311" r="2105"/>
   <path class="fil1" d="M10267 11468c28,0 68,-2 119,-6l0 48c-48,-6 -157,-9 -326,-9 -169,0 -275,3 -317,8l0 -48c67,5 106,7 116,7l0 -241c0,-37 -2,-66 -5,-86 35,3 86,4 152,4 6,-20 11,-39 15,-56 -111,0 -189,3 -234,7l0 -46c47,5 127,7 240,7 7,-32 10,-58 8,-78 25,6 42,10 52,10 10,0 15,2 15,5 0,3 -2,6 -6,8 -4,2 -7,7 -11,14 -3,7 -7,21 -13,41 131,0 217,-2 258,-7l0 46c-42,-4 -131,-7 -266,-7 -3,10 -8,29 -14,56 105,0 179,-1 221,-4 -2,26 -4,54 -4,86l0 241zm-45 -239l0 -50 -320 0 0 50 320 0zm-320 30l0 50 320 0 0 -50 -320 0zm320 129l0 -50 -320 0 0 50 320 0zm-320 80l320 0 0 -50 -320 0 0 50zm58 33c12,15 23,27 34,35 2,2 4,5 4,9 0,3 -3,5 -10,5 -12,1 -24,6 -36,13 -44,29 -99,57 -167,86 -9,-21 -21,-35 -34,-42 42,-11 82,-26 123,-47 40,-20 69,-40 86,-59zm395 100l-26 39c-53,-32 -127,-65 -221,-99l18 -35c93,33 170,64 229,95z"/>
   <path id="1" class="fil1" d="M10858 11065c127,0 212,-2 256,-7 -4,13 -6,33 -6,63 0,29 2,53 5,72l-50 0 0 -94 -474 0 0 93 -48 0c3,-22 5,-46 5,-73 0,-26 -2,-46 -5,-61 39,4 129,6 273,7 -12,-22 -30,-44 -56,-66l41 -26c22,25 41,55 59,92zm19 323c123,0 209,-3 259,-7l0 50c-60,-4 -152,-7 -276,-7 -24,47 -60,89 -108,124 -49,36 -114,69 -194,100 -10,-23 -24,-39 -41,-48 62,-11 119,-32 172,-63 52,-31 93,-69 123,-113 -141,0 -238,3 -292,7l0 -50c69,5 174,7 313,7 12,-25 22,-58 29,-97 8,-39 11,-72 11,-98 0,-26 -1,-47 -4,-63 23,3 42,5 56,5 6,0 9,1 9,5 0,3 -2,7 -7,11 -4,4 -7,10 -7,16 -1,6 -2,17 -3,34 -1,47 -14,110 -40,187zm-50 -149l-23 35c-33,-28 -77,-55 -129,-80l22 -32c49,26 92,52 130,77zm-74 88l-23 34c-45,-32 -92,-58 -141,-79l20 -32c51,24 99,50 144,77zm368 277l-33 32c-64,-58 -135,-107 -215,-147l23 -33c112,62 187,111 225,148z"/>
   <path id="2" class="fil1" d="M11242 11527l0 -517 107 0c74,0 127,5 162,16 34,11 64,28 89,51 25,24 44,52 57,86 14,33 21,71 21,112 0,49 -11,93 -32,132 -21,40 -49,70 -85,90 -36,20 -87,30 -154,30l-165 0zm49 -49l60 0c63,0 108,-3 136,-9 28,-6 53,-19 74,-37 21,-19 37,-41 48,-68 11,-26 17,-56 17,-88 0,-36 -7,-68 -19,-97 -13,-29 -31,-52 -55,-71 -23,-19 -51,-31 -83,-38 -32,-6 -79,-10 -141,-10l-37 0 0 418z"/>
   <path id="3" class="fil1" d="M11791 11271c0,-50 12,-96 36,-139 24,-42 57,-75 99,-99 42,-24 87,-36 135,-36 50,0 97,12 139,36 43,23 76,56 101,98 24,42 36,88 36,138 0,49 -12,94 -36,136 -24,42 -57,75 -99,99 -42,24 -88,36 -137,36 -49,0 -95,-12 -137,-35 -43,-24 -76,-57 -100,-99 -24,-42 -37,-87 -37,-135zm492 -2c0,-62 -22,-115 -65,-157 -43,-43 -94,-65 -155,-65 -62,0 -114,22 -155,65 -42,43 -63,96 -63,159 0,60 22,112 65,155 42,42 94,64 153,64 62,0 114,-21 156,-63 43,-42 64,-95 64,-158z"/>
   <polygon id="4" class="fil1" points="12453,11527 12526,11010 12534,11010 12745,11434 12954,11010 12962,11010 13036,11527 12985,11527 12934,11157 12751,11527 12738,11527 12553,11154 12503,11527 "/>
   <circle class="fil2" cx="16533" cy="3709" r="2105"/>
   <path class="fil1" d="M15221 3307l92 0c59,0 104,-2 135,-6l0 41c-19,-2 -64,-3 -135,-3l-92 0 0 48c138,0 239,-3 301,-9l-56 104 -42 -16 27 -47 -238 0 0 73c81,-9 138,-17 172,-26l0 42c-34,1 -91,6 -172,17l0 21c0,12 6,20 19,23 12,4 34,6 66,6 31,0 55,-1 70,-5 15,-3 27,-9 35,-17 7,-9 14,-23 18,-41 9,12 22,22 39,29 -10,21 -21,36 -31,45 -10,9 -25,15 -44,18 -20,3 -50,5 -92,5 -41,0 -72,-3 -92,-8 -20,-5 -30,-17 -30,-36l0 -35c-65,7 -111,14 -140,19l-4 -45c33,2 81,-1 144,-7l0 -78 -170 0c0,116 -2,197 -5,243 -3,46 -9,89 -19,127 -10,38 -27,80 -51,126 -17,-14 -35,-22 -54,-24 27,-30 48,-67 64,-114 15,-47 23,-133 23,-259 0,-41 -2,-85 -5,-132 8,1 83,1 224,1l0 -70c0,-33 -2,-55 -7,-67 23,3 40,4 50,4 11,0 17,1 17,4 0,2 -3,6 -9,10 -5,4 -8,12 -8,24l0 15zm-70 540l0 -131c0,-45 -2,-75 -5,-89 17,3 32,4 44,4 12,0 18,2 18,5 0,3 -2,6 -7,10 -6,4 -8,17 -8,41l0 160 86 0 0 -130c0,-42 -1,-72 -4,-89 12,3 29,5 51,5 7,0 10,1 10,5 0,3 -1,5 -4,8 -7,5 -11,19 -11,42l0 159c83,-1 144,-3 183,-7l0 46c-27,-4 -112,-5 -256,-5 -143,0 -228,1 -255,5l0 -46c47,5 100,7 158,7zm278 -195c14,11 26,18 36,22 10,4 15,9 15,13 0,5 -4,9 -13,11 -5,2 -12,10 -24,24 -12,15 -32,43 -63,85 -8,-9 -19,-17 -33,-21 40,-47 67,-92 82,-134zm-297 126l-35 22c-24,-46 -50,-85 -78,-116l33 -24c25,30 52,70 80,118z"/>
   <path id="1" class="fil1" d="M15752 3445c-43,0 -76,3 -101,7l0 -47c25,4 58,7 101,7 0,-72 -3,-123 -9,-151 12,3 31,4 55,4 12,0 18,2 18,5 0,4 -4,8 -11,14 -7,6 -11,15 -11,27l0 101c27,0 53,-3 77,-7l0 47c-26,-4 -52,-7 -77,-7l0 137c26,-14 49,-28 70,-42 1,16 3,31 8,44 -36,16 -62,28 -78,37l0 216c0,18 -2,32 -7,41 -5,9 -15,16 -29,20 -15,4 -38,8 -70,10 0,-11 -2,-21 -5,-28 -3,-7 -8,-15 -17,-24 21,3 38,5 52,5 14,0 23,-3 27,-9 5,-5 7,-15 7,-30l0 -178 -86 49c-2,-20 -11,-36 -28,-47 39,-13 77,-27 114,-44l0 -157zm359 11l-45 18c-22,-64 -52,-122 -90,-176l34 -22c38,59 72,119 101,180zm55 304c-12,25 -28,49 -48,72 -19,23 -56,53 -110,91 -7,-16 -21,-28 -40,-36 57,-25 99,-55 127,-91 27,-36 45,-75 54,-115 8,-41 12,-100 12,-177 0,-103 -2,-166 -6,-189 12,3 31,5 58,5 6,0 10,2 10,5 0,4 -3,8 -10,12 -6,5 -9,39 -10,103 0,66 -1,120 -3,161 -2,41 -5,70 -9,87 -5,16 -9,29 -12,37 48,46 89,92 124,136l-39 28c-21,-37 -54,-80 -98,-129zm-93 -89l-117 123c-23,25 -41,46 -53,63 -11,-15 -24,-27 -37,-37 27,-21 41,-50 41,-86l0 -263c0,-41 -2,-71 -6,-89 16,4 34,6 55,6 8,0 12,1 12,4 0,3 -3,6 -7,9 -9,7 -14,16 -14,28l0 316c39,-37 73,-74 102,-111 4,13 12,25 24,37z"/>
   <path id="2" class="fil1" d="M16385 3801l0 -517 107 0c74,0 128,5 162,16 34,11 64,28 89,51 25,24 44,52 58,86 13,33 20,71 20,112 0,49 -11,93 -32,132 -20,40 -49,70 -85,90 -35,20 -87,30 -154,30l-165 0zm50 -49l59 0c63,0 108,-3 136,-9 28,-6 53,-19 74,-37 21,-19 37,-41 48,-67 11,-27 17,-56 17,-89 0,-36 -6,-68 -19,-97 -13,-28 -31,-52 -55,-71 -23,-19 -51,-31 -83,-38 -32,-6 -79,-10 -141,-10l-36 0 0 418z"/>
   <path id="3" class="fil1" d="M16935 3545c0,-50 12,-96 36,-138 24,-43 57,-76 98,-100 42,-24 87,-36 135,-36 51,0 97,12 140,36 42,24 75,56 100,98 24,43 36,88 36,138 0,49 -12,94 -36,136 -24,42 -57,75 -99,99 -42,24 -88,36 -137,36 -49,0 -95,-11 -137,-35 -42,-24 -76,-57 -100,-99 -24,-41 -36,-87 -36,-135zm491 -2c0,-62 -21,-115 -64,-157 -43,-43 -95,-64 -156,-64 -62,0 -113,21 -155,64 -42,43 -62,96 -62,159 0,60 21,112 64,155 43,43 94,64 153,64 62,0 114,-21 156,-63 43,-42 64,-94 64,-158z"/>
   <polygon id="4" class="fil1" points="17596,3801 17670,3284 17678,3284 17888,3708 18097,3284 18105,3284 18179,3801 18128,3801 18078,3431 17895,3801 17882,3801 17696,3428 17646,3801 "/>
   <path id="5" class="fil1" d="M15978 4390c0,-56 19,-104 58,-144 38,-40 86,-60 141,-60 56,0 103,20 141,60 39,40 58,88 58,144 0,55 -19,103 -57,143 -38,39 -85,59 -142,59 -56,0 -103,-20 -142,-59 -38,-40 -57,-88 -57,-143zm348 1c0,-42 -14,-79 -44,-110 -29,-31 -64,-46 -105,-46 -41,0 -76,15 -105,46 -29,31 -44,68 -44,110 0,43 14,80 43,109 28,30 64,45 106,45 42,0 77,-15 106,-45 29,-30 43,-66 43,-109z"/>
   <polygon id="6" class="fil1" points="16497,4049 16546,4049 16546,4579 16497,4579 "/>
   <path id="7" class="fil1" d="M17066 4049l0 530 -48 0 0 -66c-44,53 -95,79 -154,79 -54,0 -101,-20 -139,-60 -38,-40 -58,-88 -58,-144 0,-55 20,-103 59,-142 39,-40 85,-60 139,-60 63,0 114,27 153,80l0 -217 48 0zm-46 341c0,-44 -14,-81 -43,-111 -29,-30 -65,-45 -108,-45 -43,0 -79,15 -108,46 -29,31 -44,68 -44,109 0,43 15,79 45,111 29,31 65,47 107,47 39,0 75,-15 105,-45 31,-29 46,-67 46,-112z"/>
   <circle class="fil3" cx="21779" cy="11593" r="2105"/>
   <path class="fil1" d="M20485 11087l91 0c60,0 105,-2 136,-6l0 42c-19,-3 -64,-4 -136,-4l-91 0 0 48c138,0 239,-3 301,-8l-56 103 -43 -16 28 -47 -238 0 0 74c81,-10 138,-18 171,-26l0 41c-33,1 -90,6 -171,17l0 22c0,11 6,19 19,23 12,4 34,5 66,5 31,0 54,-1 70,-4 15,-3 27,-9 34,-18 8,-9 14,-22 19,-41 9,12 22,22 39,30 -11,21 -21,36 -31,45 -11,9 -25,15 -45,18 -19,3 -49,4 -91,4 -41,0 -72,-2 -92,-8 -21,-5 -31,-17 -31,-36l0 -35c-64,8 -111,14 -139,19l-4 -45c33,2 81,0 143,-7l0 -78 -170 0c0,116 -1,197 -4,243 -3,47 -9,89 -20,127 -10,38 -26,80 -50,126 -17,-14 -35,-22 -54,-24 27,-29 48,-67 63,-114 16,-46 23,-133 23,-258 0,-41 -1,-86 -4,-133 8,1 82,1 224,1l0 -70c0,-33 -3,-55 -7,-67 23,3 39,4 50,4 11,0 16,1 16,4 0,3 -2,6 -8,10 -5,4 -8,12 -8,24l0 15zm-70 540l0 -131c0,-45 -2,-74 -5,-89 17,3 32,5 44,5 12,0 18,1 18,4 0,3 -3,6 -8,10 -5,4 -7,18 -7,41l0 160 86 0 0 -130c0,-42 -1,-72 -4,-89 11,3 28,5 51,5 7,0 10,2 10,5 0,3 -1,6 -4,8 -7,5 -11,20 -11,43l0 158c83,0 144,-3 182,-6l0 45c-26,-3 -111,-5 -255,-5 -143,0 -229,2 -255,5l0 -45c47,4 100,6 158,6zm278 -195c14,11 26,18 36,23 10,4 15,8 15,13 0,4 -4,8 -13,11 -5,1 -13,9 -24,23 -12,15 -33,43 -63,85 -9,-9 -20,-16 -33,-21 40,-47 67,-92 82,-134zm-297 127l-35 21c-24,-46 -50,-85 -79,-116l33 -24c25,31 52,70 81,119z"/>
   <path id="1" class="fil1" d="M21016 11226c-43,0 -77,2 -102,6l0 -47c25,5 59,7 102,7 0,-72 -3,-122 -9,-151 12,3 30,5 55,5 12,0 17,1 17,5 0,3 -3,8 -11,13 -7,6 -10,15 -10,28l0 100c27,0 52,-2 77,-7l0 47c-26,-4 -52,-6 -77,-6l0 136c26,-14 49,-28 70,-42 1,16 3,31 7,44 -35,16 -61,28 -77,37l0 216c0,19 -3,33 -8,41 -4,9 -14,16 -28,20 -15,5 -38,8 -70,10 0,-11 -2,-20 -5,-27 -3,-7 -9,-15 -17,-25 21,3 38,5 52,5 13,0 22,-3 27,-8 5,-6 7,-16 7,-31l0 -178 -87 49c-2,-20 -11,-35 -27,-47 38,-12 76,-27 114,-44l0 -156zm359 10l-45 18c-22,-64 -52,-122 -90,-176l34 -22c38,59 71,119 101,180zm55 305c-12,25 -28,49 -48,71 -20,23 -57,53 -110,91 -8,-16 -21,-28 -41,-36 58,-25 100,-55 128,-91 27,-36 45,-74 54,-115 8,-41 12,-100 12,-177 0,-103 -2,-166 -6,-189 12,4 31,5 57,5 7,0 10,2 10,6 0,3 -3,7 -9,12 -6,4 -10,38 -10,102 -1,67 -2,121 -3,161 -2,41 -5,70 -10,87 -4,17 -8,29 -11,37 48,46 89,92 123,137l-38 28c-21,-38 -54,-81 -98,-129zm-93 -90l-117 124c-24,25 -41,45 -53,62 -11,-15 -24,-27 -37,-37 27,-21 41,-50 41,-86l0 -262c0,-42 -2,-72 -6,-90 16,4 34,6 55,6 7,0 11,2 11,4 0,3 -2,6 -6,9 -10,7 -15,17 -15,28l0 317c39,-38 73,-75 103,-112 4,13 12,26 24,37z"/>
   <path id="2" class="fil1" d="M21649 11582l0 -518 107 0c73,0 127,6 162,17 34,10 64,27 89,51 25,23 44,51 57,85 14,34 21,71 21,113 0,48 -11,92 -32,132 -21,39 -49,69 -85,89 -36,21 -87,31 -154,31l-165 0zm49 -49l60 0c63,0 108,-3 136,-10 28,-6 53,-18 74,-37 21,-18 37,-41 48,-67 11,-27 17,-56 17,-89 0,-35 -7,-68 -19,-96 -13,-29 -31,-53 -55,-72 -23,-18 -51,-31 -83,-38 -32,-6 -79,-9 -141,-9l-37 0 0 418z"/>
   <path id="3" class="fil1" d="M22198 11325c0,-50 12,-96 36,-138 24,-42 57,-76 99,-100 42,-24 87,-36 135,-36 50,0 97,12 139,36 43,24 76,57 101,99 24,42 36,88 36,137 0,49 -12,95 -36,137 -24,42 -57,75 -99,99 -42,24 -88,36 -137,36 -49,0 -95,-12 -137,-36 -43,-24 -76,-57 -100,-98 -24,-42 -37,-87 -37,-136zm492 -2c0,-62 -22,-114 -65,-157 -43,-43 -94,-64 -155,-64 -62,0 -114,21 -155,64 -42,43 -63,96 -63,159 0,61 22,112 65,155 42,43 93,64 153,64 62,0 114,-21 156,-62 43,-42 64,-95 64,-159z"/>
   <polygon id="4" class="fil1" points="22860,11582 22933,11064 22941,11064 23152,11489 23361,11064 23369,11064 23443,11582 23392,11582 23341,11211 23158,11582 23145,11582 22960,11208 22910,11582 "/>
   <path id="5" class="fil1" d="M21061 11977l50 0 0 68c39,-52 87,-78 143,-78 29,0 55,7 78,23 23,16 39,36 49,61 9,25 14,63 14,112l0 196 -49 0 0 -182c0,-45 -2,-75 -6,-91 -4,-16 -10,-29 -19,-40 -8,-11 -19,-20 -32,-25 -13,-6 -28,-9 -45,-9 -20,0 -38,4 -56,14 -18,9 -33,21 -46,38 -12,16 -21,33 -25,50 -4,18 -6,52 -6,105l0 140 -50 0 0 -382z"/>
   <path id="6" class="fil1" d="M21859 12235l41 22c-41,77 -102,115 -183,115 -57,0 -105,-20 -142,-59 -38,-40 -57,-87 -57,-143 0,-56 19,-104 57,-144 38,-40 84,-59 140,-59 55,0 102,18 140,55 37,37 57,87 58,151l-344 0c1,46 16,84 44,112 27,28 61,42 100,42 65,0 113,-31 146,-92zm0 -104c-7,-37 -24,-65 -51,-86 -27,-21 -58,-31 -93,-31 -72,0 -119,39 -141,117l285 0z"/>
   <polygon id="7" class="fil1" points="21989,11977 22040,11977 22157,12267 22280,11977 22289,11977 22411,12267 22530,11977 22582,11977 22416,12372 22406,12372 22285,12085 22162,12372 22153,12372 "/>
   <path class="fil1" d="M14783 10758l-125 -225 34 -20 19 35c0,-21 2,-36 7,-46 4,-9 11,-16 20,-21 13,-7 28,-10 46,-10l7 43c-13,0 -24,2 -33,8 -8,4 -15,11 -18,20 -4,8 -5,18 -3,28 4,16 10,32 19,48l66 118 -39 22z"/>
   <path id="1" class="fil1" d="M15066 10504l42 -17c7,27 6,51 -4,73 -10,22 -28,41 -54,55 -33,19 -65,23 -95,14 -31,-10 -56,-33 -77,-69 -21,-38 -28,-73 -20,-105 8,-32 27,-56 58,-74 31,-16 61,-20 91,-10 31,10 56,33 77,70 2,3 3,6 6,11l-168 93c15,24 33,39 53,46 20,6 39,3 58,-7 14,-8 24,-18 29,-31 6,-13 7,-29 4,-49zm-159 9l125 -70c-12,-18 -25,-30 -38,-35 -20,-8 -40,-6 -60,4 -17,10 -29,24 -34,43 -5,18 -3,38 7,58z"/>
   <path id="2" class="fil1" d="M15219 10515l-126 -225 34 -19 18 32c3,-34 20,-60 51,-77 13,-8 27,-13 41,-14 14,-1 26,0 37,5 10,5 19,12 27,21 6,7 13,19 23,36l78 139 -39 21 -76 -137c-9,-15 -17,-26 -24,-32 -7,-6 -16,-9 -26,-10 -10,0 -21,2 -31,8 -16,9 -27,22 -33,39 -6,17 -1,40 15,69l69 123 -38 21z"/>
   <path id="3" class="fil1" d="M15631 10285l-16 -28c-2,30 -17,53 -45,68 -17,10 -37,15 -57,13 -21,-1 -40,-9 -58,-22 -19,-13 -34,-31 -47,-54 -13,-22 -20,-45 -23,-67 -3,-23 1,-43 10,-61 10,-18 24,-32 42,-43 14,-7 27,-11 41,-12 14,0 27,3 39,8l-63 -111 38 -21 174 310 -35 20zm-184 -45c16,29 34,47 55,55 20,7 38,6 54,-3 17,-9 27,-24 31,-44 4,-20 -1,-44 -17,-72 -17,-31 -36,-50 -56,-58 -20,-8 -38,-7 -56,3 -17,9 -27,24 -30,44 -4,20 2,45 19,75z"/>
   <path id="4" class="fil1" d="M15864 10060l42 -17c7,26 5,50 -5,73 -9,22 -27,40 -53,55 -33,18 -65,23 -96,13 -30,-9 -56,-32 -76,-69 -21,-38 -28,-73 -20,-104 7,-32 27,-57 58,-74 30,-17 60,-21 91,-11 30,10 56,33 77,71 1,2 3,5 5,10l-167 94c15,24 32,39 52,45 20,6 40,4 58,-7 14,-8 24,-18 30,-31 6,-13 7,-29 4,-48zm-160 8l126 -70c-13,-18 -25,-29 -38,-35 -21,-7 -41,-6 -60,5 -18,10 -29,24 -34,42 -6,19 -4,38 6,58z"/>
   <path id="5" class="fil1" d="M16016 10071l-126 -225 34 -20 19 34c0,-20 2,-35 7,-45 4,-9 11,-16 20,-21 13,-7 28,-10 46,-10l7 43c-13,0 -23,2 -33,8 -8,4 -14,11 -18,20 -4,8 -5,18 -2,28 3,16 9,32 18,48l66 118 -38 22z"/>
   <g>
    <path class="fil1" d="M18382 5567l-444 276 -28 -542 472 266zm2039 3881l-2325 -3752 85 -53 2325 3752 -85 53zm243 -200l28 542 -473 -266 445 -276z"/>
   </g>
   <path class="fil1" d="M19433 7278l27 -19c-31,1 -57,-12 -75,-39 -13,-17 -19,-37 -20,-58 0,-22 5,-43 17,-63 12,-20 29,-38 51,-54 22,-15 45,-25 68,-30 23,-6 44,-4 64,4 20,8 36,21 49,39 9,13 14,27 16,41 2,15 0,28 -4,41l109 -76 26 37 -304 212 -24 -35zm27 -194c-28,19 -45,40 -51,62 -5,21 -3,40 9,56 11,17 28,26 49,28 21,2 45,-6 73,-25 30,-21 48,-43 54,-64 6,-22 3,-41 -9,-58 -11,-16 -28,-26 -49,-27 -21,-2 -47,7 -76,28z"/>
   <path id="1" class="fil1" d="M19773 7215l43 -30 26 37 -42 30 -27 -37zm-261 182l221 -154 26 38 -221 153 -26 -37z"/>
   <path id="2" class="fil1" d="M19675 7632l192 -133 -50 -71 -191 134 -26 -38 191 -133 -23 -33 29 -20 23 33 22 -15c22,-15 41,-22 60,-21 18,1 34,12 48,32 9,14 17,27 22,42l-36 16c-4,-8 -8,-16 -12,-22 -9,-12 -17,-19 -26,-21 -8,-1 -21,4 -37,16l-15 10 49 71 22 -15c22,-16 42,-23 60,-21 18,1 34,12 48,32 10,14 17,27 22,41l-36 17c-3,-9 -7,-16 -12,-22 -9,-13 -17,-20 -26,-21 -8,-1 -21,4 -37,16l-14 10 29 43 -29 20 -29 -43 -192 133 -26 -37z"/>
   <ellipse class="fil4" cx="17044" cy="8889" rx="970" ry="653"/>
   <path class="fil1" d="M16534 9073l0 -289 32 0 0 28c8,-11 17,-19 26,-24 10,-5 21,-8 35,-8 18,0 34,4 47,14 14,9 24,22 31,38 7,17 10,35 10,55 0,22 -3,41 -11,58 -8,17 -19,30 -33,39 -15,9 -30,14 -46,14 -12,0 -23,-3 -32,-8 -10,-5 -17,-11 -23,-18l0 101 -36 0zm32 -183c0,27 6,47 17,60 11,12 24,19 39,19 16,0 29,-7 40,-20 12,-13 17,-34 17,-62 0,-26 -5,-46 -16,-59 -11,-14 -24,-20 -39,-20 -15,0 -29,7 -40,21 -12,14 -18,34 -18,61z"/>
   <path id="1" class="fil1" d="M16917 8967c-13,11 -26,19 -38,24 -12,4 -25,7 -39,7 -23,0 -41,-6 -53,-17 -12,-11 -19,-25 -19,-43 0,-10 3,-19 7,-28 5,-8 11,-15 19,-20 7,-5 16,-9 25,-12 7,-2 18,-3 32,-5 28,-3 50,-7 63,-12 0,-5 0,-8 0,-9 0,-15 -3,-25 -10,-31 -9,-8 -22,-12 -40,-12 -17,0 -29,3 -37,9 -8,6 -14,16 -18,31l-34 -5c3,-14 8,-26 15,-36 7,-9 18,-16 31,-21 14,-5 30,-7 48,-7 18,0 32,2 44,6 11,4 19,10 24,16 5,6 9,14 11,24 1,6 2,17 2,33l0 47c0,33 1,53 2,62 2,9 5,17 9,25l-37 0c-4,-7 -6,-16 -7,-26zm-3 -78c-13,5 -32,9 -58,13 -14,2 -25,4 -31,7 -6,3 -10,6 -14,11 -3,5 -5,11 -5,17 0,9 4,17 11,24 7,6 18,9 31,9 14,0 26,-3 37,-9 11,-6 18,-14 23,-24 4,-8 6,-20 6,-35l0 -13z"/>
   <path id="2" class="fil1" d="M17104 8962l5 31c-10,2 -19,3 -27,3 -13,0 -23,-2 -30,-6 -7,-4 -12,-9 -15,-16 -3,-7 -4,-21 -4,-42l0 -120 -26 0 0 -28 26 0 0 -51 35 -22 0 73 36 0 0 28 -36 0 0 122c0,10 1,17 2,20 1,3 3,5 6,7 3,1 7,2 12,2 4,0 9,0 16,-1z"/>
   <path id="3" class="fil1" d="M17298 8917l34 5c-4,23 -13,42 -29,56 -16,13 -35,20 -58,20 -28,0 -51,-10 -68,-28 -18,-19 -26,-46 -26,-80 0,-23 3,-43 11,-59 7,-17 19,-30 34,-38 15,-9 32,-13 50,-13 22,0 41,6 55,17 15,12 24,28 28,49l-34 5c-4,-14 -9,-24 -18,-31 -8,-8 -18,-11 -30,-11 -18,0 -32,6 -43,19 -12,13 -17,33 -17,61 0,28 5,48 16,61 11,12 25,19 42,19 14,0 26,-4 35,-13 9,-8 15,-22 18,-39z"/>
   <path id="4" class="fil1" d="M17385 8993l0 -288 35 0 0 104c17,-19 37,-29 63,-29 15,0 28,3 40,9 11,6 19,15 24,25 5,11 7,27 7,47l0 132 -35 0 0 -132c0,-17 -4,-30 -12,-38 -7,-8 -18,-12 -32,-12 -10,0 -20,2 -29,8 -9,5 -16,12 -20,22 -4,9 -6,22 -6,38l0 114 -35 0z"/>
   <g>
    <path class="fil1" d="M18062 8153l1181 -702 51 86 -1181 702 -51 -86zm194 246l-542 18 275 -467 267 449z"/>
   </g>
   <g>
    <path class="fil1" d="M18827 3992l-31 95 -20 -7 -72 -23 -53 -15 -32 -9 -11 -3 24 -97 13 3 34 10 54 16 74 23 20 7zm284 106l-36 93 -104 -41 -82 -30 34 -95 84 31 104 42zm277 121l-41 92 -121 -56 -60 -26 38 -92 63 27 121 55zm270 137l-46 88 -82 -43 -94 -47 43 -90 97 48 82 44zm263 147l-49 88 -173 -100 49 -88 173 100zm256 163l-54 84 -69 -46 -98 -61 51 -86 102 63 68 46zm247 173l-57 82 -125 -91 -36 -25 54 -83 39 26 125 91zm239 184l-60 80 -157 -124 60 -80 157 124zm232 197l-67 75 -6 -6 -144 -123 64 -78 147 127 6 5zm219 208l-69 71 -27 -27 -117 -109 67 -75 120 112 26 28zm210 217l-73 69 -39 -44 -97 -99 69 -72 101 102 39 44zm199 228l-76 65 -44 -54 -85 -96 73 -68 88 99 44 54zm188 237l-79 61 -42 -56 -80 -99 76 -65 83 102 42 57zm176 246l-82 57 -33 -51 -81 -110 79 -61 84 114 33 51zm165 253l-85 53 -20 -34 -87 -132 82 -57 90 136 20 34zm153 262l-88 48 -3 -7 -97 -163 85 -53 99 168 4 7zm138 266l-88 48 -92 -177 88 -49 92 178zm127 274l-90 44 -83 -182 90 -44 83 182zm115 280l-92 39 -73 -186 92 -39 73 186zm104 284l-94 34 -43 -129 -23 -57 92 -39 25 62 43 129zm93 288l-96 29 -14 -49 -46 -139 94 -34 48 144 14 49zm79 290l-95 29 -54 -193 96 -29 53 193zm68 294l-97 24 -43 -195 97 -24 43 195zm59 297l-99 19 -21 -129 -15 -65 98 -24 15 70 22 129zm49 296l-98 19 -33 -197 98 -19 33 197zm36 300l-99 14 -23 -198 99 -14 23 198zm19 165l-99 9 -8 -60 99 -14 8 65zm-82 113l79 -62 -84 8 219 -417 88 46 -218 417 -84 8zm0 0l84 -8 -36 68 -48 -60zm-252 -401l39 -31 292 370 -79 62 -291 -370 39 -31z"/>
   </g>
   <path class="fil1" d="M21507 5073c-18,2 -35,3 -52,6 7,14 15,31 24,51 16,2 38,-1 65,-9l-37 -48zm148 -206c2,27 2,44 -1,53 -3,8 -6,13 -8,15 -5,4 -11,6 -18,6 -8,0 -12,0 -14,-2 -2,-3 1,-10 8,-20 11,-14 19,-32 27,-54l6 2zm98 120l2 38c-8,-6 -17,-9 -29,-9 -13,-1 -33,-3 -60,-6l0 -7c42,-4 71,-9 87,-16zm-34 -77l10 43 -19 -4 -65 50 27 36 28 3 -6 43 -58 -75 -13 9c12,26 18,43 18,51 0,9 -4,16 -10,21 -3,2 -7,4 -12,6 -5,3 -8,3 -10,1 -1,-2 -1,-8 3,-18 4,-15 6,-34 4,-55l-44 34 -24 -9 6 27c-5,-4 -17,-4 -35,-3l34 45 20 0 -2 35 -17 -7c-29,7 -51,10 -65,9 8,18 11,32 11,40 0,8 -4,15 -10,20 -7,5 -11,7 -13,4 -3,-3 -3,-8 -2,-15 -1,-16 -3,-33 -8,-50 -52,-13 -99,-39 -143,-78l3 -5c48,33 93,53 134,60 -8,-24 -17,-46 -28,-66 9,-1 28,-4 59,-9l-14 -19c-10,-12 -20,-22 -31,-31l3 -22 53 68c12,-3 26,-8 42,-15l3 10 58 -45c-49,-3 -94,-15 -135,-36l2 -6c51,16 98,22 140,19l-19 -26c-10,-12 -20,-23 -31,-31l3 -23 65 84c34,-26 63,-49 88,-70zm-9 192c-51,47 -88,94 -112,140 44,-9 98,-35 160,-77l-48 -63zm104 -68l7 47c-9,-5 -19,-7 -31,-4 -11,3 -35,10 -70,20l62 81 30 4 -6 46 -31 -42c-75,48 -137,76 -185,83 -10,42 -7,81 9,115l-6 4c-17,-15 -30,-20 -39,-15 -2,-38 2,-73 12,-106 -55,-8 -106,-28 -153,-61l2 -6c53,28 106,43 158,44 30,-52 72,-99 124,-141 -32,10 -65,14 -101,12l0 -6c55,-6 128,-31 218,-75z"/>
   <path id="1" class="fil1" d="M21743 5641c22,-15 44,-31 68,-49 23,-18 43,-34 60,-49l4 29 31 40 57 -44 -52 -67c-72,45 -147,62 -224,52l1 -8c44,0 87,-8 130,-23 43,-16 88,-41 134,-76 46,-34 79,-60 98,-76l4 31 89 117 20 2 -3 35 -16 -6c-28,21 -49,38 -61,49l-24 -13 17 -13 -91 -120c-18,14 -40,28 -64,44l50 65c18,-13 35,-27 52,-41l10 42 -18 -5 -30 23 36 47 28 4 -6 42 -66 -87 -57 44 28 37 22 2 -4 34 -17 -5c-38,29 -67,52 -87,69l-27 -11 30 -23 -74 -97 -24 18 -24 -13zm301 -235l-51 39 92 120 51 -39 -92 -120zm-177 172l-67 51 74 97 67 -51 -74 -97zm-10 -155l63 27 -4 7 -75 -22 -115 89c-18,12 -39,11 -61,-3 11,-6 11,-25 2,-59l6 -4c12,24 20,38 25,43 4,5 10,4 17,-1l101 -77c-40,-12 -63,-16 -69,-13l9 -41c6,5 31,19 77,41l72 -56 -25 -32 -16 -15 3 -20 47 61c39,-30 66,-51 81,-65l8 46 -18 -4 -56 43 12 15 30 7 -8 40 -42 -56 -64 49z"/>
   <path id="2" class="fil1" d="M22258 5780l7 39 -17 -2 -167 127 -23 -12c19,-13 34,-23 44,-31l124 -95c6,-4 16,-13 32,-26zm88 88c-10,24 -16,49 -16,73 31,6 58,9 79,10l-63 -83zm64 -51l6 40 -17 -7c-15,3 -31,5 -48,7l68 88 21 2 -5 38 -15 -9c-29,-2 -60,-6 -92,-13 -1,18 3,39 10,60 7,21 16,38 28,51l-5 3c-14,-11 -27,-14 -37,-10 -14,-38 -20,-75 -16,-109 -46,-15 -90,-37 -133,-68l2 -6c50,28 95,46 134,54 6,-28 16,-54 28,-78 -38,1 -71,-1 -99,-6l0 -6c32,0 62,-2 91,-8 28,-6 55,-14 79,-23zm-117 168l-6 39 -17 -16c-54,-17 -100,-39 -139,-66l4 -5c25,14 52,25 81,33 29,9 55,14 77,15zm-16 62l-7 41 -12 -13c-30,-10 -59,-22 -87,-36 -28,-14 -60,-34 -95,-60l5 -6c29,19 61,35 96,49 35,14 68,22 100,25zm-15 66l-8 42 -14 -15c-51,-20 -95,-43 -132,-69 -36,-26 -69,-53 -99,-83l4 -6c42,37 86,68 133,91 46,23 85,36 116,40zm-44 -355l2 23 -14 -4 -218 166 -24 -11c22,-16 37,-26 44,-31l179 -137c-33,4 -68,4 -105,1l1 -7c43,-3 83,-9 120,-19 37,-10 76,-23 115,-40l5 42 -18 -6c-41,11 -70,19 -87,23z"/>
   <path id="3" class="fil1" d="M22610 6219c-42,32 -71,54 -86,68l-28 -11 12 -9 -61 -80 -129 99 135 82 -5 6c-92,-46 -149,-70 -173,-73l13 -33c8,0 19,-6 35,-17l67 -51c20,-16 41,-33 61,-50l6 32 60 78 84 -64 -65 -86 -15 -13 3 -20 85 111 23 0 -4 35 -18 -4zm6 79l-9 0c-51,57 -83,105 -96,143 48,-8 101,-32 160,-71l-55 -72zm-24 2c-23,4 -54,6 -91,4l0 -6c61,-5 133,-26 218,-63l7 41 -17 -4c-16,4 -44,12 -83,22l69 90 28 3 -6 43 -32 -41c-64,45 -125,70 -181,75 -11,58 -8,102 9,131l-5 4c-13,-13 -26,-17 -38,-14 -4,-35 0,-75 11,-121 -58,-9 -114,-33 -168,-72l3 -5c57,33 114,52 172,56 18,-47 53,-95 104,-143z"/>
   <g>
    <path class="fil1" d="M13784 10525l2429 -1317 48 87 -2430 1318 -47 -88zm184 254l-542 -3 293 -457 249 460z"/>
   </g>
   <circle class="fil5" cx="4911" cy="14822" r="2105"/>
   <path class="fil1" d="M4428 14191l-31 39c-33,-34 -74,-64 -122,-91l26 -37c47,29 89,59 127,89zm183 20c-43,0 -81,1 -114,4l0 -44c38,3 100,4 185,4 86,0 145,-2 176,-5 -4,16 -7,42 -9,80l-20 392c-2,25 -6,44 -13,57 -7,13 -20,23 -40,29 -19,7 -50,12 -90,16 -2,-18 -10,-37 -24,-57 23,1 43,2 61,2 18,0 33,-3 43,-7 11,-5 17,-18 18,-38l23 -433 -152 0c-1,122 -6,214 -15,277 -8,63 -26,114 -52,155 -26,41 -68,81 -124,121 -8,-15 -23,-28 -44,-38 55,-33 94,-64 120,-95 25,-31 43,-75 54,-132 11,-56 17,-153 17,-288zm-236 201l0 17c14,10 29,22 45,35 27,-35 47,-69 61,-101 15,12 27,19 37,22 9,3 14,6 14,9 0,3 -3,6 -10,9 -12,6 -37,33 -76,81 35,28 59,48 73,61l-37 37c-28,-37 -63,-73 -107,-107l0 171c0,40 2,80 5,120l-53 0c3,-40 5,-81 5,-120l0 -184c-23,25 -55,54 -94,88 -8,-15 -20,-30 -37,-43 43,-22 83,-54 121,-94 38,-39 67,-83 88,-129 -107,0 -173,3 -197,9l0 -50c33,5 79,7 139,7 60,0 101,-2 125,-6 -16,46 -50,102 -102,168z"/>
   <path id="1" class="fil1" d="M5154 14573c28,24 57,49 86,78 -14,10 -26,22 -36,36 -22,-27 -45,-52 -70,-76 -32,53 -75,102 -127,148 -10,-11 -25,-21 -44,-28 58,-42 103,-92 136,-150 -27,-22 -60,-46 -99,-70 25,-71 45,-142 59,-214 -37,0 -64,2 -80,6l0 -45c20,4 50,6 88,6 15,-64 23,-120 23,-167 19,8 35,12 48,13 14,2 21,5 21,10 0,5 -2,10 -7,15 -5,4 -10,13 -14,27 -5,15 -14,48 -28,102 59,-1 97,-3 112,-6 -7,126 -30,231 -68,315zm-53 -276l-52 202c26,17 48,32 68,46 30,-64 51,-147 61,-248l-77 0zm456 65c-173,6 -275,14 -307,24 -4,-17 -10,-33 -19,-47 23,-5 53,-34 90,-88 36,-54 61,-103 73,-148 20,12 38,21 54,26 7,2 11,6 11,11 0,5 -4,8 -12,10 -7,2 -14,6 -19,11 -5,6 -12,15 -20,28 -32,52 -65,101 -100,147l225 -7c-14,-19 -37,-45 -68,-77l30 -26c47,44 93,98 137,162l-39 28c-13,-22 -25,-40 -36,-54zm-235 322l0 67 -49 0c2,-19 3,-45 3,-79l0 -178c0,-16 -1,-29 -3,-41 39,3 88,4 148,4 59,0 108,-1 147,-4 -2,9 -3,23 -3,41l0 175c0,33 0,57 2,71l-48 0 0 -56 -197 0zm197 -35l0 -155 -197 0 0 155 197 0z"/>
   <path id="2" class="fil1" d="M3607 14932l91 0c60,0 105,-3 136,-7l0 42c-19,-2 -64,-4 -136,-4l-91 0 0 49c138,0 239,-3 301,-9l-56 104 -43 -17 28 -47 -238 0 0 74c81,-9 138,-18 171,-26l0 42c-33,0 -90,6 -171,16l0 22c0,11 6,19 19,23 12,4 34,6 65,6 32,0 55,-2 71,-5 15,-3 27,-9 34,-18 8,-8 14,-22 19,-41 9,12 22,22 39,30 -11,21 -21,36 -31,45 -11,9 -25,15 -45,18 -19,3 -49,5 -91,5 -41,0 -72,-3 -92,-8 -21,-6 -31,-18 -31,-36l0 -36c-64,8 -111,14 -139,19l-4 -45c33,2 81,0 143,-7l0 -78 -170 0c0,116 -1,197 -4,244 -3,46 -9,88 -20,126 -10,39 -26,80 -50,126 -17,-14 -35,-22 -54,-24 27,-29 48,-67 63,-114 16,-46 23,-132 23,-258 0,-41 -1,-85 -4,-133 8,1 82,2 224,2l0 -70c0,-33 -3,-56 -7,-67 23,2 39,3 50,3 11,0 16,2 16,4 0,3 -2,6 -8,10 -5,4 -8,12 -8,24l0 16zm-70 539l0 -131c0,-44 -2,-74 -5,-88 17,2 32,4 44,4 12,0 18,1 18,4 0,3 -3,6 -8,10 -5,4 -7,18 -7,41l0 160 86 0 0 -129c0,-43 -1,-72 -4,-90 11,4 28,5 51,5 7,0 10,2 10,5 0,3 -1,6 -4,8 -7,6 -11,20 -11,43l0 158c83,0 144,-2 182,-6l0 45c-26,-3 -111,-5 -255,-5 -144,0 -229,2 -255,5l0 -45c47,4 100,6 158,6zm278 -195c14,11 26,19 36,23 10,4 15,8 15,13 0,4 -4,8 -14,11 -4,1 -12,9 -23,24 -12,14 -33,42 -63,85 -9,-10 -20,-17 -33,-22 40,-47 67,-92 82,-134zm-297 127l-35 22c-24,-47 -50,-85 -79,-117l33 -23c25,30 52,69 81,118z"/>
   <path id="3" class="fil1" d="M4138 15070c-43,0 -77,2 -102,6l0 -46c25,4 59,6 102,6 0,-72 -3,-122 -10,-151 13,3 31,5 56,5 11,0 17,2 17,5 0,3 -3,8 -11,14 -7,5 -10,14 -10,27l0 100c27,0 52,-2 77,-6l0 46c-26,-4 -52,-6 -77,-6l0 136c26,-14 49,-28 70,-42 0,17 3,31 7,44 -35,16 -61,28 -77,37l0 216c0,19 -3,33 -8,42 -4,9 -14,15 -28,20 -15,4 -38,7 -70,10 0,-12 -2,-21 -5,-28 -3,-7 -9,-15 -17,-24 21,3 38,4 52,4 13,0 22,-3 27,-8 5,-6 7,-16 7,-31l0 -178 -87 49c-2,-20 -11,-35 -27,-47 38,-12 76,-27 114,-44l0 -156zm359 10l-45 18c-22,-63 -52,-122 -90,-176l34 -21c38,58 71,118 101,179zm55 305c-12,25 -28,49 -48,72 -20,22 -57,53 -110,90 -8,-16 -21,-28 -41,-35 57,-25 100,-56 127,-92 28,-36 46,-74 55,-115 8,-40 12,-99 12,-177 0,-102 -2,-165 -6,-188 12,3 31,5 57,5 7,0 10,1 10,5 0,4 -3,8 -9,12 -6,4 -10,38 -10,102 -1,67 -2,121 -3,162 -2,40 -5,69 -10,86 -4,17 -8,29 -11,38 48,46 89,91 123,136l-38 28c-21,-38 -54,-81 -98,-129zm-93 -89l-117 123c-24,25 -41,46 -53,62 -11,-14 -24,-27 -37,-36 27,-22 41,-51 41,-87l0 -262c0,-42 -2,-72 -6,-89 16,3 34,5 55,5 7,0 11,2 11,5 0,3 -2,5 -6,8 -10,8 -15,17 -15,28l0 317c39,-38 73,-75 103,-112 4,14 12,26 24,38z"/>
   <path id="4" class="fil1" d="M4771 15426l0 -517 107 0c73,0 127,5 162,16 34,11 64,28 89,51 25,23 44,52 57,85 14,34 21,71 21,113 0,48 -11,92 -32,132 -21,40 -49,70 -85,90 -36,20 -87,30 -154,30l-165 0zm49 -49l60 0c63,0 108,-3 136,-9 28,-7 53,-19 74,-38 21,-18 37,-40 48,-67 11,-26 17,-56 17,-89 0,-35 -7,-67 -19,-96 -13,-29 -31,-53 -55,-71 -23,-19 -51,-32 -83,-38 -32,-7 -79,-10 -141,-10l-37 0 0 418z"/>
   <path id="5" class="fil1" d="M5320 15169c0,-50 12,-96 36,-138 24,-42 57,-75 99,-99 42,-24 87,-36 135,-36 50,0 97,11 139,35 43,24 76,57 100,99 25,42 37,88 37,137 0,49 -12,95 -36,137 -24,42 -57,75 -99,99 -42,24 -88,36 -137,36 -49,0 -95,-12 -137,-36 -43,-24 -76,-56 -100,-98 -25,-42 -37,-87 -37,-136zm492 -2c0,-62 -22,-114 -65,-157 -43,-43 -94,-64 -155,-64 -62,0 -114,22 -155,65 -42,43 -63,95 -63,158 0,61 22,113 65,155 42,43 93,64 153,64 62,0 114,-20 156,-62 43,-42 64,-95 64,-159z"/>
   <polygon id="6" class="fil1" points="5982,15426 6055,14909 6063,14909 6274,15333 6483,14909 6491,14909 6565,15426 6514,15426 6463,15056 6280,15426 6267,15426 6082,15053 6032,15426 "/>
   <g>
    <path class="fil1" d="M9338 12812l-2430 1317 -48 -88 2430 -1317 48 88zm-185 -254l542 3 -293 457 -249 -460z"/>
   </g>
   <path class="fil1" d="M7377 14334l-25 -44 38 -21 25 44 -38 21zm149 267l-126 -225 38 -22 126 225 -38 22z"/>
   <path id="1" class="fil1" d="M7646 14534l-126 -225 35 -20 18 32c2,-34 19,-59 50,-77 14,-7 28,-12 42,-13 14,-2 26,0 36,4 10,5 19,12 28,22 5,6 13,18 23,36l77 138 -38 22 -77 -137c-8,-16 -16,-27 -24,-33 -7,-6 -16,-9 -26,-9 -10,-1 -20,2 -30,8 -16,9 -27,22 -34,39 -6,17 0,40 16,68l68 123 -38 22z"/>
   <path id="2" class="fil1" d="M7763 14119l-24 -44 38 -22 24 44 -38 22zm149 266l-126 -225 39 -21 125 225 -38 21z"/>
   <path id="3" class="fil1" d="M8097 14237l24 31c-9,8 -18,15 -27,20 -13,7 -25,11 -35,11 -10,0 -19,-3 -26,-8 -7,-6 -17,-20 -30,-43l-72 -129 -28 16 -17 -30 28 -16 -31 -55 25 -45 44 79 38 -21 17 29 -39 22 74 131c6,11 11,18 14,20 3,2 6,4 11,4 4,0 8,-2 14,-5 4,-2 10,-6 16,-11z"/>
   <path id="4" class="fil1" d="M8274 14184l-126 -225 34 -19 19 34c0,-21 2,-36 7,-45 5,-10 11,-17 20,-22 13,-7 28,-10 46,-9l7 42c-12,0 -23,2 -33,8 -8,4 -14,11 -18,20 -4,8 -5,18 -2,29 3,15 9,31 18,48l66 117 -38 22z"/>
   <path id="5" class="fil1" d="M8557 13931l42 -18c7,27 5,51 -5,73 -9,23 -27,41 -53,55 -33,19 -65,23 -96,14 -30,-10 -56,-33 -76,-69 -22,-38 -28,-73 -20,-105 7,-31 27,-56 58,-73 30,-17 60,-21 91,-11 30,10 56,33 77,70 1,3 3,6 5,11l-168 94c16,24 33,39 53,45 20,6 39,4 58,-7 14,-8 24,-18 30,-31 6,-13 7,-29 4,-48zm-160 8l126 -70c-13,-18 -25,-30 -39,-35 -20,-8 -40,-6 -59,5 -18,9 -29,24 -35,42 -5,18 -3,38 7,58z"/>
   <path id="6" class="fil1" d="M8709 13941l-126 -225 35 -19 17 32c3,-34 20,-60 51,-77 14,-8 28,-12 42,-14 14,-1 26,0 36,5 10,5 19,12 28,22 5,6 13,18 23,35l77 139 -38 21 -77 -137c-8,-15 -16,-26 -24,-32 -7,-6 -16,-9 -26,-10 -10,0 -20,3 -30,8 -17,9 -28,22 -34,39 -6,17 -1,40 15,69l69 123 -38 21z"/>
   <path id="7" class="fil1" d="M9121 13711l-16 -28c-2,30 -16,53 -44,68 -18,11 -37,15 -58,13 -20,-1 -40,-8 -58,-22 -18,-13 -34,-31 -47,-54 -12,-22 -20,-45 -23,-67 -2,-23 1,-43 11,-61 9,-18 23,-32 42,-43 13,-7 27,-11 41,-11 13,-1 26,2 38,7l-62 -111 38 -21 173 310 -35 20zm-183 -45c16,29 34,47 54,55 20,7 38,6 55,-3 17,-9 27,-24 31,-44 4,-20 -2,-44 -17,-72 -18,-31 -36,-50 -56,-58 -20,-8 -39,-7 -56,3 -17,9 -27,24 -31,44 -4,21 3,46 20,75z"/>
   <path id="8" class="fil1" d="M9354 13486l42 -17c7,26 6,51 -4,73 -10,22 -28,40 -54,55 -33,18 -64,23 -95,13 -31,-9 -56,-32 -77,-69 -21,-38 -28,-72 -20,-104 8,-32 27,-57 58,-74 31,-17 61,-20 91,-11 31,10 57,34 77,71 2,2 3,5 6,10l-168 94c15,24 33,39 53,45 20,6 39,4 58,-7 14,-7 24,-18 29,-31 6,-13 8,-29 4,-48zm-159 8l125 -70c-12,-18 -25,-29 -38,-34 -20,-8 -40,-7 -60,4 -17,10 -29,24 -34,42 -5,19 -3,38 7,58z"/>
   <path id="9" class="fil1" d="M9506 13497l-126 -225 35 -19 19 34c0,-21 2,-36 6,-45 5,-10 12,-17 21,-22 12,-7 28,-10 46,-9l6 42c-12,0 -23,2 -32,8 -9,4 -15,11 -19,20 -3,8 -4,18 -2,29 3,15 10,31 19,48l65 117 -38 22z"/>
  </g>
 </g>
</svg>
