<?xml version="1.0" encoding="UTF-8"?>
<!DOCTYPE svg PUBLIC "-//W3C//DTD SVG 1.1//EN" "http://www.w3.org/Graphics/SVG/1.1/DTD/svg11.dtd">
<!-- Creator: CorelDRAW -->
<svg xmlns="http://www.w3.org/2000/svg" xml:space="preserve" width="179.984mm" height="44.306mm" version="1.1" style="shape-rendering:geometricPrecision; text-rendering:geometricPrecision; image-rendering:optimizeQuality; fill-rule:evenodd; clip-rule:evenodd"
viewBox="0 0 17998.4 4430.6"
 xmlns:xlink="http://www.w3.org/1999/xlink"
 xmlns:xodm="http://www.corel.com/coreldraw/odm/2003">
 <defs>
  <style type="text/css">
   <![CDATA[
    .fil0 {fill:#003153}
    .fil1 {fill:#003153;fill-rule:nonzero}
   ]]>
  </style>
 </defs>
 <g id="圖層_x0020_1">
  <metadata id="CorelCorpID_0Corel-Layer"/>
  <g id="_666650592">
   <path class="fil0" d="M16869.49 4430.6l-35 0c-442.96,-20 -796.93,-385.97 -796.93,-833.92 0,-94.99 16,-184.98 45,-269.98l376.97 -269.98c-161.99,124.99 -265.98,319.97 -265.98,539.95 0,374.97 303.97,678.94 678.94,678.94 124.99,0 241.98,-33 342.97,-91.99l-345.97 246.98zm793.93 -567.95c28,-82.99 44,-172.98 44,-265.98 0,-460.96 -373.97,-834.92 -834.92,-834.92l-375.97 268.98c107.99,-71.99 236.98,-112.99 375.97,-112.99 374.97,0 678.94,303.97 678.94,678.94 0,205.98 -90.99,389.96 -235.98,514.95l347.97 -248.98 -0.01 0z"/>
   <polygon class="fil1" points="9095.19,3585.68 9095.19,3660.67 8909.21,3660.67 8909.21,771.93 9095.19,771.93 "/>
   <path class="fil1" d="M7870.3 4430.6l900.92 -706.94 -17 -2669.76 -3779.66 2712.76 -1 -169.98 0 -2589.77 -4685.58 3423.69 -287.97 0 5438.51 -3966.64 2 371.97 0 2388.78 4416.6 -3223.71 277.97 0 -896.92 704.94 0 129.99 0 2551.77 4071.63 -2923.74 1 371.97 0 2388.78 4406.6 -3224.71 280.97 0 -5150.53 3767.66 -4 -170.98 0 -2589.77 -4685.58 3423.69 -287.97 0 0.01 0zm5160.54 -1004.91l0 0 0 0 0 0z"/>
  </g>
 </g>
</svg>
