<?xml version="1.0" encoding="UTF-8"?>
<!DOCTYPE svg PUBLIC "-//W3C//DTD SVG 1.1//EN" "http://www.w3.org/Graphics/SVG/1.1/DTD/svg11.dtd">
<!-- Creator: CorelDRAW X8 -->
<svg xmlns="http://www.w3.org/2000/svg" xml:space="preserve" width="107.093mm" height="20mm" version="1.1" style="shape-rendering:geometricPrecision; text-rendering:geometricPrecision; image-rendering:optimizeQuality; fill-rule:evenodd; clip-rule:evenodd"
viewBox="0 0 10709 2000"
 xmlns:xlink="http://www.w3.org/1999/xlink">
 <defs>
  <style type="text/css">
   <![CDATA[
    .fil0 {fill:#6CD1EF}
    .fil1 {fill:#6CD1EF;fill-rule:nonzero}
   ]]>
  </style>
 </defs>
 <g id="图层_x0020_1">
  <metadata id="CorelCorpID_0Corel-Layer"/>
  <g id="_756589632">
   <path class="fil0" d="M1010 1006l247 614 87 0 -657 -1620 -38 0 -649 1620 83 0 244 -614 683 0 0 0zm-467 -62c-92,0 -114,0 -197,5 33,-76 40,-93 76,-183l166 -419c2,-5 7,-22 14,-45l21 -62c3,-14 10,-38 22,-69l16 -57 8 0 18 57c10,31 17,55 22,69l19 59c9,26 14,43 16,48l169 417c35,90 43,107 78,185 -85,-5 -107,-5 -199,-5l-249 0 0 0zm1159 650c135,14 181,16 268,16 237,0 394,-125 394,-315 0,-142 -86,-242 -242,-280l0 -7c102,-59 159,-145 159,-239 0,-176 -135,-276 -370,-276 -48,0 -105,3 -209,12l0 1089zm275 -539c197,0 311,88 311,238 0,166 -114,251 -334,251 -57,0 -103,-3 -178,-12 2,-17 2,-21 2,-43l0 -386c0,-26 0,-31 -5,-52 21,4 26,4 52,4l152 0zm-152 -61c-26,0 -31,0 -52,4 5,-21 5,-26 5,-52l0 -329c0,-26 0,-31 -5,-52 38,-5 112,-7 145,-7 180,0 284,78 284,213 0,76 -45,156 -111,201 -21,12 -43,22 -55,22l-211 0zm1475 -512c-339,0 -581,235 -581,559 0,347 235,586 569,586 339,0 567,-233 567,-579 0,-329 -233,-566 -555,-566zm-17 68c292,0 496,209 496,508 0,294 -194,498 -479,498 -294,0 -505,-216 -505,-515 0,-291 199,-491 488,-491l0 0zm1015 -61l0 666c0,161 12,225 48,282 73,119 223,187 403,187 128,0 242,-35 322,-101 95,-79 126,-166 126,-365l0 -669 -76 0 0 669c0,149 -19,227 -66,284 -62,71 -167,111 -294,111 -109,0 -209,-30 -280,-82 -86,-65 -107,-131 -107,-313l0 -669 -76 0 0 0zm1252 16l0 65 382 0c26,0 31,0 52,-5 -5,21 -5,26 -5,52l0 1003 76 0 0 -1003c0,-26 0,-31 -5,-52 22,5 26,5 52,5l382 0 0 -65 -934 0 0 0zm3253 -474l-59 0 -460 1091c-5,12 -19,47 -41,102l-37 99c-3,10 -12,36 -26,74l-53 144 -9 0 -57 -144c-14,-40 -24,-66 -29,-74l-38 -97c-21,-52 -38,-90 -42,-104l-484 -1091 -66 0 -157 1589 76 0 100 -1055c2,-31 7,-93 9,-183 3,-50 7,-125 12,-222l12 -3 66 168 62 150c17,40 28,71 35,90l465 1055 71 0 444 -1055c7,-15 19,-45 35,-90l36 -95c17,-43 45,-117 83,-220l12 2c5,95 9,170 11,218 5,87 10,149 15,185l118 1055 79 0 -183 -1589 0 0zm1268 474l-595 0 0 931 76 -55 0 -280c0,-26 0,-31 -5,-53 22,5 27,5 53,5l401 0 11 -8 0 -56 -412 0c-26,0 -31,0 -53,5 5,-22 5,-26 5,-52l0 -325c0,-26 0,-31 -5,-52 22,5 27,5 53,5l471 0 0 -65 0 0z"/>
   <polygon class="fil1" points="8830,1945 10665,461 10709,517 8874,2000 "/>
  </g>
 </g>
</svg>
