<?xml version="1.0" encoding="UTF-8"?>
<!DOCTYPE svg PUBLIC "-//W3C//DTD SVG 1.1//EN" "http://www.w3.org/Graphics/SVG/1.1/DTD/svg11.dtd">
<!-- Creator: CorelDRAW X8 -->
<svg xmlns="http://www.w3.org/2000/svg" xml:space="preserve" width="100mm" height="23.116mm" version="1.1" style="shape-rendering:geometricPrecision; text-rendering:geometricPrecision; image-rendering:optimizeQuality; fill-rule:evenodd; clip-rule:evenodd"
viewBox="0 0 10000 2312"
 xmlns:xlink="http://www.w3.org/1999/xlink">
 <defs>
  <style type="text/css">
   <![CDATA[
    .fil1 {fill:#506060}
    .fil2 {fill:#506060;fill-rule:nonzero}
    .fil0 {fill:#506060;fill-rule:nonzero}
   ]]>
  </style>
 </defs>
 <g id="图层_x0020_1">
  <metadata id="CorelCorpID_0Corel-Layer"/>
  <path class="fil0" d="M0 27l0 1790 96 0 0 -770c0,-24 0,-32 -6,-54 96,11 147,13 220,13 215,0 367,-32 466,-97 147,-95 231,-253 231,-426 0,-309 -220,-483 -618,-483 -115,0 -172,3 -333,22l-56 5zm96 130c0,-29 0,-35 -6,-59 91,-11 189,-17 265,-17 367,0 556,141 556,413 0,282 -203,431 -589,431 -71,0 -130,-3 -232,-14 6,-13 6,-19 6,-46l0 -708z"/>
  <path class="fil0" d="M1511 1817l90 0 0 -531c0,-30 0,-36 -5,-60 25,6 31,6 62,6l242 0 443 585 116 0 -387 -504c-42,-52 -48,-60 -87,-103l8 -3c187,-79 263,-176 263,-331 0,-220 -170,-347 -466,-347 -82,0 -147,5 -279,19l0 1269zm147 -659c-31,0 -37,0 -62,6 5,-25 5,-30 5,-60l0 -434c0,-30 0,-35 -5,-60 42,-5 132,-8 180,-8 246,0 389,101 389,269 0,154 -129,287 -282,287l-225 0z"/>
  <path class="fil0" d="M3465 515c-403,0 -691,269 -691,641 0,396 280,670 677,670 404,0 675,-266 675,-662 0,-377 -277,-649 -661,-649zm-19 79c347,0 589,239 589,581 0,336 -231,569 -570,569 -349,0 -600,-247 -600,-588 0,-334 237,-562 581,-562z"/>
  <path class="fil0" d="M4988 524l-90 0 0 873c0,119 -3,176 -11,214 -23,87 -85,128 -200,128 -74,0 -136,-17 -204,-54l-28 84c71,32 144,48 223,48 220,0 310,-103 310,-360l0 -933z"/>
  <path class="fil0" d="M6322 543l-708 0 0 1255 770 0 20 -76 -643 0c-31,0 -37,0 -62,6 5,-25 5,-30 5,-60l0 -445c0,-29 0,-35 -5,-59 25,5 31,5 62,5l491 0 0 -73 -491 0c-31,0 -37,0 -62,5 5,-24 5,-30 5,-59l0 -372c0,-30 0,-35 -5,-60 25,6 31,6 62,6l561 0 0 -73z"/>
  <path class="fil0" d="M7889 618c-153,-70 -266,-100 -401,-100 -406,0 -703,271 -703,646 0,382 291,659 697,659 164,0 314,-41 418,-114l-34 -71c-116,71 -237,103 -375,103 -356,0 -615,-244 -615,-577 0,-339 242,-567 604,-567 124,0 211,24 372,97l37 -76z"/>
  <path class="fil1" d="M8126 543l0 73 455 0c31,0 36,0 62,-6 -6,25 -6,30 -6,60l0 960 90 -73 0 -887c0,-30 0,-35 -5,-60 25,6 31,6 62,6l454 0 0 -73 -1112 0z"/>
  <polygon class="fil2" points="7871,2249 9950,568 10000,631 7921,2312 "/>
 </g>
</svg>
