<?xml version="1.0" encoding="UTF-8"?>
<!DOCTYPE svg PUBLIC "-//W3C//DTD SVG 1.1//EN" "http://www.w3.org/Graphics/SVG/1.1/DTD/svg11.dtd">
<!-- Creator: CorelDRAW X8 -->
<svg xmlns="http://www.w3.org/2000/svg" xml:space="preserve" width="101.247mm" height="23.408mm" version="1.1" style="shape-rendering:geometricPrecision; text-rendering:geometricPrecision; image-rendering:optimizeQuality; fill-rule:evenodd; clip-rule:evenodd"
viewBox="0 0 10125 2341"
 xmlns:xlink="http://www.w3.org/1999/xlink">
 <defs>
  <style type="text/css">
   <![CDATA[
    .fil1 {fill:#FEFEFE}
    .fil0 {fill:#FEFEFE;fill-rule:nonzero}
   ]]>
  </style>
 </defs>
 <g id="图层_x0020_1">
  <metadata id="CorelCorpID_0Corel-Layer"/>
  <g id="_1913473176048">
   <path class="fil0" d="M0 27l0 1813 97 0 0 -780c0,-24 0,-32 -6,-55 97,12 149,14 223,14 218,0 371,-33 472,-99 148,-96 234,-256 234,-431 0,-313 -223,-489 -626,-489 -117,0 -174,3 -337,22l-57 5zm97 132c0,-29 0,-35 -6,-60 92,-11 191,-17 268,-17 372,0 563,143 563,418 0,286 -205,437 -596,437 -72,0 -132,-4 -235,-15 6,-13 6,-19 6,-46l0 -717 0 0z"/>
   <path class="fil0" d="M1530 1840l91 0 0 -538c0,-30 0,-36 -5,-61 25,6 31,6 63,6l245 0 448 593 118 0 -392 -511c-43,-52 -49,-60 -88,-104l8 -3c189,-80 266,-178 266,-335 0,-223 -172,-351 -472,-351 -83,0 -149,5 -282,19l0 1285 0 0zm149 -668c-32,0 -38,0 -63,6 5,-25 5,-30 5,-60l0 -440c0,-30 0,-35 -5,-60 42,-5 134,-9 182,-9 249,0 394,103 394,273 0,156 -131,290 -286,290l-227 0z"/>
   <path class="fil0" d="M3508 521c-408,0 -699,273 -699,649 0,401 283,679 685,679 409,0 683,-270 683,-671 0,-381 -280,-657 -669,-657l0 0zm-19 80c351,0 596,242 596,589 0,340 -234,576 -577,576 -353,0 -607,-250 -607,-596 0,-338 240,-569 588,-569z"/>
   <path class="fil0" d="M5050 531l-91 0 0 883c0,121 -3,179 -11,217 -23,88 -86,130 -203,130 -74,0 -137,-18 -206,-55l-28 85c71,32 145,49 225,49 223,0 314,-105 314,-365l0 -944z"/>
   <path class="fil0" d="M6401 550l-717 0 0 1270 780 0 20 -77 -651 0c-32,0 -38,0 -63,7 5,-26 5,-31 5,-61l0 -451c0,-29 0,-35 -5,-60 25,6 31,6 63,6l497 0 0 -74 -497 0c-32,0 -38,0 -63,5 5,-25 5,-31 5,-60l0 -377c0,-30 0,-35 -5,-60 25,6 31,6 63,6l568 0 0 -74 0 0z"/>
   <path class="fil0" d="M7987 626c-155,-71 -269,-102 -406,-102 -411,0 -711,275 -711,654 0,387 294,668 705,668 166,0 318,-42 424,-116l-35 -72c-117,72 -240,105 -380,105 -360,0 -622,-247 -622,-585 0,-343 245,-574 611,-574 126,0 214,25 377,99l37 -77 0 0z"/>
   <path class="fil1" d="M8227 550l0 74 461 0c31,0 36,0 63,-6 -6,25 -6,30 -6,60l0 972 91 -74 0 -898c0,-30 0,-35 -5,-60 25,6 31,6 63,6l459 0 0 -74 -1126 0 0 0z"/>
   <polygon class="fil0" points="7969,2277 10074,575 10125,639 8020,2341 "/>
  </g>
 </g>
</svg>
