<?xml version="1.0" encoding="UTF-8"?>
<!DOCTYPE svg PUBLIC "-//W3C//DTD SVG 1.1//EN" "http://www.w3.org/Graphics/SVG/1.1/DTD/svg11.dtd">
<!-- Creator: CorelDRAW X8 -->
<svg xmlns="http://www.w3.org/2000/svg" xml:space="preserve" width="297mm" height="78.962mm" version="1.1" style="shape-rendering:geometricPrecision; text-rendering:geometricPrecision; image-rendering:optimizeQuality; fill-rule:evenodd; clip-rule:evenodd"
viewBox="0 0 29700 7896"
 xmlns:xlink="http://www.w3.org/1999/xlink">
 <defs>
  <style type="text/css">
   <![CDATA[
    .fil0 {fill:#FEFEFE}
    .fil1 {fill:#FEFEFE;fill-rule:nonzero}
   ]]>
  </style>
 </defs>
 <g id="图层_x0020_1">
  <metadata id="CorelCorpID_0Corel-Layer"/>
  <g id="_759822880">
   <path class="fil0" d="M3408 510c-425,-340 -869,-510 -1341,-510 -944,0 -1652,661 -1652,1538 0,737 293,1095 1209,1520 660,302 981,482 1208,680 245,226 396,595 396,981 0,869 -595,1426 -1520,1426 -594,0 -1057,-208 -1576,-708l-132 330c566,482 1038,670 1680,670 1123,0 1879,-698 1879,-1736 0,-803 -312,-1227 -1246,-1681l-538 -254c-793,-387 -1029,-661 -1029,-1218 0,-736 519,-1255 1246,-1255 453,0 868,169 1246,519l170 -302zm4294 1434l-2369 0 0 4371 2577 0 66 -265 -2152 0c-104,0 -123,0 -208,19 19,-85 19,-104 19,-207l0 -1548c0,-104 0,-123 -19,-208 85,19 104,19 208,19l1642 0 0 -255 -1642 0c-104,0 -123,0 -208,19 19,-85 19,-104 19,-208l0 -1293c0,-104 0,-123 -19,-208 85,19 104,19 208,19l1878 0 0 -255zm4842 4437l340 0 -1916 -4531 -283 0 -1907 4531 312 0 717 -1728 2020 0 717 1728zm-1840 -1982c-387,0 -472,0 -821,18 151,-321 198,-434 330,-745l151 -368c236,-567 274,-661 444,-1161l28 0c170,500 208,604 434,1161l151 368c161,368 180,434 331,745 -350,-18 -435,-18 -812,-18l-236 0zm3606 1982l302 0 0 -1850c0,-104 0,-123 -19,-208 85,19 103,19 207,19l812 0 1482 2039 387 0 -1293 -1756c-142,-179 -161,-208 -293,-359l29 -9c623,-274 877,-614 877,-1152 0,-764 -566,-1208 -1557,-1208 -274,0 -491,19 -934,66l0 4418zm490 -2294c-104,0 -122,0 -207,19 19,-85 19,-104 19,-208l0 -1510c0,-104 0,-123 -19,-208 141,-18 443,-28 604,-28 821,0 1302,349 1302,935 0,538 -434,1000 -944,1000l-755 0zm7485 -1878c-509,-246 -887,-350 -1340,-350 -1359,0 -2350,944 -2350,2247 0,1331 972,2294 2331,2294 548,0 1048,-142 1397,-397l-113 -245c-387,245 -793,358 -1255,358 -1190,0 -2058,-849 -2058,-2010 0,-1180 812,-1973 2020,-1973 415,0 708,85 1246,340l122 -264zm2020 1661c-103,0 -122,0 -207,19 19,-85 19,-104 19,-208l0 -1803 -302 0 0 4503 114 0 188 -137 0 -1930c0,-104 0,-123 -19,-208 85,19 104,19 207,19l2558 0c86,0 114,0 168,-11l323 -236 0 -2000 -302 0 0 1803c0,104 0,123 19,208 -85,-19 -104,-19 -208,-19l-2558 0z"/>
   <polygon class="fil1" points="22217,7676 29523,1769 29700,1989 22394,7896 "/>
  </g>
 </g>
</svg>
