<svg version="1.1" xmlns="http://www.w3.org/2000/svg" viewBox="0 0 755.4909878685359 633.6734270368306" width="755.4909878685359" height="633.6734270368306">
  <!-- svg-source:excalidraw -->
  
  <defs>
    <style>
      @font-face {
        font-family: "Virgil";
        src: url("https://excalidraw.com/Virgil.woff2");
      }
      @font-face {
        font-family: "Cascadia";
        src: url("https://excalidraw.com/Cascadia.woff2");
      }
    </style>
  </defs>
  <g transform="translate(240.7928539457772 85.99995422363281) rotate(0 55.5 17.5)"><text x="0" y="24" font-family="Virgil, Segoe UI Emoji" font-size="28px" fill="#000000" text-anchor="start" style="white-space: pre;" direction="ltr">abcdcba</text></g><g transform="translate(479.86444818405846 87.78565979003906) rotate(0 55.5 17.5)"><text x="0" y="24" font-family="Virgil, Segoe UI Emoji" font-size="28px" fill="#000000" text-anchor="start" style="white-space: pre;" direction="ltr">abcdcba</text></g><g transform="translate(389.93573724655846 88.28562927246094) rotate(0 25.5 17.5)"><text x="0" y="24" font-family="Virgil, Segoe UI Emoji" font-size="28px" fill="#d9480f" text-anchor="start" style="white-space: pre;" direction="ltr">[id]</text></g><g transform="translate(353.9355541410897 88.28562927246094) rotate(0 15.5 17.5)"><text x="0" y="24" font-family="Virgil, Segoe UI Emoji" font-size="28px" fill="#000000" text-anchor="start" style="white-space: pre;" direction="ltr">....</text></g><g transform="translate(445.1496654692147 86.21418762207031) rotate(0 15.5 17.5)"><text x="0" y="24" font-family="Virgil, Segoe UI Emoji" font-size="28px" fill="#000000" text-anchor="start" style="white-space: pre;" direction="ltr">....</text></g><g transform="translate(629.4000927153085 86.96414184570312) rotate(0 24 17.5)"><text x="0" y="24" font-family="Virgil, Segoe UI Emoji" font-size="28px" fill="#d9480f" text-anchor="start" style="white-space: pre;" direction="ltr">[R]</text></g><g transform="translate(593.3999096098397 86.96414184570312) rotate(0 15.5 17.5)"><text x="0" y="24" font-family="Virgil, Segoe UI Emoji" font-size="28px" fill="#000000" text-anchor="start" style="white-space: pre;" direction="ltr">....</text></g><g transform="translate(684.6140209379647 84.8927001953125) rotate(0 15.5 17.5)"><text x="0" y="24" font-family="Virgil, Segoe UI Emoji" font-size="28px" fill="#000000" text-anchor="start" style="white-space: pre;" direction="ltr">....</text></g><g transform="translate(146.9711986723397 85.10714721679688) rotate(0 23 17.5)"><text x="0" y="24" font-family="Virgil, Segoe UI Emoji" font-size="28px" fill="#d9480f" text-anchor="start" style="white-space: pre;" direction="ltr">[L]</text></g><g transform="translate(110.97101556687096 85.10714721679688) rotate(0 15.5 17.5)"><text x="0" y="24" font-family="Virgil, Segoe UI Emoji" font-size="28px" fill="#000000" text-anchor="start" style="white-space: pre;" direction="ltr">....</text></g><g transform="translate(202.18512689499596 83.03570556640625) rotate(0 15.5 17.5)"><text x="0" y="24" font-family="Virgil, Segoe UI Emoji" font-size="28px" fill="#000000" text-anchor="start" style="white-space: pre;" direction="ltr">....</text></g><g stroke-linecap="round"><g transform="translate(295.07819330124596 166.5713653564453) rotate(0 0.07161141913849178 -23.05099947452544)"><path d="M0.06 0.97 C0.26 -6.97, 1.1 -39.18, 1.51 -47.07 M-1.36 0.43 C-1.37 -7.38, -0.13 -37.49, 0.45 -45.64" stroke="#0b7285" stroke-width="1" fill="none"></path></g><g transform="translate(295.07819330124596 166.5713653564453) rotate(0 0.07161141913849178 -23.05099947452544)"><path d="M8.88 -23.56 C4.57 -29.29, 3.48 -37.47, -0.15 -47.63 M6.5 -22.76 C6.68 -27.44, 4.6 -32.86, -0.15 -45.45" stroke="#0b7285" stroke-width="1" fill="none"></path></g><g transform="translate(295.07819330124596 166.5713653564453) rotate(0 0.07161141913849178 -23.05099947452544)"><path d="M-7.13 -24.42 C-6.18 -29.87, -2.02 -37.78, -0.15 -47.63 M-9.51 -23.62 C-5.78 -28.23, -4.29 -33.46, -0.15 -45.45" stroke="#0b7285" stroke-width="1" fill="none"></path></g></g><g stroke-linecap="round"><g transform="translate(536.3697716880707 176.57135009765625) rotate(0 -0.6917898342571789 -28.062515282630898)"><path d="M-0.08 0.73 C-0.04 -8.85, 0.11 -47.56, 0.2 -56.86 M-1.58 0.07 C-1.68 -9.43, -0.89 -46.27, -0.64 -55.77" stroke="#0b7285" stroke-width="1" fill="none"></path></g><g transform="translate(536.3697716880707 176.57135009765625) rotate(0 -0.6917898342571789 -28.062515282630898)"><path d="M9.55 -28.9 C4.08 -36.46, 4.39 -43.37, -1.33 -54.27 M8.49 -28.51 C4.25 -38.41, 2.32 -49.43, -1.64 -55.67" stroke="#0b7285" stroke-width="1" fill="none"></path></g><g transform="translate(536.3697716880707 176.57135009765625) rotate(0 -0.6917898342571789 -28.062515282630898)"><path d="M-9.6 -29.34 C-9.33 -36.75, -3.29 -43.54, -1.33 -54.27 M-10.66 -28.95 C-7.69 -38.55, -2.4 -49.4, -1.64 -55.67" stroke="#0b7285" stroke-width="1" fill="none"></path></g></g><g transform="translate(291.6495433989022 179.14283752441406) rotate(0 5 17.5)"><text x="0" y="24" font-family="Virgil, Segoe UI Emoji" font-size="28px" fill="#0b7285" text-anchor="start" style="white-space: pre;" direction="ltr">j</text></g><g transform="translate(531.7923656645272 177.92845153808594) rotate(0 3.5 17.5)"><text x="0" y="24" font-family="Virgil, Segoe UI Emoji" font-size="28px" fill="#0b7285" text-anchor="start" style="white-space: pre;" direction="ltr">i</text></g><g stroke-linecap="round"><g transform="translate(151.6495433989022 77.4285888671875) rotate(0 12.623075509071327 -12.348690364700758)"><path d="M-0.29 -0.75 C3.88 -5.25, 21.01 -22.03, 25.53 -26.17 M1.76 1.47 C5.71 -2.94, 20.34 -20.59, 24.49 -24.87" stroke="#d9480f" stroke-width="1" fill="none"></path></g></g><g stroke-linecap="round"><g transform="translate(646.6493908110118 82.14283752441395) rotate(270.2827140781179 12.817215371131908 -12.934170556068409)"><path d="M-0.81 0.16 C3.56 -4.2, 22.03 -21.9, 26.44 -26.03 M0.97 -0.8 C5.22 -5, 21.89 -20.4, 25.88 -24.66" stroke="#d9480f" stroke-width="1" fill="none"></path></g></g><g stroke-linecap="round"><g transform="translate(178.50662958054284 52.285736083984375) rotate(0 234.75461053040345 2.6091079923091343)"><path d="M-0.25 1.05 C77.63 1.93, 389.33 4.26, 467.38 4.66 M1.81 0.56 C80.1 1.14, 392.18 2.24, 469.76 2.89" stroke="#d9480f" stroke-width="1" fill="none"></path></g></g><g transform="translate(171.64948236374596 10) rotate(0 239 19)"><text x="0" y="28" font-family="Virgil, Segoe UI Emoji" font-size="28px" fill="#d9480f" text-anchor="start" style="white-space: pre;" direction="ltr">已找到的最右最长回文子字符串 [L,R]</text></g><g stroke-linecap="round"><g transform="translate(250.10189819335926 119.56118774414074) rotate(0 -13.821936588187157 28.342440394654034)"><path d="M0.24 -0.04 C-4.2 9.49, -22.61 47.36, -27.39 56.84 M-1.1 -1.11 C-5.55 8.56, -23.17 48.02, -27.88 57.8" stroke="#495057" stroke-width="1" fill="none"></path></g><g transform="translate(250.10189819335926 119.56118774414074) rotate(0 -13.821936588187157 28.342440394654034)"><path d="M-25.45 29.36 C-27.92 34.59, -28.51 43.99, -27.24 58.76 M-24.6 27.86 C-26.77 35.52, -26.59 42.97, -27.02 57.84" stroke="#495057" stroke-width="1" fill="none"></path></g><g transform="translate(250.10189819335926 119.56118774414074) rotate(0 -13.821936588187157 28.342440394654034)"><path d="M-6.82 37.97 C-13.66 41.2, -18.65 48.57, -27.24 58.76 M-5.97 36.46 C-12.74 41.9, -17.23 47.19, -27.02 57.84" stroke="#495057" stroke-width="1" fill="none"></path></g></g><g transform="translate(50.91822160993286 185.35709054129472) rotate(0 92.5 31.5)"><text x="0" y="16" font-family="Cascadia, Segoe UI Emoji" font-size="16px" fill="#495057" text-anchor="start" style="white-space: pre;" direction="ltr">j位置最长回文子字符串</text><text x="0" y="37" font-family="Cascadia, Segoe UI Emoji" font-size="16px" fill="#495057" text-anchor="start" style="white-space: pre;" direction="ltr">左边界位于L右侧（内部）</text><text x="0" y="58" font-family="Cascadia, Segoe UI Emoji" font-size="16px" fill="#495057" text-anchor="start" style="white-space: pre;" direction="ltr">则可以直接返回 p[j]</text></g><g stroke-linecap="round"><g transform="translate(532.6171298758873 230.6597162954364) rotate(179.19861210467786 7.054566202213493 -5.708637696373785)"><path d="M1.16 -0.82 C2.94 -2.77, 9.74 -10.81, 11.63 -12.77 M0.32 1.36 C2.37 -0.3, 11.91 -9.19, 13.79 -11.29" stroke="#0b7285" stroke-width="1" fill="none"></path></g></g><g stroke-linecap="round"><g transform="translate(290.4720112931533 232.11032791687114) rotate(449.48132618279584 5.870007070846384 -5.917182856201691)"><path d="M-0.82 -1.04 C1.45 -3.38, 10.31 -10.83, 12.56 -12.86 M0.94 1.03 C3.15 -0.61, 9.72 -9.21, 11.56 -11.42" stroke="#0b7285" stroke-width="1" fill="none"></path></g></g><g stroke-linecap="round"><g transform="translate(303.5625742711014 230.40049109675692) rotate(179.19861210467786 114.67431596180569 1.1920898997986455)"><path d="M-1.04 -0.1 C37.16 0.37, 191.88 1.54, 230.39 2.02 M0.61 -1.2 C38.54 -0.45, 191.29 3.24, 229.34 3.59" stroke="#0b7285" stroke-width="1" fill="none"></path></g></g><g transform="translate(369.28581455775645 241.48973737444203) rotate(0 51.5 12.5)"><text x="0" y="18" font-family="Virgil, Segoe UI Emoji" font-size="20px" fill="#0b7285" text-anchor="start" style="white-space: pre;" direction="ltr">p[j] = p[i]</text></g><g transform="translate(204.3838711693171 396.35708400181375) rotate(0 55.5 17.5)"><text x="0" y="24" font-family="Virgil, Segoe UI Emoji" font-size="28px" fill="#000000" text-anchor="start" style="white-space: pre;" direction="ltr">abcdcba</text></g><g transform="translate(516.5984097435359 399.85708400181375) rotate(0 55.5 17.5)"><text x="0" y="24" font-family="Virgil, Segoe UI Emoji" font-size="28px" fill="#000000" text-anchor="start" style="white-space: pre;" direction="ltr">abcdcba</text></g><g transform="translate(389.52675447009835 400.3570534842356) rotate(0 25.5 17.5)"><text x="0" y="24" font-family="Virgil, Segoe UI Emoji" font-size="28px" fill="#d9480f" text-anchor="start" style="white-space: pre;" direction="ltr">[id]</text></g><g transform="translate(353.5265713646296 400.3570534842356) rotate(0 15.5 17.5)"><text x="0" y="24" font-family="Virgil, Segoe UI Emoji" font-size="28px" fill="#000000" text-anchor="start" style="white-space: pre;" direction="ltr">....</text></g><g transform="translate(444.7406826927546 398.285611833845) rotate(0 15.5 17.5)"><text x="0" y="24" font-family="Virgil, Segoe UI Emoji" font-size="28px" fill="#000000" text-anchor="start" style="white-space: pre;" direction="ltr">....</text></g><g transform="translate(631.2769986107234 399.0355660574778) rotate(0 24 17.5)"><text x="0" y="24" font-family="Virgil, Segoe UI Emoji" font-size="28px" fill="#d9480f" text-anchor="start" style="white-space: pre;" direction="ltr">[R]</text></g><g transform="translate(686.4909878685359 396.9641244070872) rotate(0 29.5 17.5)"><text x="0" y="24" font-family="Virgil, Segoe UI Emoji" font-size="28px" fill="#000000" text-anchor="start" style="white-space: pre;" direction="ltr">gh....</text></g><g transform="translate(152.2764492943171 395.4642769949778) rotate(0 23 17.5)"><text x="0" y="24" font-family="Virgil, Segoe UI Emoji" font-size="28px" fill="#d9480f" text-anchor="start" style="white-space: pre;" direction="ltr">[L]</text></g><g transform="translate(84.8477383568171 393.7500130789622) rotate(0 30.5 17.5)"><text x="0" y="24" font-family="Virgil, Segoe UI Emoji" font-size="28px" fill="#000000" text-anchor="start" style="white-space: pre;" direction="ltr">....ef</text></g><g stroke-linecap="round"><g transform="translate(258.66921052478585 476.92849513462625) rotate(0 0.3535238459473362 -24.18728878274561)"><path d="M0.22 -0.48 C0.69 -8.57, 1.58 -40.05, 1.83 -47.9 M-1.12 -1.77 C-0.72 -9.81, 0.6 -39.43, 0.94 -46.91" stroke="#0b7285" stroke-width="1" fill="none"></path></g><g transform="translate(258.66921052478585 476.92849513462625) rotate(0 0.3535238459473362 -24.18728878274561)"><path d="M7.16 -24.34 C4.56 -29.42, 3.58 -34.26, 1.7 -47.99 M7.41 -25.21 C6.03 -32.1, 3.69 -40.93, 0.68 -46.61" stroke="#0b7285" stroke-width="1" fill="none"></path></g><g transform="translate(258.66921052478585 476.92849513462625) rotate(0 0.3535238459473362 -24.18728878274561)"><path d="M-8.86 -25.07 C-7.94 -30.02, -5.41 -34.7, 1.7 -47.99 M-8.61 -25.93 C-4.28 -32.57, -0.92 -41.15, 0.68 -46.61" stroke="#0b7285" stroke-width="1" fill="none"></path></g></g><g stroke-linecap="round"><g transform="translate(535.9607889116106 488.64277430943093) rotate(0 0.2134173890025295 -27.940180911868822)"><path d="M-0.48 0.12 C-0.76 -9.25, -1.01 -46.65, -1.05 -56 M1.47 -0.87 C1.5 -10.05, 1.06 -45.5, 1.12 -54.46" stroke="#0b7285" stroke-width="1" fill="none"></path></g><g transform="translate(535.9607889116106 488.64277430943093) rotate(0 0.2134173890025295 -27.940180911868822)"><path d="M11 -29.92 C7.34 -38.69, 3.98 -46.06, 0.03 -53.33 M10.13 -27.46 C7.61 -37.07, 3.16 -47.93, 1.42 -53.86" stroke="#0b7285" stroke-width="1" fill="none"></path></g><g transform="translate(535.9607889116106 488.64277430943093) rotate(0 0.2134173890025295 -27.940180911868822)"><path d="M-8.16 -29.84 C-5.04 -38.57, -1.62 -45.96, 0.03 -53.33 M-9.02 -27.38 C-4.46 -36.91, -1.82 -47.8, 1.42 -53.86" stroke="#0b7285" stroke-width="1" fill="none"></path></g></g><g transform="translate(252.38332185291085 480.35714503697) rotate(0 5 17.5)"><text x="0" y="24" font-family="Virgil, Segoe UI Emoji" font-size="28px" fill="#0b7285" text-anchor="start" style="white-space: pre;" direction="ltr">j</text></g><g transform="translate(531.3833828880671 489.9998757498606) rotate(0 3.5 17.5)"><text x="0" y="24" font-family="Virgil, Segoe UI Emoji" font-size="28px" fill="#0b7285" text-anchor="start" style="white-space: pre;" direction="ltr">i</text></g><g stroke-linecap="round"><g transform="translate(191.81194125980983 385.6143776060105) rotate(0 10.210535604472113 -10.86201705564423)"><path d="M0 -0.71 C3.63 -4.1, 18.35 -17.97, 21.87 -21.38 M-1.45 1.54 C2.01 -2.13, 17.36 -19.15, 20.95 -23.26" stroke="#d9480f" stroke-width="1" fill="none"></path></g></g><g stroke-linecap="round"><g transform="translate(611.9291790655817 389.49834495431526) rotate(270.2827140781179 10.78736622779428 -11.218291987419605)"><path d="M-0.71 0.05 C3.18 -3.7, 18.41 -18.98, 22.28 -22.48 M1.12 -0.98 C4.98 -4.58, 18.08 -17.63, 21.57 -21.29" stroke="#d9480f" stroke-width="1" fill="none"></path></g></g><g stroke-linecap="round"><g transform="translate(214.46608577439167 364.10806767921054) rotate(0 198.8036724529456 1.8559399217953683)"><path d="M0.05 0.45 C66.15 1.25, 330.28 3.57, 396.63 4.07 M-1.39 -0.36 C65.11 0.15, 332.47 1.44, 399 2.3" stroke="#d9480f" stroke-width="1" fill="none"></path></g></g><g transform="translate(176.3832608177546 314.64289637974343) rotate(0 239 19)"><text x="0" y="28" font-family="Virgil, Segoe UI Emoji" font-size="28px" fill="#d9480f" text-anchor="start" style="white-space: pre;" direction="ltr">已找到的最右最长回文子字符串 [L,R]</text></g><g stroke-linecap="round"><g transform="translate(530.4313607402228 537.6794279199835) rotate(179.19861210467786 7.995149765638473 -7.61158596288476)"><path d="M0.84 0.04 C3.25 -2.62, 11.39 -12.93, 13.8 -15.26 M-0.18 -0.99 C2.68 -3.57, 13.64 -11.63, 16.17 -14.15" stroke="#0b7285" stroke-width="1" fill="none"></path></g></g><g stroke-linecap="round"><g transform="translate(254.076331229836 539.5574897881534) rotate(449.48132618279584 7.271369221200928 -6.817311861543544)"><path d="M0.04 -0.65 C2.2 -3.06, 11.17 -11.46, 13.65 -13.59 M-1.4 1.62 C1.09 -1.19, 13.31 -12.45, 15.94 -15.25" stroke="#0b7285" stroke-width="1" fill="none"></path></g></g><g stroke-linecap="round"><g transform="translate(268.92794656987314 537.4455078288627) rotate(179.19861210467786 131.67206267515076 0.9609178653939807)"><path d="M-0.65 -0.8 C43.21 -0.36, 219.86 2.31, 264 2.73 M1.2 1.39 C44.91 1.47, 219.71 0.63, 263.51 0.85" stroke="#0b7285" stroke-width="1" fill="none"></path></g></g><g transform="translate(343.80470632055517 550.0325427409559) rotate(0 58.76895482123666 14.264309422630276)"><text x="0" y="19.52861884526053" font-family="Virgil, Segoe UI Emoji" font-size="22.82289507620842px" fill="#0b7285" text-anchor="start" style="white-space: pre;" direction="ltr">p[j] = p[i]</text></g><g transform="translate(318.21441650390625 397.8162187848775) rotate(0 15 17.5)"><text x="0" y="24" font-family="Virgil, Segoe UI Emoji" font-size="28px" fill="#000000" text-anchor="start" style="white-space: pre;" direction="ltr">fe</text></g><g transform="translate(484.21435546875 399.5304827008931) rotate(0 15 17.5)"><text x="0" y="24" font-family="Virgil, Segoe UI Emoji" font-size="28px" fill="#000000" text-anchor="start" style="white-space: pre;" direction="ltr">ef</text></g><g stroke-linecap="round" transform="translate(103.28567504882812 385.0306352887836) rotate(0 24.285720825195312 23.428558349609375)"><path d="M22.29 -0.58 C27.16 -1.36, 35.03 1.22, 39.19 4.28 C43.35 7.34, 46.21 12.85, 47.25 17.8 C48.28 22.75, 47.56 29.31, 45.39 33.96 C43.22 38.61, 38.69 43.61, 34.24 45.7 C29.79 47.79, 23.7 47.97, 18.69 46.5 C13.69 45.03, 7.3 41.18, 4.21 36.89 C1.13 32.61, -0.42 25.69, 0.19 20.78 C0.81 15.88, 4 10.89, 7.91 7.46 C11.82 4.04, 20.97 1.53, 23.65 0.22 C26.32 -1.09, 23.95 -0.68, 23.97 -0.42 M28.67 1.25 C33.42 1.88, 38.89 5.96, 42.16 9.98 C45.43 14.01, 48.3 20.31, 48.29 25.4 C48.27 30.49, 45.38 36.75, 42.06 40.51 C38.74 44.28, 33.43 47.77, 28.38 47.99 C23.34 48.22, 16.13 44.94, 11.79 41.86 C7.45 38.78, 3.78 34.09, 2.33 29.51 C0.89 24.93, 1.14 18.7, 3.1 14.39 C5.05 10.07, 9.69 6.03, 14.07 3.62 C18.45 1.21, 26.95 0.31, 29.38 -0.07 C31.81 -0.45, 28.73 0.84, 28.65 1.36" stroke="#5c940d" stroke-width="1" fill="none"></path></g><g stroke-linecap="round" transform="translate(681.4284820556642 394.74489920479925) rotate(0 24.285720825195312 23.428558349609375)"><path d="M22.9 0.85 C27.94 0.37, 34.55 2.53, 38.82 5.45 C43.08 8.36, 47.29 13.41, 48.48 18.34 C49.66 23.27, 48.42 30.67, 45.93 35.03 C43.44 39.4, 38.26 42.75, 33.53 44.51 C28.79 46.27, 22.54 46.97, 17.54 45.61 C12.54 44.26, 6.33 40.45, 3.55 36.38 C0.77 32.31, 0.17 26.32, 0.86 21.17 C1.56 16.02, 3.68 9.09, 7.71 5.46 C11.75 1.83, 21.58 0.05, 25.07 -0.61 C28.55 -1.27, 28.53 0.97, 28.64 1.5 M13.6 1.8 C17.83 -0.71, 25.44 -1.98, 30.59 -0.77 C35.74 0.45, 41.28 5.01, 44.49 9.08 C47.7 13.16, 50.49 18.81, 49.86 23.7 C49.23 28.58, 44.36 34.69, 40.7 38.38 C37.05 42.07, 32.66 45.16, 27.92 45.85 C23.17 46.55, 16.82 45.15, 12.22 42.56 C7.63 39.96, 1.91 35.3, 0.34 30.31 C-1.22 25.31, 0.84 17, 2.85 12.57 C4.86 8.14, 10.69 5.17, 12.41 3.72 C14.13 2.26, 12.6 3.74, 13.16 3.83" stroke="#5c940d" stroke-width="1" fill="none"></path></g><g stroke-linecap="round"><g transform="translate(127.4371949925229 445.71206876742644) rotate(0 -7.233190846611421 29.77943586599298)"><path d="M-0.82 1.01 C-3.29 10.57, -12.46 47.98, -14.74 57.45 M0.95 0.49 C-1.64 10.27, -12.78 49.85, -15.42 59.06" stroke="#495057" stroke-width="1" fill="none"></path></g><g transform="translate(127.4371949925229 445.71206876742644) rotate(0 -7.233190846611421 29.77943586599298)"><path d="M-15.9 30.37 C-16.65 39.87, -15.32 49.52, -15.74 58.63 M-16.92 29.83 C-16.1 37, -15.72 44.22, -16.19 60.01" stroke="#495057" stroke-width="1" fill="none"></path></g><g transform="translate(127.4371949925229 445.71206876742644) rotate(0 -7.233190846611421 29.77943586599298)"><path d="M3.61 35.89 C-3.16 43.56, -7.84 51.51, -15.74 58.63 M2.59 35.36 C-1.47 41.27, -5.95 47.12, -16.19 60.01" stroke="#495057" stroke-width="1" fill="none"></path></g></g><g transform="translate(10 517.6734270368306) rotate(0 128.5 53)"><text x="0" y="15.2" font-family="Cascadia, Segoe UI Emoji" font-size="16px" fill="#495057" text-anchor="start" style="white-space: pre;" direction="ltr">j位置最长回文子字符串</text><text x="0" y="36.4" font-family="Cascadia, Segoe UI Emoji" font-size="16px" fill="#495057" text-anchor="start" style="white-space: pre;" direction="ltr">左边界位于L左侧（外部）</text><text x="0" y="57.599999999999994" font-family="Cascadia, Segoe UI Emoji" font-size="16px" fill="#495057" text-anchor="start" style="white-space: pre;" direction="ltr">则只有L右侧的部分可以被</text><text x="0" y="78.8" font-family="Cascadia, Segoe UI Emoji" font-size="16px" fill="#495057" text-anchor="start" style="white-space: pre;" direction="ltr">计入i的最长回文子字符串，</text><text x="0" y="100" font-family="Cascadia, Segoe UI Emoji" font-size="16px" fill="#495057" text-anchor="start" style="white-space: pre;" direction="ltr">外部的需要用中心扩展法进行检验。</text></g></svg>