<?xml version="1.0" encoding="UTF-8"?>
<!DOCTYPE svg PUBLIC "-//W3C//DTD SVG 1.1//EN" "http://www.w3.org/Graphics/SVG/1.1/DTD/svg11.dtd">
<!-- Creator: CorelDRAW X8 -->
<svg xmlns="http://www.w3.org/2000/svg" xml:space="preserve" width="297mm" height="210mm" version="1.1" style="shape-rendering:geometricPrecision; text-rendering:geometricPrecision; image-rendering:optimizeQuality; fill-rule:evenodd; clip-rule:evenodd"
viewBox="0 0 29700 21000"
 xmlns:xlink="http://www.w3.org/1999/xlink">
 <defs>
  <style type="text/css">
   <![CDATA[
    .str0 {stroke:#B6B6B7;stroke-width:50}
    .str1 {stroke:#332C2B;stroke-width:50}
    .str2 {stroke:#C14E61;stroke-width:23.82}
    .fil0 {fill:none}
    .fil4 {fill:#F4B3B3}
    .fil5 {fill:#D5EAD8}
    .fil6 {fill:#D2CDE6}
    .fil7 {fill:#404080}
    .fil8 {fill:firebrick}
    .fil9 {fill:#B300B3}
    .fil10 {fill:#C14E61}
    .fil3 {fill:#B6B6B7;fill-rule:nonzero}
    .fil1 {fill:#332C2B;fill-rule:nonzero}
    .fil2 {fill:#009B4C;fill-rule:nonzero}
   ]]>
  </style>
   <clipPath id="id0">
    <rect x="5265" y="11820" width="12206" height="975"/>
   </clipPath>
 </defs>
 <g id="图层_x0020_1">
  <metadata id="CorelCorpID_0Corel-Layer"/>
  <polyline class="fil0 str0" points="5568,9276 5568,9676 8946,9676 8946,9276 "/>
  <path class="fil1" d="M5472 10366c42,-22 78,-44 105,-68 11,10 21,19 28,27 8,9 11,14 11,15 0,3 -2,4 -7,5 -8,0 -16,2 -22,4l-41 12c-21,6 -46,12 -74,19l0 42c0,4 1,7 3,9 2,2 8,3 20,4 12,1 25,1 39,1 35,0 56,-3 63,-8 7,-6 14,-32 21,-77l10 0c-1,30 0,50 2,61 3,10 7,17 13,21 5,3 8,6 8,7 0,2 -1,5 -5,10 -3,4 -6,8 -10,11 -5,4 -9,6 -15,7 -5,1 -16,2 -32,2 -16,1 -35,1 -57,1 -22,0 -41,-1 -59,-2 -17,-2 -28,-5 -33,-10 -5,-4 -7,-12 -7,-24l0 -121c0,-17 -1,-30 -2,-41 22,5 36,10 43,12 7,3 11,5 11,7 0,2 -5,7 -13,13l0 61zm-154 36l-51 0c-8,0 -14,1 -20,2l-7 -19c6,1 14,2 22,2l56 0 0 -65c0,-17 0,-34 -1,-49 22,6 36,11 43,14 7,3 10,5 10,8 0,2 -5,6 -14,11l0 81 14 0 15 -21c2,-3 5,-5 7,-5 2,0 9,5 21,16 12,12 18,18 18,21 0,3 -3,4 -8,4l-67 0 0 75 71 -22 3 10 -74 35 0 139c0,12 -1,20 -4,25 -3,5 -10,11 -23,17 -13,7 -20,10 -23,10 -3,0 -5,-3 -6,-9 0,-10 -4,-18 -11,-24 -8,-6 -22,-11 -43,-17l1 -12c27,5 45,7 53,7 8,0 13,-1 15,-3 2,-2 3,-5 3,-11l0 -103c-24,12 -42,22 -53,31 -2,2 -4,3 -6,3 -1,0 -2,0 -3,-1 -1,-1 -4,-6 -9,-16 -4,-10 -9,-19 -12,-27 33,-8 61,-15 83,-21l0 -86zm153 100l89 0 12 -17c2,-3 4,-5 6,-5 3,0 8,2 18,7 9,5 17,10 23,14 6,4 10,7 10,8 0,3 -6,8 -18,14l0 139c0,5 0,8 0,11l1 7c0,1 -2,3 -5,5 -4,2 -10,4 -18,6 -9,3 -15,4 -18,4 -1,0 -2,-1 -2,-4l0 -36 -104 0 0 22c0,3 0,5 -1,7 -1,1 -7,3 -17,6 -11,3 -17,4 -19,4 -2,0 -3,-1 -3,-3 1,-9 2,-18 2,-28l0 -148c0,-10 0,-21 -1,-31 20,7 35,13 45,18zm98 64l0 -49 -104 0 0 49 104 0zm0 73l0 -58 -104 0 0 58 104 0z"/>
  <path id="1" class="fil1" d="M5871 10384l39 0 14 -20c2,-3 5,-5 8,-5 3,0 9,5 19,16 10,10 15,16 15,19 0,2 -2,3 -8,3l-87 0 0 8c19,5 35,10 48,15 14,6 21,13 21,22 0,6 -2,13 -5,20 -2,8 -5,11 -8,11 -4,0 -6,-1 -8,-2 -1,-2 -4,-6 -7,-11 -4,-5 -9,-12 -17,-21 -9,-9 -16,-16 -24,-21 1,22 1,36 1,42 0,6 0,10 -1,11 0,2 -4,4 -12,7 -8,3 -14,4 -18,5 15,6 23,11 23,15 0,3 -1,4 -4,5 -4,0 -6,1 -8,3 -2,2 -5,6 -9,13l46 0 11 -14c3,-2 5,-4 7,-4 2,0 9,5 21,14 12,10 18,16 18,18 0,3 -2,5 -8,6 -5,1 -9,2 -12,4 -2,2 -5,6 -8,11 -10,18 -19,33 -29,45 19,5 30,11 35,19 4,8 6,15 6,21 0,7 0,11 -2,15 -2,3 -4,5 -6,5 -3,0 -9,-4 -21,-12 -11,-7 -24,-15 -38,-23 -29,26 -74,48 -134,67l-4 -8c48,-24 84,-48 110,-72 -21,-9 -46,-17 -74,-24 16,-23 28,-41 35,-53l-46 0c-8,0 -14,0 -19,2l-8 -19c5,1 13,2 23,2l58 0c8,-19 14,-33 17,-43 6,2 11,3 13,4 1,-25 1,-47 1,-64 -22,36 -60,66 -114,90l-2 -7c39,-29 70,-63 92,-102l-68 0c-6,0 -10,1 -14,3l-6 -19c5,2 11,3 17,3l95 0 0 -58c0,-26 0,-43 0,-52 33,7 50,13 50,16 0,2 -4,6 -14,11l0 83zm-38 150l-30 46c23,4 40,8 50,10 13,-16 25,-34 35,-56l-55 0zm176 -146l63 0 19 -23c3,-3 6,-5 9,-5 3,0 11,6 23,17 13,12 19,19 19,22 0,2 -3,3 -11,3l-71 0c28,7 42,13 42,19 0,2 -2,3 -7,5 -4,1 -8,3 -10,7 -2,3 -3,8 -4,14 -12,65 -26,111 -42,137 24,33 61,61 110,82l-4 10c-8,-3 -15,-4 -22,-4 -13,0 -25,4 -35,13 -2,2 -4,3 -6,3 -3,0 -13,-10 -30,-29 -17,-20 -29,-35 -35,-46 -15,19 -34,36 -56,49 -22,13 -50,26 -84,39l-4 -9c58,-33 101,-70 128,-110 -13,-29 -21,-72 -24,-128 -11,19 -24,39 -40,61l-7 -5c34,-67 56,-145 63,-236 11,2 22,5 33,8 10,4 17,6 20,8 3,2 5,4 5,6 0,2 -3,4 -8,5 -5,2 -9,4 -11,8 -3,4 -5,14 -8,29 -3,16 -8,32 -15,50zm38 14l-44 0 -13 28c4,52 13,92 28,121 13,-30 22,-80 29,-149zm-125 -108c7,3 16,7 25,12 9,5 14,8 15,10 1,1 2,3 2,5 0,1 0,3 -2,3 -1,1 -4,1 -9,1 -5,0 -11,3 -16,9 -17,17 -36,32 -56,46l-5 -7c21,-29 36,-56 46,-79zm-174 6c24,9 41,16 49,22 9,6 13,13 13,21 0,9 -2,16 -5,22 -4,7 -8,10 -12,10 -4,0 -7,-1 -9,-3 -2,-2 -4,-6 -6,-12 -2,-7 -6,-16 -13,-26 -7,-11 -14,-20 -22,-28l5 -6z"/>
  <path id="2" class="fil1" d="M6427 10269c25,10 44,20 56,30 13,10 20,20 20,30 0,10 -3,18 -9,25 -6,6 -11,10 -16,10 -2,0 -4,-1 -5,-3 -2,-2 -3,-7 -5,-14 -2,-7 -7,-18 -17,-33 -9,-16 -19,-29 -29,-40l5 -5zm-153 166c-23,32 -47,59 -72,84l-5 -7c52,-67 91,-146 117,-239 35,20 53,32 53,36 0,3 -4,5 -10,5 -5,1 -9,4 -12,9 -4,5 -11,15 -20,32 -9,16 -18,31 -28,45 19,5 28,9 28,11 0,3 -4,6 -13,10l0 249c0,3 -1,6 -4,8 -2,2 -8,5 -17,8 -8,4 -14,5 -17,5 -2,0 -2,-1 -2,-4l0 -29c1,-22 2,-40 2,-53l0 -170zm275 -60l19 -31c2,-3 4,-5 6,-5 3,0 11,7 26,20 15,14 22,22 22,26 0,2 -4,3 -12,3l-242 0c-8,0 -14,1 -19,3l-8 -18c6,1 14,2 23,2l185 0zm-56 270l61 0 15 -29c4,-7 7,-10 10,-10 3,0 6,1 10,3 3,3 9,9 19,18 9,10 16,17 18,20 3,4 4,6 4,8 0,2 -3,3 -9,3l-270 0c-8,0 -14,1 -19,3l-8 -19c6,2 14,3 23,3l126 0c18,-76 33,-156 45,-241 20,8 35,14 45,19 9,5 14,9 14,12 0,3 -3,5 -9,6 -3,1 -5,2 -7,6 -2,3 -10,26 -25,68l-43 130zm-116 -220c45,63 68,109 68,137 0,10 -3,20 -8,28 -5,9 -13,13 -22,13 -4,0 -7,-2 -8,-5 -2,-3 -3,-11 -3,-25 -1,-15 -4,-36 -11,-66 -6,-30 -14,-55 -23,-77l7 -5z"/>
  <path id="3" class="fil1" d="M6782 10431c8,0 14,3 20,9 6,6 9,13 9,20 0,8 -3,15 -9,21 -6,6 -12,9 -20,9 -8,0 -15,-3 -21,-9 -5,-6 -8,-13 -8,-21 0,-7 3,-14 8,-20 6,-6 13,-9 21,-9zm0 137c8,0 14,3 20,9 6,6 9,12 9,20 0,8 -3,15 -9,21 -6,6 -12,8 -20,8 -8,0 -15,-2 -21,-8 -5,-6 -8,-13 -8,-21 0,-8 3,-14 8,-20 6,-6 13,-9 21,-9z"/>
  <path id="4" class="fil1" d="M7959 10269c25,10 43,20 56,30 13,10 19,20 19,30 0,10 -3,18 -9,25 -6,6 -11,10 -15,10 -3,0 -4,-1 -6,-3 -1,-2 -3,-7 -4,-14 -2,-7 -8,-18 -17,-33 -10,-16 -19,-29 -30,-40l6 -5zm-154 166c-22,32 -46,59 -71,84l-5 -7c52,-67 91,-146 117,-239 35,20 52,32 52,36 0,3 -3,5 -9,5 -5,1 -9,4 -13,9 -4,5 -10,15 -19,32 -9,16 -19,31 -28,45 18,5 27,9 27,11 0,3 -4,6 -12,10l0 249c0,3 -1,6 -4,8 -3,2 -8,5 -17,8 -9,4 -15,5 -18,5 -1,0 -2,-1 -2,-4l1 -29c1,-22 1,-40 1,-53l0 -170zm276 -60l19 -31c1,-3 3,-5 5,-5 3,0 12,7 27,20 14,14 22,22 22,26 0,2 -4,3 -12,3l-242 0c-8,0 -15,1 -19,3l-8 -18c6,1 14,2 22,2l186 0zm-56 270l61 0 15 -29c3,-7 7,-10 10,-10 3,0 6,1 9,3 3,3 10,9 19,18 10,10 16,17 19,20 3,4 4,6 4,8 0,2 -3,3 -9,3l-270 0c-8,0 -15,1 -19,3l-9 -19c7,2 14,3 23,3l127 0c18,-76 33,-156 45,-241 20,8 35,14 44,19 10,5 15,9 15,12 0,3 -3,5 -9,6 -3,1 -5,2 -7,6 -2,3 -11,26 -25,68l-43 130zm-116 -220c45,63 67,109 67,137 0,10 -2,20 -7,28 -5,9 -13,13 -23,13 -4,0 -6,-2 -8,-5 -1,-3 -2,-11 -3,-25 0,-15 -4,-36 -10,-66 -7,-30 -14,-55 -23,-77l7 -5z"/>
  <path id="5" class="fil1" d="M8270 10681c17,-14 28,-26 33,-36 4,-10 7,-17 7,-20 0,-3 -2,-5 -5,-6 -9,-1 -16,-6 -21,-13 -6,-7 -9,-15 -9,-25 0,-9 4,-18 11,-25 8,-8 17,-11 28,-11 11,0 21,5 29,15 7,10 11,23 11,39 0,16 -6,33 -18,52 -12,18 -29,33 -51,45l-15 -15z"/>
  <path id="6" class="fil1" d="M8772 10459c-21,30 -45,60 -73,89l-8 -7c24,-30 46,-71 68,-122 22,-51 36,-98 43,-140 16,5 29,11 40,16 11,5 17,8 18,10 2,1 2,3 2,4 0,2 -2,4 -7,5 -4,2 -8,4 -11,8 -3,4 -7,13 -14,29 -7,15 -15,33 -25,52 11,2 16,4 16,6 0,2 -4,6 -11,10l0 255c0,3 0,5 -1,6 -1,1 -5,2 -10,5 -6,2 -12,5 -18,6 -5,2 -9,3 -10,3 -1,0 -1,-2 -1,-4l0 -29c1,-20 2,-38 2,-53l0 -149zm142 -11l-59 2c-7,1 -13,3 -19,6l-11 -23c8,1 16,1 25,1l63 -4 -9 -149c11,2 23,5 37,9 14,4 22,6 25,7 2,1 3,2 3,4 0,3 -6,8 -18,14 -1,22 -1,43 -1,61 0,19 0,37 1,53l84 -4 24 -31c2,-4 4,-5 7,-5 2,0 7,3 14,10l23 19c8,7 12,12 12,15 0,4 -3,5 -9,6l-154 7c4,39 11,71 21,96 11,25 27,47 47,64 20,17 34,25 42,25 6,0 10,-4 13,-12 4,-8 10,-31 18,-69l11 2c-4,26 -5,45 -5,57 0,11 1,21 3,30 2,9 6,20 13,33 2,4 3,7 3,10 0,6 -5,9 -15,9 -16,0 -36,-5 -60,-16 -24,-12 -45,-27 -63,-48 -19,-20 -34,-45 -44,-73 -11,-29 -18,-64 -22,-106zm63 -137c31,11 52,19 63,26 11,8 16,15 16,23 0,9 -2,16 -7,24 -4,7 -10,11 -16,11 -3,0 -5,-1 -7,-3 -1,-1 -3,-6 -7,-12 -10,-21 -25,-41 -47,-61l5 -8z"/>
  <path id="7" class="fil1" d="M9470 10561c29,-23 52,-45 69,-66 11,9 19,18 25,25 6,7 9,12 9,14 0,2 -1,3 -2,3 -1,1 -4,1 -7,1 -4,0 -9,1 -15,3 -5,2 -28,12 -69,30 35,31 77,53 128,68l0 11c-26,-1 -44,7 -54,23 -2,3 -4,5 -7,5 -5,0 -20,-11 -46,-32 -26,-20 -46,-43 -60,-66 -15,-24 -28,-55 -39,-92l-2 0c-15,20 -30,38 -45,54l0 99 87 -36 4 8c-33,21 -56,37 -69,46 -13,10 -26,22 -39,36 -2,3 -4,4 -5,4 -4,0 -14,-13 -30,-40 7,-4 11,-8 13,-11 1,-4 2,-9 2,-17l0 -53c-36,31 -82,59 -137,82l-4 -8c70,-39 127,-94 173,-164l-130 0c-8,0 -13,1 -17,3l-8 -20c6,1 13,2 21,2l162 0 0 -48 -106 0c-8,0 -15,0 -19,2l-8 -19c7,2 14,2 23,2l110 0 0 -45 -137 0c-8,0 -14,1 -19,3l-8 -20c7,2 14,2 23,2l141 0 0 -33c0,-21 -1,-36 -3,-45 14,2 26,4 35,7 9,2 15,5 19,6 4,2 6,4 6,7 0,2 -5,5 -14,10l0 48 101 0 20 -27c3,-4 6,-5 9,-5 2,0 7,3 13,9l21 19c7,7 11,11 11,14 0,3 -5,5 -13,5l-162 0 0 45 72 0 17 -22c3,-5 6,-7 9,-7 3,0 10,5 21,16 12,11 17,18 17,23 0,3 -2,5 -7,5l-129 0 0 48 123 0 18 -26c3,-5 7,-7 10,-7 3,0 11,6 22,19 12,13 18,21 18,24 0,3 -3,5 -9,5l-185 0c13,27 30,51 52,73z"/>
  <path id="8" class="fil1" d="M9906 10366c43,-22 78,-44 106,-68 11,10 20,19 28,27 7,9 11,14 11,15 0,3 -2,4 -7,5 -8,0 -16,2 -23,4l-40 12c-21,6 -46,12 -75,19l0 42c0,4 1,7 3,9 2,2 9,3 21,4 11,1 25,1 39,1 35,0 56,-3 63,-8 7,-6 14,-32 21,-77l10 0c-1,30 0,50 2,61 3,10 7,17 12,21 6,3 9,6 9,7 0,2 -2,5 -5,10 -3,4 -7,8 -11,11 -4,4 -8,6 -14,7 -5,1 -16,2 -32,2 -17,1 -36,1 -57,1 -22,0 -42,-1 -59,-2 -17,-2 -29,-5 -33,-10 -5,-4 -8,-12 -8,-24l0 -121c0,-17 0,-30 -1,-41 22,5 36,10 43,12 7,3 11,5 11,7 0,2 -5,7 -14,13l0 61zm-153 36l-51 0c-8,0 -14,1 -20,2l-8 -19c7,1 14,2 23,2l56 0 0 -65c0,-17 -1,-34 -1,-49 22,6 36,11 43,14 6,3 10,5 10,8 0,2 -5,6 -14,11l0 81 14 0 15 -21c2,-3 4,-5 7,-5 2,0 9,5 21,16 12,12 18,18 18,21 0,3 -3,4 -9,4l-66 0 0 75 70 -22 4 10 -74 35 0 139c0,12 -1,20 -4,25 -3,5 -11,11 -23,17 -13,7 -21,10 -24,10 -3,0 -4,-3 -5,-9 -1,-10 -5,-18 -12,-24 -7,-6 -21,-11 -42,-17l0 -12c28,5 46,7 54,7 8,0 13,-1 15,-3 2,-2 3,-5 3,-11l0 -103c-24,12 -42,22 -53,31 -2,2 -4,3 -6,3 -1,0 -3,0 -3,-1 -1,-1 -4,-6 -9,-16 -5,-10 -9,-19 -13,-27 34,-8 62,-15 84,-21l0 -86zm152 100l90 0 12 -17c2,-3 4,-5 6,-5 2,0 8,2 17,7 10,5 17,10 24,14 6,4 9,7 9,8 0,3 -6,8 -17,14l0 139c0,5 0,8 0,11l0 7c0,1 -1,3 -5,5 -3,2 -9,4 -17,6 -9,3 -15,4 -18,4 -2,0 -2,-1 -2,-4l0 -36 -104 0 0 22c0,3 0,5 -1,7 -1,1 -7,3 -17,6 -11,3 -17,4 -19,4 -2,0 -3,-1 -3,-3 1,-9 2,-18 2,-28l0 -148c0,-10 -1,-21 -2,-31 20,7 35,13 45,18zm99 64l0 -49 -104 0 0 49 104 0zm0 73l0 -58 -104 0 0 58 104 0z"/>
  <path id="9" class="fil1" d="M10306 10384l39 0 14 -20c2,-3 5,-5 8,-5 3,0 9,5 19,16 10,10 15,16 15,19 0,2 -3,3 -8,3l-87 0 0 8c19,5 35,10 48,15 14,6 20,13 20,22 0,6 -1,13 -4,20 -2,8 -5,11 -9,11 -3,0 -5,-1 -7,-2 -2,-2 -4,-6 -7,-11 -4,-5 -9,-12 -18,-21 -8,-9 -16,-16 -23,-21 1,22 1,36 1,42 0,6 0,10 -1,11 0,2 -5,4 -12,7 -8,3 -14,4 -18,5 15,6 23,11 23,15 0,3 -2,4 -5,5 -3,0 -5,1 -7,3 -3,2 -6,6 -10,13l46 0 12 -14c3,-2 5,-4 7,-4 1,0 8,5 21,14 12,10 18,16 18,18 0,3 -2,5 -8,6 -5,1 -9,2 -12,4 -3,2 -5,6 -8,11 -10,18 -20,33 -30,45 20,5 31,11 36,19 4,8 6,15 6,21 0,7 -1,11 -2,15 -2,3 -4,5 -7,5 -2,0 -9,-4 -20,-12 -11,-7 -24,-15 -38,-23 -29,26 -74,48 -135,67l-3 -8c47,-24 84,-48 109,-72 -20,-9 -45,-17 -73,-24 16,-23 28,-41 35,-53l-46 0c-8,0 -14,0 -19,2l-8 -19c5,1 12,2 23,2l57 0c9,-19 15,-33 18,-43 6,2 10,3 13,4 1,-25 1,-47 1,-64 -22,36 -60,66 -114,90l-3 -7c40,-29 71,-63 93,-102l-68 0c-6,0 -11,1 -14,3l-7 -19c6,2 12,3 18,3l95 0 0 -58c0,-26 0,-43 -1,-52 34,7 51,13 51,16 0,2 -4,6 -14,11l0 83zm-38 150l-31 46c24,4 40,8 51,10 13,-16 25,-34 35,-56l-55 0zm175 -146l64 0 19 -23c3,-3 6,-5 9,-5 3,0 10,6 23,17 13,12 19,19 19,22 0,2 -3,3 -11,3l-71 0c28,7 42,13 42,19 0,2 -3,3 -7,5 -5,1 -8,3 -10,7 -2,3 -3,8 -5,14 -11,65 -25,111 -42,137 25,33 62,61 111,82l-4 10c-8,-3 -15,-4 -22,-4 -13,0 -25,4 -35,13 -3,2 -5,3 -6,3 -3,0 -13,-10 -30,-29 -18,-20 -29,-35 -35,-46 -16,19 -34,36 -56,49 -22,13 -50,26 -84,39l-5 -9c59,-33 101,-70 128,-110 -12,-29 -20,-72 -23,-128 -11,19 -24,39 -40,61l-8 -5c35,-67 56,-145 64,-236 11,2 21,5 32,8 11,4 18,6 21,8 3,2 5,4 5,6 0,2 -3,4 -8,5 -5,2 -9,4 -11,8 -3,4 -5,14 -9,29 -3,16 -8,32 -15,50zm39 14l-44 0 -13 28c3,52 13,92 28,121 12,-30 22,-80 29,-149zm-125 -108c7,3 15,7 24,12 9,5 14,8 16,10 1,1 2,3 2,5 0,1 -1,3 -2,3 -1,1 -4,1 -9,1 -6,0 -11,3 -16,9 -17,17 -36,32 -56,46l-5 -7c21,-29 36,-56 46,-79zm-175 6c25,9 42,16 50,22 9,6 13,13 13,21 0,9 -2,16 -6,22 -4,7 -8,10 -12,10 -3,0 -6,-1 -8,-3 -2,-2 -4,-6 -6,-12 -2,-7 -6,-16 -13,-26 -7,-11 -14,-20 -22,-28l4 -6z"/>
  <path id="10" class="fil1" d="M7277 10311l16 0 0 257c0,15 2,24 6,28 3,4 12,6 25,6l22 0 0 19 -146 0 0 -19 24 0c12,0 21,-2 25,-6 5,-4 7,-14 7,-28l0 -212 -56 0 0 -19c30,-4 56,-13 77,-26z"/>
  <path id="11" class="fil1" d="M7588 10311l16 0 0 257c0,15 2,24 6,28 4,4 12,6 25,6l22 0 0 19 -146 0 0 -19 24 0c12,0 21,-2 25,-6 5,-4 7,-14 7,-28l0 -212 -56 0 0 -19c30,-4 56,-13 77,-26z"/>
  <path id="12" class="fil2" d="M10812 10563l14 12c-14,18 -28,31 -42,39 -15,8 -31,12 -49,12 -23,0 -43,-5 -60,-15 -17,-10 -29,-24 -38,-42 -9,-18 -13,-37 -13,-57 0,-31 10,-58 30,-79 20,-21 46,-32 79,-32 28,0 50,8 66,24 17,17 25,40 26,70l-157 0c0,6 0,11 0,16 0,28 6,50 19,67 13,16 31,25 53,25 14,0 27,-4 38,-11 11,-7 23,-17 34,-29zm-28 -89c-6,-35 -23,-52 -52,-52 -16,0 -29,4 -38,13 -10,8 -17,21 -23,39l113 0z"/>
  <path id="13" class="fil2" d="M10865 10406l111 0 0 19c-10,0 -18,1 -22,2 -4,1 -6,3 -6,6 0,4 3,9 9,17l32 40 37 -40c7,-8 10,-13 10,-17 0,-5 -6,-8 -19,-8l-8 0 0 -19 95 0 0 19c-11,0 -21,3 -28,8 -7,4 -14,10 -20,17l-51 53 66 75c9,11 16,17 22,20 5,3 11,4 18,4l0 19 -109 0 0 -19 10 0c12,0 18,-3 18,-8 0,-5 -4,-11 -10,-19l-41 -49 -52 57c-4,4 -6,8 -6,10 0,6 7,9 20,9l9 0 0 19 -94 0 0 -19c9,0 17,-2 23,-5 6,-3 13,-8 21,-16l65 -67 -56 -64c-8,-10 -15,-16 -20,-20 -5,-3 -13,-5 -24,-5l0 -19z"/>
  <path id="14" class="fil2" d="M11154 10438l0 -18c21,0 40,-6 58,-19l18 0 0 37c14,-12 28,-21 40,-27 13,-7 27,-10 43,-10 25,0 47,11 65,32 17,21 26,47 26,79 0,34 -9,61 -28,82 -19,21 -44,32 -74,32 -15,0 -28,-2 -39,-8 -11,-5 -22,-12 -33,-21l0 65c0,10 0,17 2,21 1,4 4,7 9,8 5,1 15,2 28,2l0 18 -115 0 0 -18 10 0c13,0 21,-2 24,-6 3,-4 4,-13 4,-27l0 -222 -38 0zm76 23l0 76c0,21 5,36 16,48 11,11 25,17 44,17 22,0 39,-7 52,-22 13,-14 20,-35 20,-62 0,-26 -6,-48 -17,-65 -12,-16 -26,-25 -42,-25 -22,0 -46,11 -73,33z"/>
  <g>
   <path class="fil3" d="M7076 9984l0 -308 50 0 0 308 -50 0zm156 -21l-131 238 -131 -238 262 0z"/>
  </g>
  <polyline class="fil0 str0" points="8946,9276 8946,9676 24855,9676 24855,9276 "/>
  <g>
   <path class="fil3" d="M17234 9984l0 -308 50 0 0 308 -50 0zm156 -21l-131 238 -131 -238 262 0z"/>
  </g>
  <path class="fil1" d="M15061 10367l219 0 17 -18c2,-2 4,-3 6,-3 2,0 10,4 24,12 13,9 20,14 20,17 0,4 -7,8 -19,13l0 39c0,4 0,8 0,12l1 10c0,2 -1,3 -3,5 -3,2 -8,4 -17,6 -8,3 -14,4 -17,4 -3,0 -4,-2 -4,-4l0 -14 -240 0c-2,73 -6,123 -10,152 -5,29 -13,56 -25,81 -13,26 -30,50 -54,74l-7 -5c16,-25 27,-49 35,-73 7,-23 13,-57 16,-102 3,-46 5,-86 5,-122 0,-36 -1,-72 -1,-109 26,9 43,17 54,25zm227 65l0 -50 -238 0c0,21 -1,38 -2,50l240 0zm-136 86c-46,5 -79,8 -98,7l0 -10c65,-9 137,-28 216,-58 15,13 24,21 29,26 5,5 7,8 7,10 0,2 -2,3 -5,3l-10 -1c-6,0 -19,2 -41,6 -21,4 -41,8 -60,11l0 49 60 -4 15 -26c2,-3 4,-5 7,-5 2,0 10,5 22,16 12,11 19,18 19,21 0,2 -4,3 -12,4l-111 9 0 43 107 -8 16 -27c2,-4 5,-6 8,-6 4,0 9,3 15,8l21 16c7,6 11,10 11,13 0,3 -5,5 -13,5l-165 13 0 46c0,9 1,14 2,17 1,3 7,5 18,6 11,1 24,2 38,2 37,0 60,-1 67,-2 8,-2 13,-7 16,-16 3,-9 6,-28 9,-58l10 0c1,22 3,37 6,45 4,8 9,15 17,19 4,3 6,5 6,7 0,2 -3,7 -7,15 -4,8 -9,14 -15,18 -6,4 -13,7 -21,8 -8,2 -24,2 -46,2 -23,0 -46,-1 -70,-2 -23,-1 -39,-3 -48,-5 -9,-3 -14,-7 -17,-13 -2,-6 -3,-17 -3,-33l0 -52 -88 6c-9,1 -15,2 -19,5l-9 -20c10,1 17,1 23,0l93 -6 0 -44 -63 5c-10,1 -16,2 -20,5l-9 -20c10,1 17,1 23,0l69 -4 0 -46z"/>
  <path id="1" class="fil1" d="M15599 10445l39 0 14 -20c2,-3 5,-5 8,-5 3,0 9,5 19,16 10,10 15,16 15,19 0,2 -3,3 -8,3l-87 0 0 9c19,4 35,9 48,14 14,6 20,13 20,22 0,6 -1,13 -4,20 -2,8 -5,11 -9,11 -3,0 -5,0 -7,-2 -1,-2 -4,-5 -7,-11 -4,-5 -9,-12 -18,-21 -8,-9 -16,-16 -23,-21 1,22 1,36 1,42 0,6 0,10 -1,12 0,1 -5,4 -12,6 -8,3 -14,4 -18,5 15,6 23,11 23,15 0,3 -2,4 -5,5 -3,0 -5,1 -7,3 -2,2 -6,6 -9,13l45 0 12 -13c3,-3 5,-4 7,-4 1,0 9,4 21,13 12,10 18,16 18,18 0,3 -2,5 -8,6 -5,1 -9,3 -12,4 -2,2 -5,6 -8,11 -10,18 -20,33 -30,45 20,5 31,11 36,19 4,8 6,15 6,21 0,7 -1,12 -2,15 -2,3 -4,5 -7,5 -2,0 -9,-4 -20,-11 -11,-8 -24,-16 -38,-24 -29,26 -74,48 -135,67l-3 -8c47,-24 84,-48 109,-72 -20,-9 -45,-17 -73,-24 16,-23 28,-40 35,-53l-46 0c-8,0 -14,1 -19,2l-8 -19c5,1 12,2 23,2l57 0c9,-19 15,-33 18,-43 6,2 10,3 13,4 1,-25 1,-47 1,-64 -22,36 -60,66 -114,90l-3 -7c40,-29 71,-63 93,-102l-68 0c-6,0 -10,1 -14,3l-7 -19c6,2 12,3 18,3l95 0 0 -58c0,-26 0,-43 -1,-52 34,7 51,13 51,16 0,2 -4,6 -14,11l0 83zm-38 150l-30 46c23,4 39,8 50,10 13,-16 25,-34 35,-56l-55 0zm176 -146l63 0 19 -22c3,-4 6,-5 9,-5 3,0 10,5 23,17 13,11 19,18 19,21 0,2 -3,3 -11,3l-71 0c28,7 42,14 42,19 0,2 -3,3 -7,5 -5,1 -8,4 -10,7 -2,3 -3,8 -5,14 -11,65 -25,111 -41,137 24,33 61,61 110,83l-4 9c-8,-2 -15,-3 -22,-3 -13,0 -25,4 -35,12 -3,2 -5,3 -6,3 -3,0 -13,-10 -30,-29 -18,-20 -29,-35 -35,-46 -16,20 -34,36 -56,49 -22,13 -50,26 -84,40l-4 -10c58,-33 100,-70 127,-110 -12,-29 -20,-71 -23,-128 -11,19 -24,39 -40,61l-8 -5c35,-67 57,-145 64,-236 11,2 21,5 32,8 11,4 18,6 21,8 3,2 5,4 5,6 0,3 -3,4 -8,5 -5,2 -9,4 -11,8 -3,4 -5,14 -8,29 -3,16 -8,32 -15,50zm38 14l-44 0 -13 28c4,52 13,92 28,121 12,-30 22,-80 29,-149zm-125 -108c7,3 16,8 24,12 9,5 15,8 16,10 1,2 2,3 2,5 0,1 -1,3 -2,3 -1,1 -4,2 -9,2 -6,0 -11,2 -16,8 -17,17 -36,32 -56,46l-5 -7c21,-29 36,-56 46,-79zm-174 6c24,9 41,16 49,22 9,6 13,13 13,22 0,8 -2,15 -6,22 -4,6 -8,9 -11,9 -4,0 -7,-1 -9,-3 -2,-1 -4,-6 -6,-12 -2,-7 -6,-16 -13,-26 -7,-11 -14,-20 -22,-28l5 -6z"/>
  <path id="2" class="fil1" d="M16155 10330c25,10 44,20 56,30 13,10 19,20 19,30 0,10 -3,18 -8,25 -6,6 -12,10 -16,10 -2,0 -4,-1 -5,-3 -2,-2 -3,-7 -5,-14 -2,-7 -8,-18 -17,-33 -9,-15 -19,-29 -30,-40l6 -5zm-153 166c-23,32 -47,60 -72,84l-5 -7c52,-67 91,-146 117,-239 35,20 52,32 52,37 0,2 -3,4 -9,5 -5,0 -9,3 -13,8 -3,5 -10,16 -19,32 -9,16 -18,31 -28,45 19,5 28,9 28,11 0,3 -4,6 -13,10l0 249c0,3 -1,6 -4,8 -3,2 -8,5 -17,8 -8,4 -14,6 -17,6 -2,0 -3,-2 -3,-5l1 -29c1,-22 2,-40 2,-53l0 -170zm275 -60l19 -31c2,-3 4,-5 5,-5 3,0 12,7 27,20 15,14 22,22 22,26 0,2 -4,3 -12,3l-242 0c-8,0 -14,1 -19,3l-8 -18c6,1 14,2 23,2l185 0zm-56 270l61 0 15 -29c4,-7 7,-10 10,-10 3,0 6,1 9,4 3,2 10,8 19,18 10,9 16,16 19,19 3,4 4,6 4,8 0,2 -3,3 -9,3l-270 0c-8,0 -15,1 -19,3l-8 -18c6,1 14,2 22,2l127 0c18,-76 33,-156 45,-241 20,8 35,15 45,20 9,5 14,8 14,11 0,3 -3,5 -9,6 -3,1 -5,3 -7,6 -2,3 -10,26 -25,68l-43 130zm-116 -220c45,63 68,109 68,137 0,10 -3,20 -8,28 -5,9 -13,13 -22,13 -4,0 -7,-2 -9,-5 -1,-3 -2,-11 -3,-25 0,-14 -3,-36 -10,-66 -6,-30 -14,-55 -23,-77l7 -5z"/>
  <path id="3" class="fil1" d="M16510 10493c8,0 14,2 20,8 6,6 9,13 9,21 0,7 -3,14 -9,20 -6,6 -12,9 -20,9 -8,0 -15,-3 -21,-9 -6,-6 -8,-13 -8,-20 0,-8 2,-15 8,-21 6,-6 13,-8 21,-8zm0 136c8,0 14,3 20,9 6,6 9,13 9,20 0,8 -3,15 -9,21 -6,6 -12,9 -20,9 -8,0 -15,-3 -21,-9 -6,-6 -8,-13 -8,-21 0,-7 2,-14 8,-20 6,-6 13,-9 21,-9z"/>
  <path id="4" class="fil1" d="M17687 10330c24,10 43,20 56,30 13,10 19,20 19,30 0,10 -3,18 -9,25 -6,6 -11,10 -16,10 -2,0 -3,-1 -5,-3 -1,-2 -3,-7 -5,-14 -1,-7 -7,-18 -16,-33 -10,-15 -20,-29 -30,-40l6 -5zm-154 166c-22,32 -46,60 -72,84l-5 -7c53,-67 92,-146 118,-239 35,20 52,32 52,37 0,2 -3,4 -9,5 -5,0 -9,3 -13,8 -4,5 -10,16 -19,32 -9,16 -19,31 -28,45 18,5 27,9 27,11 0,3 -4,6 -12,10l0 249c0,3 -1,6 -4,8 -3,2 -9,5 -17,8 -9,4 -15,6 -18,6 -1,0 -2,-2 -2,-5l1 -29c1,-22 1,-40 1,-53l0 -170zm275 -60l20 -31c1,-3 3,-5 5,-5 3,0 12,7 27,20 14,14 22,22 22,26 0,2 -4,3 -12,3l-242 0c-8,0 -15,1 -19,3l-8 -18c6,1 14,2 22,2l185 0zm-56 270l61 0 16 -29c3,-7 6,-10 10,-10 3,0 6,1 9,4 3,2 9,8 19,18 10,9 16,16 19,19 2,4 4,6 4,8 0,2 -3,3 -9,3l-270 0c-9,0 -15,1 -20,3l-8 -18c7,1 14,2 23,2l127 0c18,-76 33,-156 45,-241 20,8 35,15 44,20 10,5 15,8 15,11 0,3 -3,5 -9,6 -3,1 -6,3 -8,6 -2,3 -10,26 -24,68l-44 130zm-115 -220c45,63 67,109 67,137 0,10 -2,20 -7,28 -6,9 -13,13 -23,13 -4,0 -6,-2 -8,-5 -1,-3 -2,-11 -3,-25 0,-14 -4,-36 -10,-66 -7,-30 -15,-55 -23,-77l7 -5z"/>
  <path id="5" class="fil1" d="M17998 10743c17,-15 28,-27 33,-37 4,-10 7,-16 7,-20 0,-3 -2,-5 -5,-6 -9,-1 -16,-5 -22,-12 -5,-7 -8,-16 -8,-25 0,-10 4,-19 11,-26 8,-8 17,-11 28,-11 11,0 20,5 28,15 8,10 12,23 12,39 0,16 -6,34 -18,52 -12,18 -29,34 -51,46l-15 -15z"/>
  <path id="6" class="fil1" d="M18500 10520c-21,30 -46,60 -73,89l-8 -7c23,-30 46,-71 68,-122 21,-51 36,-98 43,-140 15,5 29,11 40,16 11,5 17,8 18,10 1,1 2,3 2,5 0,1 -2,3 -7,4 -5,2 -8,4 -11,8 -3,4 -7,14 -14,29 -7,15 -15,33 -25,52 10,2 16,4 16,6 0,2 -4,6 -11,10l0 255c0,3 -1,5 -2,6 0,1 -4,2 -10,5 -5,3 -11,5 -17,6 -6,2 -9,3 -10,3 -1,0 -2,-1 -2,-4l1 -28c1,-21 2,-39 2,-54l0 -149zm142 -11l-60 3c-6,0 -12,2 -18,5l-11 -23c8,1 16,1 25,1l63 -3 -9 -150c11,3 23,5 37,9 14,4 22,6 24,7 2,1 4,2 4,4 0,3 -6,8 -18,14 -1,22 -2,43 -2,61 0,19 1,37 2,53l84 -4 24 -31c2,-4 4,-5 6,-5 3,0 7,3 15,10l23 19c8,7 12,12 12,15 0,4 -3,5 -9,6l-154 7c4,39 11,71 21,96 11,26 27,47 47,64 20,17 34,26 42,26 5,0 10,-4 13,-12 4,-8 10,-32 18,-70l11 2c-4,27 -5,45 -5,57 0,11 1,21 3,30 2,9 6,20 13,33 2,4 3,7 3,10 0,6 -5,10 -15,10 -16,0 -36,-6 -60,-17 -24,-11 -45,-27 -64,-48 -18,-20 -33,-45 -43,-73 -11,-29 -18,-64 -22,-106zm63 -137c31,11 52,19 63,27 10,7 16,14 16,23 0,8 -2,16 -7,23 -5,7 -10,11 -16,11 -3,0 -5,-1 -7,-2 -1,-2 -4,-6 -7,-13 -10,-21 -26,-41 -47,-61l5 -8z"/>
  <path id="7" class="fil1" d="M19198 10622c28,-23 52,-45 69,-66 11,9 19,18 25,25 6,7 8,12 8,14 0,2 0,3 -1,3 -2,1 -4,1 -8,1 -3,0 -8,1 -14,3 -5,2 -29,12 -69,30 34,31 77,53 128,68l0 11c-26,-1 -44,7 -55,23 -1,3 -4,5 -6,5 -5,0 -21,-10 -46,-31 -26,-21 -46,-44 -61,-67 -14,-24 -27,-55 -38,-92l-2 0c-15,20 -30,38 -45,54l0 99 87 -36 4 8c-33,21 -56,37 -69,47 -13,9 -26,21 -39,35 -2,3 -4,4 -6,4 -4,0 -13,-13 -29,-40 7,-4 11,-8 13,-11 1,-4 2,-9 2,-16l0 -54c-36,31 -82,59 -137,82l-4 -8c70,-39 127,-94 173,-164l-130 0c-8,0 -14,1 -17,3l-8 -20c6,2 13,2 21,2l162 0 0 -48 -106 0c-8,0 -15,1 -19,2l-8 -19c6,2 14,3 23,3l110 0 0 -46 -137 0c-8,0 -14,1 -19,3l-8 -20c6,2 14,3 22,3l142 0 0 -34c0,-21 -1,-36 -3,-45 14,2 26,4 35,7 9,3 15,5 19,7 4,1 6,3 6,6 0,2 -5,6 -14,10l0 49 101 0 20 -28c3,-3 6,-5 8,-5 3,0 8,3 14,9l21 19c7,7 11,12 11,15 0,3 -5,4 -14,4l-161 0 0 46 72 0 17 -23c3,-5 6,-7 9,-7 3,0 10,5 21,16 11,11 17,19 17,23 0,3 -2,5 -7,5l-129 0 0 48 123 0 18 -26c3,-4 7,-7 10,-7 3,0 10,7 22,19 12,13 18,21 18,24 0,3 -3,5 -10,5l-184 0c13,27 30,51 52,73z"/>
  <path id="8" class="fil1" d="M19496 10367l218 0 18 -18c2,-2 4,-3 5,-3 3,0 11,4 24,12 14,9 21,14 21,17 0,4 -7,8 -20,13l0 39c0,4 1,8 1,12l1 10c0,2 -1,3 -4,5 -2,2 -7,4 -16,6 -9,3 -14,4 -17,4 -3,0 -5,-2 -5,-4l0 -14 -239 0c-3,73 -6,123 -11,152 -4,29 -13,56 -25,81 -12,26 -30,50 -53,74l-7 -5c16,-25 27,-49 35,-73 7,-23 12,-57 16,-102 3,-46 4,-86 4,-122 0,-36 0,-72 0,-109 25,9 43,17 54,25zm226 65l0 -50 -237 0c-1,21 -1,38 -2,50l239 0zm-135 86c-47,5 -79,8 -98,7l0 -10c65,-9 137,-28 216,-58 14,13 24,21 29,26 4,5 7,8 7,10 0,2 -2,3 -5,3l-10 -1c-6,0 -20,2 -41,6 -21,4 -41,8 -60,11l0 49 60 -4 15 -26c2,-3 4,-5 7,-5 2,0 9,5 22,16 12,11 18,18 18,21 0,2 -3,3 -11,4l-111 9 0 43 107 -8 15 -27c3,-4 6,-6 9,-6 3,0 8,3 15,8l21 16c7,6 11,10 11,13 0,3 -5,5 -13,5l-165 13 0 46c0,9 0,14 2,17 1,3 7,5 18,6 11,1 23,2 38,2 37,0 60,-1 67,-2 8,-2 13,-7 16,-16 3,-9 6,-28 9,-58l10 0c1,22 3,37 6,45 3,8 9,15 17,19 3,3 5,5 5,7 0,2 -2,7 -6,15 -5,8 -10,14 -15,18 -6,4 -13,7 -21,8 -9,2 -24,2 -47,2 -22,0 -46,-1 -69,-2 -24,-1 -40,-3 -48,-5 -9,-3 -14,-7 -17,-13 -2,-6 -3,-17 -3,-33l0 -52 -88 6c-9,1 -15,2 -19,5l-9 -20c10,1 17,1 22,0l94 -6 0 -44 -64 5c-9,1 -15,2 -19,5l-9 -20c10,1 17,1 22,0l70 -4 0 -46z"/>
  <path id="9" class="fil1" d="M20034 10445l39 0 14 -20c2,-3 4,-5 7,-5 4,0 10,5 20,16 10,10 15,16 15,19 0,2 -3,3 -9,3l-86 0 0 9c18,4 34,9 48,14 13,6 20,13 20,22 0,6 -1,13 -4,20 -3,8 -6,11 -9,11 -3,0 -5,0 -7,-2 -2,-2 -4,-5 -8,-11 -3,-5 -9,-12 -17,-21 -8,-9 -16,-16 -23,-21 1,22 1,36 1,42 0,6 0,10 -1,12 -1,1 -5,4 -13,6 -7,3 -13,4 -17,5 15,6 23,11 23,15 0,3 -2,4 -5,5 -3,0 -5,1 -8,3 -2,2 -5,6 -9,13l46 0 12 -13c3,-3 5,-4 6,-4 2,0 9,4 22,13 12,10 18,16 18,18 0,3 -3,5 -8,6 -5,1 -9,3 -12,4 -3,2 -5,6 -8,11 -10,18 -20,33 -30,45 19,5 31,11 36,19 4,8 6,15 6,21 0,7 -1,12 -3,15 -1,3 -3,5 -6,5 -2,0 -9,-4 -20,-11 -11,-8 -24,-16 -38,-24 -29,26 -74,48 -135,67l-3 -8c47,-24 84,-48 109,-72 -20,-9 -45,-17 -73,-24 16,-23 28,-40 34,-53l-45 0c-8,0 -15,1 -19,2l-8 -19c5,1 12,2 22,2l58 0c9,-19 15,-33 18,-43 6,2 10,3 13,4 1,-25 1,-47 1,-64 -22,36 -60,66 -114,90l-3 -7c40,-29 71,-63 93,-102l-68 0c-6,0 -11,1 -14,3l-7 -19c6,2 12,3 18,3l95 0 0 -58c0,-26 0,-43 -1,-52 34,7 51,13 51,16 0,2 -5,6 -14,11l0 83zm-38 150l-31 46c23,4 40,8 51,10 13,-16 25,-34 35,-56l-55 0zm175 -146l64 0 19 -22c3,-4 6,-5 9,-5 2,0 10,5 23,17 13,11 19,18 19,21 0,2 -4,3 -11,3l-71 0c28,7 42,14 42,19 0,2 -3,3 -7,5 -5,1 -8,4 -10,7 -2,3 -4,8 -5,14 -12,65 -26,111 -42,137 25,33 61,61 111,83l-4 9c-8,-2 -16,-3 -23,-3 -13,0 -24,4 -34,12 -3,2 -5,3 -6,3 -3,0 -13,-10 -30,-29 -18,-20 -29,-35 -35,-46 -16,20 -35,36 -56,49 -22,13 -50,26 -85,40l-4 -10c59,-33 101,-70 128,-110 -13,-29 -20,-71 -24,-128 -10,19 -23,39 -39,61l-8 -5c35,-67 56,-145 64,-236 10,2 21,5 32,8 11,4 18,6 21,8 3,2 5,4 5,6 0,3 -3,4 -8,5 -5,2 -9,4 -11,8 -3,4 -6,14 -9,29 -3,16 -8,32 -15,50zm39 14l-44 0 -13 28c3,52 13,92 27,121 13,-30 23,-80 30,-149zm-126 -108c8,3 16,8 25,12 9,5 14,8 16,10 1,2 2,3 2,5 0,1 -1,3 -2,3 -1,1 -4,2 -10,2 -5,0 -10,2 -16,8 -17,17 -35,32 -55,46l-5 -7c21,-29 36,-56 45,-79zm-174 6c25,9 41,16 50,22 9,6 13,13 13,22 0,8 -2,15 -6,22 -4,6 -8,9 -12,9 -4,0 -7,-1 -8,-3 -2,-1 -4,-6 -6,-12 -2,-7 -6,-16 -13,-26 -7,-11 -14,-20 -22,-28l4 -6z"/>
  <path id="10" class="fil1" d="M16918 10372l138 0c8,0 13,-1 16,-2 2,-1 3,-4 4,-9l16 0 0 47 -153 0 -4 78c17,-4 36,-7 58,-7 37,0 66,10 88,29 22,18 33,43 33,73 0,30 -12,55 -34,75 -23,21 -51,31 -84,31 -29,0 -54,-7 -75,-22 -20,-15 -30,-30 -30,-47 0,-6 2,-12 6,-16 4,-4 9,-6 14,-6 11,0 19,9 26,28 10,28 30,42 60,42 22,0 41,-7 55,-22 14,-15 22,-33 22,-56 0,-24 -9,-43 -25,-58 -16,-14 -39,-21 -66,-21 -27,0 -51,4 -72,13l7 -150z"/>
  <path id="11" class="fil1" d="M17214 10489l-21 3c-2,-8 -2,-15 -2,-23 0,-29 10,-54 31,-73 20,-20 48,-29 81,-29 31,0 56,8 76,26 19,17 29,40 29,69 0,20 -4,38 -12,53 -8,15 -24,33 -48,53 -24,20 -61,47 -112,80l116 0c14,0 24,-1 28,-5 5,-4 8,-11 10,-21l2 -13 19 0 -15 84 -14 0 -2 -11 -195 0 0 -19 36 -27c51,-38 88,-70 111,-95 22,-25 33,-50 33,-77 0,-21 -6,-38 -20,-52 -13,-13 -31,-20 -52,-20 -24,0 -43,8 -58,23 -15,15 -22,35 -22,59 0,5 0,10 1,15z"/>
  <path id="12" class="fil2" d="M20335 10499l0 -18c20,-2 39,-9 57,-19l17 0 0 37c19,-15 35,-25 46,-30 11,-5 23,-7 35,-7 12,0 24,3 35,9 11,5 20,15 26,28 27,-25 55,-37 83,-37 20,0 35,6 46,17 11,11 17,27 17,47l0 103c0,14 2,23 5,27 4,5 12,7 26,7l7 0 0 19 -112 0 0 -19c16,0 25,-2 30,-6 4,-3 7,-13 7,-28l0 -98c0,-15 -3,-26 -9,-32 -6,-7 -15,-10 -28,-10 -11,0 -23,3 -36,10 -13,6 -24,14 -33,24l0 106c0,16 2,25 6,29 4,3 14,5 30,5l0 19 -109 0 0 -19 6 0c12,0 20,-2 24,-7 3,-5 5,-14 5,-27l0 -94c0,-16 -3,-28 -9,-35 -5,-7 -15,-11 -28,-11 -20,0 -43,11 -69,34l0 115c0,9 2,16 6,19 4,4 12,6 22,6l8 0 0 19 -111 0 0 -19 5 0c15,0 24,-2 27,-6 4,-4 6,-13 6,-28l0 -130 -38 0z"/>
  <path id="13" class="fil2" d="M20951 10555l0 -26c0,-31 -17,-46 -53,-46 -15,0 -26,3 -34,9 -7,6 -13,17 -16,33 -1,7 -3,12 -7,15 -3,4 -8,5 -13,5 -6,0 -11,-2 -15,-6 -3,-4 -5,-10 -5,-16 0,-16 9,-30 26,-42 18,-13 41,-19 71,-19 30,0 51,6 65,18 13,12 20,31 20,58l0 87c0,14 1,23 2,27 1,5 4,9 8,12 4,3 9,4 14,4 5,0 13,-2 23,-5l0 20c-11,3 -22,4 -33,4 -29,0 -46,-12 -50,-37 -16,13 -31,22 -46,28 -14,6 -30,9 -46,9 -20,0 -36,-5 -49,-16 -14,-11 -20,-24 -20,-39 0,-20 10,-36 31,-48 20,-12 63,-22 127,-29zm0 20c-53,7 -86,14 -99,23 -12,8 -19,18 -19,30 0,9 4,17 12,24 7,6 16,10 27,10 22,0 48,-11 79,-34l0 -53z"/>
  <path id="14" class="fil2" d="M21085 10499l0 -18c13,-2 23,-3 30,-6 7,-2 16,-7 28,-13l16 0 0 42c16,-14 32,-25 46,-32 14,-6 29,-10 45,-10 11,0 21,2 30,5 8,3 16,8 22,14 6,5 10,12 13,19 3,8 4,19 4,33l0 98c0,11 1,18 2,22 2,4 5,7 10,8 5,1 13,2 26,2l0 19 -114 0 0 -19 6 0c13,0 22,-2 26,-6 4,-4 6,-13 6,-28l0 -81c0,-18 -1,-30 -4,-37 -3,-6 -8,-11 -14,-15 -7,-4 -15,-6 -24,-6 -26,0 -52,12 -79,37l0 102c0,11 1,19 3,23 2,5 5,8 9,9 5,1 11,2 21,2l6 0 0 19 -114 0 0 -19 5 0c10,0 17,-1 22,-2 4,-1 6,-5 8,-10 2,-5 3,-13 3,-25l0 -127 -38 0z"/>
  <path id="15" class="fil2" d="M21472 10392l16 0 0 75 66 0 0 23 -66 0 0 133c0,17 3,28 8,33 6,6 13,8 21,8 15,0 30,-6 47,-18l0 21c-20,13 -39,20 -59,20 -11,0 -21,-3 -31,-8 -9,-5 -15,-11 -18,-18 -3,-7 -5,-19 -5,-35l0 -136 -39 0 0 -19c18,-4 32,-12 41,-24 9,-11 15,-30 19,-55z"/>
  <path id="16" class="fil2" d="M21645 10392c0,-7 2,-13 7,-18 5,-5 11,-7 19,-7 7,0 13,2 18,7 5,5 7,11 7,18 0,7 -2,13 -7,18 -5,5 -11,8 -18,8 -8,0 -14,-3 -19,-8 -5,-5 -7,-11 -7,-18zm-31 107l0 -18c23,-3 43,-9 59,-19l17 0 0 178c0,10 2,17 7,19 5,3 12,4 20,4l10 0 0 19 -113 0 0 -19 9 0c13,0 21,-2 24,-6 4,-4 5,-13 5,-27l0 -131 -38 0z"/>
  <path id="17" class="fil2" d="M21932 10467l15 0 20 68 -20 7c-8,-18 -20,-33 -34,-43 -14,-10 -28,-16 -44,-16 -11,0 -20,3 -27,9 -7,5 -11,12 -11,19 0,9 4,16 13,21 8,5 18,10 29,14l43 15c22,7 38,16 48,26 10,9 15,21 15,36 0,17 -7,32 -23,45 -15,13 -34,19 -58,19 -24,0 -45,-7 -63,-21l-5 16 -16 0 -27 -73 20 -8c27,43 57,64 92,64 12,0 23,-3 32,-10 8,-7 12,-14 12,-23 0,-8 -2,-14 -8,-19 -6,-6 -16,-11 -30,-16l-52 -19c-20,-8 -34,-16 -44,-25 -9,-9 -14,-21 -14,-34 0,-15 7,-29 21,-40 14,-11 32,-17 53,-17 23,0 42,6 57,19l6 -14z"/>
  <path id="18" class="fil2" d="M22197 10467l16 0 20 68 -20 7c-9,-18 -20,-33 -34,-43 -14,-10 -29,-16 -44,-16 -11,0 -20,3 -27,9 -8,5 -11,12 -11,19 0,9 4,16 12,21 9,5 19,10 30,14l43 15c22,7 38,16 48,26 10,9 15,21 15,36 0,17 -8,32 -23,45 -15,13 -35,19 -58,19 -25,0 -46,-7 -64,-21l-4 16 -16 0 -28 -73 20 -8c27,43 58,64 93,64 12,0 22,-3 31,-10 9,-7 13,-14 13,-23 0,-8 -3,-14 -8,-19 -6,-6 -16,-11 -31,-16l-51 -19c-20,-8 -35,-16 -44,-25 -10,-9 -15,-21 -15,-34 0,-15 7,-29 22,-40 14,-11 32,-17 52,-17 23,0 42,6 57,19l6 -14z"/>
  <path id="19" class="fil2" d="M22472 10555l0 -26c0,-31 -18,-46 -53,-46 -15,0 -27,3 -34,9 -8,6 -13,17 -16,33 -1,7 -3,12 -7,15 -4,4 -8,5 -14,5 -6,0 -10,-2 -14,-6 -4,-4 -5,-10 -5,-16 0,-16 8,-30 26,-42 18,-13 41,-19 71,-19 29,0 51,6 64,18 14,12 21,31 21,58l0 87c0,14 0,23 2,27 1,5 4,9 8,12 4,3 9,4 14,4 5,0 13,-2 22,-5l0 20c-11,3 -22,4 -32,4 -29,0 -46,-12 -51,-37 -16,13 -31,22 -45,28 -14,6 -30,9 -47,9 -19,0 -36,-5 -49,-16 -13,-11 -19,-24 -19,-39 0,-20 10,-36 30,-48 21,-12 63,-22 128,-29zm0 20c-53,7 -86,14 -99,23 -13,8 -19,18 -19,30 0,9 4,17 11,24 8,6 17,10 28,10 21,0 48,-11 79,-34l0 -53z"/>
  <g>
   <path class="fil3" d="M5440 8434l0 215 -50 0 0 -215 50 0zm-155 20l130 -237 131 237 -261 0z"/>
  </g>
  <g>
   <rect class="fil4 str1" x="5262" y="8649" width="306" height="779" rx="226" ry="226"/>
   <rect class="fil5 str1" x="5568" y="8649" width="306" height="779" rx="226" ry="226"/>
   <rect class="fil5 str1" x="5875" y="8649" width="306" height="779" rx="226" ry="226"/>
   <rect class="fil5 str1" x="6181" y="8649" width="306" height="779" rx="226" ry="226"/>
   <rect class="fil5 str1" x="6487" y="8649" width="306" height="779" rx="226" ry="226"/>
   <rect class="fil5 str1" x="6793" y="8649" width="306" height="779" rx="226" ry="226"/>
   <rect class="fil5 str1" x="7099" y="8649" width="306" height="779" rx="226" ry="226"/>
   <rect class="fil5 str1" x="7405" y="8649" width="306" height="779" rx="226" ry="226"/>
   <rect class="fil5 str1" x="7711" y="8649" width="306" height="779" rx="226" ry="226"/>
   <rect class="fil5 str1" x="8017" y="8649" width="306" height="779" rx="226" ry="226"/>
   <rect class="fil5 str1" x="8324" y="8649" width="306" height="779" rx="226" ry="226"/>
   <rect class="fil5 str1" x="8630" y="8649" width="306" height="779" rx="226" ry="226"/>
   <rect class="fil6 str1" x="8936" y="8649" width="306" height="779" rx="226" ry="226"/>
   <rect class="fil6 str1" x="9242" y="8649" width="306" height="779" rx="226" ry="226"/>
   <rect class="fil6 str1" x="9548" y="8649" width="306" height="779" rx="226" ry="226"/>
   <rect class="fil6 str1" x="9854" y="8649" width="306" height="779" rx="226" ry="226"/>
   <rect class="fil6 str1" x="10160" y="8649" width="306" height="779" rx="226" ry="226"/>
   <rect class="fil6 str1" x="10466" y="8649" width="306" height="779" rx="226" ry="226"/>
   <rect class="fil6 str1" x="10773" y="8649" width="306" height="779" rx="226" ry="226"/>
   <rect class="fil6 str1" x="11079" y="8649" width="306" height="779" rx="226" ry="226"/>
   <rect class="fil6 str1" x="11385" y="8649" width="306" height="779" rx="226" ry="226"/>
   <rect class="fil6 str1" x="11691" y="8649" width="306" height="779" rx="226" ry="226"/>
   <rect class="fil6 str1" x="11997" y="8649" width="306" height="779" rx="226" ry="226"/>
   <rect class="fil6 str1" x="12303" y="8649" width="306" height="779" rx="226" ry="226"/>
   <rect class="fil6 str1" x="12609" y="8649" width="306" height="779" rx="226" ry="226"/>
   <rect class="fil6 str1" x="12916" y="8649" width="306" height="779" rx="226" ry="226"/>
   <rect class="fil6 str1" x="13222" y="8649" width="306" height="779" rx="226" ry="226"/>
   <rect class="fil6 str1" x="13528" y="8649" width="306" height="779" rx="226" ry="226"/>
   <rect class="fil6 str1" x="13834" y="8649" width="306" height="779" rx="226" ry="226"/>
   <rect class="fil6 str1" x="14140" y="8649" width="306" height="779" rx="226" ry="226"/>
   <rect class="fil6 str1" x="14446" y="8649" width="306" height="779" rx="226" ry="226"/>
   <rect class="fil6 str1" x="14752" y="8649" width="306" height="779" rx="226" ry="226"/>
   <rect class="fil6 str1" x="15058" y="8649" width="306" height="779" rx="226" ry="226"/>
   <rect class="fil6 str1" x="15365" y="8649" width="306" height="779" rx="226" ry="226"/>
   <rect class="fil6 str1" x="15671" y="8649" width="306" height="779" rx="226" ry="226"/>
   <rect class="fil6 str1" x="15977" y="8649" width="306" height="779" rx="226" ry="226"/>
   <rect class="fil6 str1" x="16283" y="8649" width="306" height="779" rx="226" ry="226"/>
   <rect class="fil6 str1" x="16589" y="8649" width="306" height="779" rx="226" ry="226"/>
   <rect class="fil6 str1" x="16895" y="8649" width="306" height="779" rx="226" ry="226"/>
   <rect class="fil6 str1" x="17201" y="8649" width="306" height="779" rx="226" ry="226"/>
   <rect class="fil6 str1" x="17507" y="8649" width="306" height="779" rx="226" ry="226"/>
   <rect class="fil6 str1" x="17814" y="8649" width="306" height="779" rx="226" ry="226"/>
   <rect class="fil6 str1" x="18120" y="8649" width="306" height="779" rx="226" ry="226"/>
   <rect class="fil6 str1" x="18426" y="8649" width="306" height="779" rx="226" ry="226"/>
   <rect class="fil6 str1" x="18732" y="8649" width="306" height="779" rx="226" ry="226"/>
   <rect class="fil6 str1" x="19038" y="8649" width="306" height="779" rx="226" ry="226"/>
   <rect class="fil6 str1" x="19344" y="8649" width="306" height="779" rx="226" ry="226"/>
   <rect class="fil6 str1" x="19650" y="8649" width="306" height="779" rx="226" ry="226"/>
   <rect class="fil6 str1" x="19956" y="8649" width="306" height="779" rx="226" ry="226"/>
   <rect class="fil6 str1" x="20263" y="8649" width="306" height="779" rx="226" ry="226"/>
   <rect class="fil6 str1" x="20569" y="8649" width="306" height="779" rx="226" ry="226"/>
   <rect class="fil6 str1" x="20875" y="8649" width="306" height="779" rx="226" ry="226"/>
   <rect class="fil6 str1" x="21181" y="8649" width="306" height="779" rx="226" ry="226"/>
   <rect class="fil6 str1" x="21487" y="8649" width="306" height="779" rx="226" ry="226"/>
   <rect class="fil6 str1" x="21793" y="8649" width="306" height="779" rx="226" ry="226"/>
   <rect class="fil6 str1" x="22099" y="8649" width="306" height="779" rx="226" ry="226"/>
   <rect class="fil6 str1" x="22405" y="8649" width="306" height="779" rx="226" ry="226"/>
   <rect class="fil6 str1" x="22712" y="8649" width="306" height="779" rx="226" ry="226"/>
   <rect class="fil6 str1" x="23018" y="8649" width="306" height="779" rx="226" ry="226"/>
   <rect class="fil6 str1" x="23324" y="8649" width="306" height="779" rx="226" ry="226"/>
   <rect class="fil6 str1" x="23630" y="8649" width="306" height="779" rx="226" ry="226"/>
   <rect class="fil6 str1" x="23936" y="8649" width="306" height="779" rx="226" ry="226"/>
   <rect class="fil6 str1" x="24242" y="8649" width="306" height="779" rx="226" ry="226"/>
   <rect class="fil6 str1" x="24548" y="8649" width="306" height="779" rx="226" ry="226"/>
  </g>
  <path class="fil1" d="M5337 7752l58 0 19 -26c2,-3 3,-4 5,-4 2,0 9,6 21,16 12,11 18,18 18,22 0,4 -3,5 -7,5l-87 0c12,7 22,12 29,18 8,6 11,12 11,19 0,7 -2,13 -7,20 -5,6 -11,9 -17,9 -7,0 -11,-5 -12,-14 -3,-21 -9,-38 -20,-52l-20 0c-20,34 -49,68 -88,103l-6 -6c43,-64 73,-124 89,-178 12,4 23,8 32,13 10,5 16,8 17,9 2,1 2,3 2,4 0,2 -3,4 -8,6 -6,1 -12,7 -17,16 -6,9 -10,15 -12,20zm176 -1l73 0 14 -25c3,-5 6,-7 9,-7 3,0 7,2 12,6 4,3 10,8 17,15 6,6 11,10 14,13 2,3 4,6 4,8 0,2 -3,3 -10,3l-109 0c14,6 25,12 33,18 8,7 12,14 12,22 0,8 -3,14 -8,19 -5,5 -11,8 -17,8 -6,0 -10,-5 -11,-14 -3,-20 -11,-38 -25,-53l-16 0c-20,32 -46,63 -78,93l-6 -6c35,-46 61,-102 77,-167 14,4 26,8 35,12 10,4 15,7 17,8 1,2 2,3 2,6 0,2 -2,3 -6,4 -9,3 -20,15 -33,37zm-185 179c-22,23 -51,48 -89,75l-7 -7c56,-53 97,-111 124,-173 11,4 22,9 30,14 9,5 14,8 16,9 1,1 2,3 2,4 0,2 -3,4 -9,5 -5,1 -9,3 -11,5l-29 38c10,4 15,6 17,7 1,0 2,2 2,4 0,2 -3,4 -10,7l0 162c0,5 -1,9 -4,11 -2,2 -7,5 -14,7 -7,3 -13,4 -16,4 -2,0 -3,-2 -3,-5l1 -46 0 -121zm242 -50l19 0 19 -25c2,-3 4,-4 6,-4 2,0 6,3 13,9 6,6 13,11 19,17 7,5 10,9 10,12 0,3 -2,4 -7,4l-79 0 0 160c0,11 -2,19 -7,24 -4,5 -12,10 -23,16 -11,5 -18,8 -21,8 -3,0 -5,-2 -6,-5 -1,-11 -5,-19 -12,-24 -6,-6 -21,-13 -43,-21l2 -9c22,3 38,5 47,5 9,0 15,0 19,-2 3,-2 5,-5 5,-9l0 -143 -113 0c-7,0 -12,1 -17,3l-7 -19c6,2 12,3 20,3l117 0c0,-19 -1,-36 -1,-50 24,4 39,8 44,10 6,2 9,4 9,5 0,3 -5,7 -13,12l0 23zm-154 36c23,9 40,18 51,27 11,9 17,19 17,30 0,10 -3,18 -9,25 -6,6 -13,9 -19,9 -3,0 -6,-1 -7,-3 -2,-2 -3,-7 -5,-14 -6,-29 -17,-51 -33,-68l5 -6z"/>
  <path id="1" class="fil1" d="M5999 7823l-151 0 0 13c0,3 -2,6 -4,7 -2,2 -8,5 -17,8 -10,4 -16,5 -18,5 -2,0 -4,0 -4,-2l2 -26c1,-12 1,-24 1,-36l0 -62c0,-13 0,-26 -1,-39 21,6 36,12 46,18l137 0 17 -22c2,-2 4,-3 6,-3 3,0 8,2 16,7l20 14c6,3 8,6 8,9 0,2 -5,5 -15,10l0 55c0,11 0,21 1,31 0,10 0,16 0,17 0,2 -1,3 -4,5 -3,2 -9,4 -18,7 -10,3 -15,5 -18,5 -3,0 -4,-3 -4,-7l0 -14zm-151 -14l151 0 0 -87 -151 0 0 87zm58 76l-26 55 129 0 15 -20c2,-3 4,-4 6,-4 2,0 9,4 23,12 13,9 19,15 19,18 0,4 -5,7 -16,10 -4,17 -9,37 -17,60 -7,24 -13,39 -18,46 -5,8 -11,14 -19,20 -8,6 -18,10 -30,14 -13,4 -22,6 -30,6 -7,0 -12,-1 -13,-3 -2,-1 -3,-3 -3,-6 0,-3 -1,-6 -1,-8 0,-7 -6,-14 -17,-21 -12,-6 -29,-14 -49,-21l3 -8c40,10 69,15 88,15 9,0 16,-1 22,-3 5,-3 9,-6 12,-10 3,-4 7,-15 13,-31 6,-16 11,-34 15,-52l-132 0 -15 19c-4,5 -8,8 -11,8 -3,0 -8,-3 -15,-9 -8,-6 -17,-14 -29,-24 20,-6 31,-14 35,-22l16 -41 -115 0c-8,0 -15,1 -19,3l-8 -19c6,2 14,2 22,2l320 0 22 -26c3,-4 6,-6 9,-6 3,0 7,2 12,7l22 18c10,8 15,14 15,17 0,2 -4,4 -10,4l-225 0z"/>
  <path id="2" class="fil1" d="M6427 7678c25,10 44,20 56,30 13,10 20,20 20,30 0,11 -3,19 -9,25 -6,7 -11,10 -16,10 -2,0 -4,-1 -5,-3 -2,-2 -3,-6 -5,-13 -2,-8 -7,-19 -17,-34 -9,-15 -19,-28 -29,-39l5 -6zm-153 167c-23,31 -47,59 -72,83l-5 -6c52,-67 91,-147 117,-239 35,19 53,31 53,36 0,3 -4,4 -10,5 -5,1 -9,3 -12,8 -4,5 -11,16 -20,32 -9,16 -18,31 -28,46 19,4 28,8 28,11 0,3 -4,6 -13,9l0 250c0,3 -1,5 -4,7 -2,3 -8,5 -17,9 -8,3 -14,5 -17,5 -2,0 -2,-1 -2,-4l0 -30c1,-21 2,-39 2,-53l0 -169zm275 -60l19 -32c2,-3 4,-4 6,-4 3,0 11,6 26,20 15,13 22,22 22,25 0,2 -4,3 -12,3l-242 0c-8,0 -14,1 -19,3l-8 -18c6,2 14,3 23,3l185 0zm-56 269l61 0 15 -29c4,-6 7,-9 10,-9 3,0 6,1 10,3 3,2 9,8 19,18 9,10 16,16 18,20 3,3 4,6 4,8 0,2 -3,2 -9,2l-270 0c-8,0 -14,1 -19,4l-8 -19c6,1 14,2 23,2l126 0c18,-75 33,-155 45,-240 20,8 35,14 45,19 9,5 14,9 14,12 0,2 -3,4 -9,6 -3,0 -5,2 -7,5 -2,3 -10,26 -25,69l-43 129zm-116 -220c45,63 68,109 68,137 0,11 -3,20 -8,29 -5,8 -13,12 -22,12 -4,0 -7,-1 -8,-4 -2,-3 -3,-12 -3,-26 -1,-14 -4,-36 -11,-66 -6,-29 -14,-55 -23,-76l7 -6z"/>
  <path id="3" class="fil1" d="M6782 7841c8,0 14,3 20,9 6,5 9,12 9,20 0,8 -3,15 -9,21 -6,5 -12,8 -20,8 -8,0 -15,-3 -21,-8 -5,-6 -8,-13 -8,-21 0,-8 3,-15 8,-20 6,-6 13,-9 21,-9zm0 137c8,0 14,3 20,8 6,6 9,13 9,21 0,8 -3,15 -9,20 -6,6 -12,9 -20,9 -8,0 -15,-3 -21,-9 -5,-5 -8,-12 -8,-20 0,-8 3,-15 8,-21 6,-5 13,-8 21,-8z"/>
  <path id="4" class="fil1" d="M8199 8091c18,-14 28,-26 33,-36 5,-10 7,-17 7,-20 0,-4 -2,-6 -5,-6 -9,-2 -16,-6 -21,-13 -6,-7 -9,-15 -9,-25 0,-10 4,-18 11,-26 8,-7 17,-11 28,-11 11,0 21,5 29,15 7,10 11,23 11,40 0,16 -6,33 -18,51 -12,19 -29,34 -51,46l-15 -15z"/>
  <path id="5" class="fil1" d="M8954 7868c-21,31 -45,61 -73,90l-8 -7c24,-31 46,-71 68,-123 21,-51 36,-97 43,-140 15,6 29,11 40,17 11,5 17,8 18,9 2,2 2,3 2,5 0,2 -2,3 -7,5 -5,1 -8,4 -11,8 -3,3 -7,13 -14,28 -7,16 -15,33 -25,52 11,2 16,4 16,6 0,3 -4,6 -11,11l0 254c0,3 -1,5 -1,6 -1,1 -5,3 -10,5 -6,3 -12,5 -18,7 -6,2 -9,2 -10,2 -1,0 -2,-1 -2,-4l1 -28c1,-21 2,-38 2,-54l0 -149zm142 -11l-60 3c-6,1 -12,2 -18,6l-11 -24c8,2 16,2 25,1l63 -3 -9 -149c11,2 23,5 37,9 14,3 22,6 24,7 3,1 4,2 4,3 0,3 -6,8 -18,15 -1,22 -1,42 -1,61 0,19 0,36 1,52l84 -4 24 -31c2,-3 4,-5 6,-5 3,0 7,4 15,10l23 20c8,6 12,11 12,15 0,3 -3,5 -9,5l-154 8c4,39 11,71 21,96 11,25 27,46 47,63 20,17 34,26 42,26 5,0 10,-4 13,-12 4,-8 10,-31 18,-69l11 2c-4,26 -5,45 -5,56 0,12 1,22 3,31 2,8 6,19 13,33 2,3 3,6 3,10 0,6 -5,9 -15,9 -16,0 -36,-6 -60,-17 -24,-11 -45,-27 -63,-47 -19,-21 -34,-45 -44,-74 -11,-28 -18,-64 -22,-106zm63 -136c31,10 52,19 63,26 11,7 16,15 16,23 0,8 -2,16 -7,23 -4,8 -10,12 -16,12 -3,0 -5,-1 -7,-3 -1,-2 -4,-6 -7,-13 -10,-21 -26,-41 -47,-61l5 -7z"/>
  <path id="6" class="fil1" d="M9652 7971c29,-23 52,-46 69,-67 11,10 19,18 25,26 6,7 9,11 9,13 0,2 -1,3 -2,4 -2,0 -4,0 -8,0 -3,0 -8,1 -14,3 -5,2 -28,12 -69,31 34,30 77,53 128,68l0 11c-26,-2 -44,6 -55,23 -1,3 -4,4 -6,4 -5,0 -21,-10 -46,-31 -26,-21 -46,-43 -61,-67 -14,-23 -27,-54 -38,-92l-2 0c-15,20 -30,39 -45,55l0 99 87 -37 4 8c-33,22 -56,37 -69,47 -13,10 -26,22 -39,36 -2,2 -4,4 -6,4 -4,0 -13,-14 -29,-40 7,-4 11,-8 13,-12 1,-3 2,-9 2,-16l0 -54c-36,32 -82,59 -137,83l-4 -8c70,-40 127,-94 173,-165l-130 0c-8,0 -14,1 -17,4l-8 -20c6,1 13,2 21,2l162 0 0 -49 -106 0c-8,0 -15,1 -19,3l-8 -19c6,1 14,2 23,2l110 0 0 -45 -137 0c-8,0 -14,1 -19,3l-8 -20c7,1 14,2 22,2l142 0 0 -34c0,-21 -1,-36 -3,-45 14,2 26,5 35,7 9,3 15,5 19,7 4,2 6,4 6,6 0,2 -5,6 -14,11l0 48 101 0 20 -27c3,-4 6,-6 8,-6 3,0 8,3 14,10l21 19c7,6 11,11 11,14 0,3 -5,5 -13,5l-162 0 0 45 72 0 17 -23c3,-4 6,-7 9,-7 3,0 10,6 21,17 11,10 17,18 17,23 0,3 -2,4 -7,4l-129 0 0 49 123 0 18 -26c3,-5 7,-7 10,-7 3,0 10,6 22,19 12,12 18,20 18,24 0,3 -3,4 -9,4l-185 0c13,27 30,52 52,74z"/>
  <path id="7" class="fil1" d="M9935 7830c-20,17 -43,32 -69,48l-4 -6c38,-36 67,-67 87,-95 19,-28 37,-60 53,-97 35,16 53,27 53,33 0,3 -3,5 -10,5 -6,0 -10,1 -13,4l-14 19 89 0 19 -23c1,-2 3,-3 4,-3 3,0 12,4 28,13 16,9 24,15 24,20 0,4 -4,6 -11,7 -7,1 -12,2 -15,4 -3,2 -14,11 -32,27 -17,16 -31,28 -39,37l73 0 13 -19c2,-3 4,-4 6,-4 3,0 11,4 23,12 13,8 20,14 20,16 0,3 -6,8 -17,16l0 112c0,9 0,17 0,24 1,7 1,11 1,11 0,2 -2,4 -4,6 -3,2 -9,4 -18,7 -8,2 -14,4 -18,4 -1,0 -2,-1 -2,-4l0 -167 -189 0 0 167c0,1 0,2 -1,3 0,1 -4,3 -11,7 -7,4 -12,7 -17,8 -5,1 -8,1 -9,1 -1,0 -1,-1 -1,-2l0 -25c0,-8 1,-19 1,-35l0 -131zm72 -75c-19,24 -37,43 -53,58 9,4 17,7 23,10l85 0c15,-23 30,-46 45,-68l-100 0zm38 105c3,0 13,3 29,8 17,5 25,9 25,13 0,2 -2,4 -6,5 -4,2 -6,3 -7,5 -1,1 -2,5 -3,11 -7,46 -17,81 -28,106 -11,24 -29,45 -55,60 -26,16 -65,29 -117,40l-5 -8c42,-15 74,-31 97,-46 23,-16 39,-36 49,-61 11,-25 17,-69 21,-133zm29 141c45,11 79,21 103,30 23,9 38,18 46,26 8,7 12,16 12,24 0,9 -2,16 -6,21 -3,6 -7,9 -12,9 -3,0 -10,-5 -20,-15 -23,-23 -44,-40 -62,-52 -19,-12 -40,-24 -64,-35l3 -8z"/>
  <path id="8" class="fil1" d="M10488 7793l39 0 14 -20c2,-3 4,-4 8,-4 3,0 9,5 19,15 10,10 15,17 15,19 0,3 -3,4 -9,4l-86 0 0 8c19,4 35,9 48,15 14,5 20,13 20,21 0,7 -1,14 -4,21 -3,7 -6,11 -9,11 -3,0 -5,-1 -7,-3 -2,-1 -4,-5 -7,-10 -4,-6 -10,-13 -18,-22 -8,-8 -16,-15 -23,-21 1,23 1,37 1,43 0,5 0,9 -1,11 -1,2 -5,4 -12,7 -8,2 -14,4 -18,5 15,6 23,11 23,15 0,2 -2,4 -5,4 -3,1 -5,2 -8,4 -2,2 -5,6 -9,12l46 0 12 -13c3,-3 5,-4 7,-4 1,0 8,5 21,14 12,9 18,15 18,18 0,3 -3,4 -8,6 -5,1 -9,2 -12,4 -3,2 -5,5 -8,10 -10,18 -20,33 -30,45 19,5 31,12 36,19 4,8 6,15 6,22 0,6 -1,11 -3,14 -1,4 -3,5 -6,5 -2,0 -9,-3 -20,-11 -11,-8 -24,-15 -38,-23 -29,25 -74,48 -135,67l-3 -9c47,-24 84,-48 109,-72 -20,-9 -45,-17 -73,-24 16,-22 28,-40 35,-53l-46 0c-8,0 -14,1 -19,3l-8 -19c5,1 12,1 23,1l57 0c9,-18 15,-32 18,-42 6,1 10,3 13,4 1,-26 1,-47 1,-64 -22,35 -60,65 -114,90l-3 -8c40,-29 71,-63 93,-101l-68 0c-6,0 -11,1 -14,2l-7 -18c6,1 12,2 18,2l95 0 0 -58c0,-26 0,-43 -1,-51 34,7 51,12 51,16 0,2 -5,5 -14,10l0 83zm-38 150l-31 47c23,4 40,7 51,10 13,-16 25,-35 35,-57l-55 0zm175 -145l64 0 19 -23c3,-3 6,-5 9,-5 2,0 10,6 23,17 13,11 19,19 19,22 0,2 -4,3 -11,3l-71 0c28,7 42,13 42,18 0,2 -3,4 -7,5 -5,2 -8,4 -10,7 -2,4 -4,9 -5,15 -12,65 -26,110 -42,136 25,34 61,61 111,83l-4 9c-8,-2 -15,-3 -22,-3 -14,0 -25,4 -35,12 -3,2 -5,3 -6,3 -3,0 -13,-9 -30,-29 -18,-19 -29,-35 -35,-45 -16,19 -34,35 -56,48 -22,13 -50,27 -84,40l-5 -9c59,-34 101,-70 128,-111 -13,-28 -20,-71 -23,-127 -11,18 -24,39 -40,60l-8 -4c35,-67 56,-146 64,-236 11,2 21,4 32,8 11,3 18,6 21,8 3,2 5,4 5,6 0,2 -3,4 -8,5 -5,1 -9,4 -11,8 -3,4 -6,13 -9,29 -3,15 -8,32 -15,50zm39 14l-44 0 -13 28c3,51 13,91 27,121 13,-31 23,-80 30,-149zm-125 -109c7,4 15,8 24,13 9,5 14,8 16,9 1,2 2,4 2,5 0,2 -1,3 -2,4 -1,1 -4,1 -10,1 -5,0 -10,3 -15,8 -17,17 -36,32 -56,46l-5 -7c21,-29 36,-55 46,-79zm-175 7c25,8 42,16 50,22 9,5 13,13 13,21 0,8 -2,16 -6,22 -4,6 -8,10 -12,10 -4,0 -6,-1 -8,-3 -2,-2 -4,-6 -6,-13 -2,-7 -6,-15 -13,-26 -7,-10 -14,-20 -22,-28l4 -5z"/>
  <path id="9" class="fil1" d="M10871 8091c18,-14 29,-26 33,-36 5,-10 7,-17 7,-20 0,-4 -2,-6 -5,-6 -9,-2 -16,-6 -21,-13 -6,-7 -9,-15 -9,-25 0,-10 4,-18 12,-26 7,-7 16,-11 27,-11 11,0 21,5 29,15 8,10 12,23 12,40 0,16 -7,33 -19,51 -12,19 -29,34 -51,46l-15 -15z"/>
  <path id="10" class="fil1" d="M11626 7868c-21,31 -45,61 -73,90l-8 -7c24,-31 46,-71 68,-123 22,-51 36,-97 43,-140 16,6 29,11 40,17 11,5 17,8 18,9 2,2 2,3 2,5 0,2 -2,3 -7,5 -4,1 -8,4 -11,8 -3,3 -7,13 -14,28 -7,16 -15,33 -25,52 11,2 16,4 16,6 0,3 -4,6 -11,11l0 254c0,3 0,5 -1,6 -1,1 -5,3 -10,5 -6,3 -12,5 -18,7 -5,2 -9,2 -10,2 -1,0 -1,-1 -1,-4l0 -28c1,-21 2,-38 2,-54l0 -149zm142 -11l-59 3c-6,1 -13,2 -19,6l-10 -24c7,2 15,2 25,1l62 -3 -9 -149c11,2 24,5 37,9 14,3 22,6 25,7 2,1 3,2 3,3 0,3 -6,8 -18,15 -1,22 -1,42 -1,61 0,19 0,36 1,52l84 -4 24 -31c2,-3 5,-5 7,-5 2,0 7,4 14,10l23 20c8,6 12,11 12,15 0,3 -3,5 -9,5l-154 8c4,39 11,71 22,96 10,25 26,46 46,63 20,17 35,26 42,26 6,0 10,-4 13,-12 4,-8 10,-31 18,-69l11 2c-4,26 -5,45 -5,56 0,12 1,22 3,31 2,8 7,19 13,33 2,3 3,6 3,10 0,6 -5,9 -15,9 -16,0 -36,-6 -60,-17 -24,-11 -45,-27 -63,-47 -19,-21 -33,-45 -44,-74 -11,-28 -18,-64 -22,-106zm63 -136c31,10 52,19 63,26 11,7 16,15 16,23 0,8 -2,16 -7,23 -4,8 -10,12 -16,12 -3,0 -5,-1 -6,-3 -2,-2 -4,-6 -8,-13 -10,-21 -25,-41 -47,-61l5 -7z"/>
  <path id="11" class="fil1" d="M12324 7971c29,-23 52,-46 69,-67 11,10 19,18 25,26 6,7 9,11 9,13 0,2 -1,3 -2,4 -1,0 -4,0 -7,0 -4,0 -9,1 -15,3 -5,2 -28,12 -69,31 35,30 77,53 128,68l0 11c-26,-2 -44,6 -54,23 -2,3 -4,4 -7,4 -5,0 -20,-10 -46,-31 -26,-21 -46,-43 -60,-67 -15,-23 -28,-54 -39,-92l-2 0c-15,20 -30,39 -45,55l0 99 87 -37 4 8c-33,22 -56,37 -69,47 -13,10 -26,22 -39,36 -2,2 -4,4 -5,4 -4,0 -14,-14 -30,-40 7,-4 11,-8 13,-12 2,-3 2,-9 2,-16l0 -54c-36,32 -82,59 -137,83l-4 -8c70,-40 127,-94 173,-165l-130 0c-8,0 -13,1 -17,4l-8 -20c6,1 13,2 21,2l162 0 0 -49 -105 0c-9,0 -16,1 -20,3l-8 -19c7,1 14,2 23,2l110 0 0 -45 -137 0c-8,0 -14,1 -18,3l-9 -20c7,1 14,2 23,2l141 0 0 -34c0,-21 -1,-36 -3,-45 14,2 26,5 35,7 9,3 15,5 19,7 4,2 6,4 6,6 0,2 -5,6 -14,11l0 48 101 0 20 -27c3,-4 6,-6 9,-6 2,0 7,3 13,10l21 19c7,6 11,11 11,14 0,3 -5,5 -13,5l-162 0 0 45 72 0 17 -23c3,-4 6,-7 9,-7 3,0 10,6 21,17 12,10 17,18 17,23 0,3 -2,4 -7,4l-129 0 0 49 123 0 18 -26c4,-5 7,-7 10,-7 3,0 11,6 22,19 12,12 18,20 18,24 0,3 -3,4 -9,4l-184 0c12,27 29,52 51,74z"/>
  <path id="12" class="fil1" d="M12761 7876l60 0 19 -29c2,-4 5,-6 7,-6 3,0 13,7 29,19 16,12 24,21 24,25 0,5 -4,7 -12,7l-127 0 0 161 97 0 20 -26c4,-4 8,-7 12,-7 4,0 9,3 15,10 6,6 13,13 21,20 7,8 11,13 11,16 0,3 -3,4 -11,4l-375 0c-6,0 -12,1 -16,2l-9 -21c5,2 11,2 18,2l59 0 0 -191c0,-15 -1,-29 -1,-41 12,4 24,7 35,11 11,4 18,7 20,8 2,1 3,3 3,5 0,3 -6,8 -16,13l0 195 75 0 0 -312 -143 0c-6,0 -12,1 -16,2l-9 -21c5,1 11,2 18,2l276 0 18 -25c3,-5 7,-7 11,-7 4,0 13,6 28,18 15,11 22,20 22,24 0,5 -3,7 -9,7l-154 0 0 135z"/>
  <path id="13" class="fil1" d="M13160 7793l39 0 14 -20c2,-3 5,-4 8,-4 3,0 9,5 19,15 10,10 15,17 15,19 0,3 -3,4 -8,4l-87 0 0 8c19,4 35,9 48,15 14,5 20,13 20,21 0,7 -1,14 -4,21 -2,7 -5,11 -9,11 -3,0 -5,-1 -7,-3 -1,-1 -4,-5 -7,-10 -4,-6 -9,-13 -18,-22 -8,-8 -16,-15 -23,-21 1,23 1,37 1,43 0,5 0,9 -1,11 0,2 -5,4 -12,7 -8,2 -14,4 -18,5 15,6 23,11 23,15 0,2 -2,4 -5,4 -3,1 -5,2 -7,4 -2,2 -6,6 -9,12l45 0 12 -13c3,-3 5,-4 7,-4 1,0 9,5 21,14 12,9 18,15 18,18 0,3 -2,4 -8,6 -5,1 -9,2 -12,4 -3,2 -5,5 -8,10 -10,18 -20,33 -30,45 20,5 31,12 36,19 4,8 6,15 6,22 0,6 -1,11 -2,14 -2,4 -4,5 -7,5 -2,0 -9,-3 -20,-11 -11,-8 -24,-15 -38,-23 -29,25 -74,48 -135,67l-3 -9c47,-24 84,-48 109,-72 -20,-9 -45,-17 -73,-24 16,-22 28,-40 35,-53l-46 0c-8,0 -14,1 -19,3l-8 -19c5,1 12,1 23,1l57 0c9,-18 15,-32 18,-42 6,1 10,3 13,4 1,-26 1,-47 1,-64 -22,35 -60,65 -114,90l-3 -8c40,-29 71,-63 93,-101l-68 0c-6,0 -11,1 -14,2l-7 -18c6,1 12,2 18,2l95 0 0 -58c0,-26 0,-43 -1,-51 34,7 51,12 51,16 0,2 -4,5 -14,10l0 83zm-38 150l-30 47c23,4 39,7 50,10 13,-16 25,-35 35,-57l-55 0zm176 -145l63 0 19 -23c3,-3 6,-5 9,-5 3,0 10,6 23,17 13,11 19,19 19,22 0,2 -3,3 -11,3l-71 0c28,7 42,13 42,18 0,2 -3,4 -7,5 -5,2 -8,4 -10,7 -2,4 -3,9 -5,15 -11,65 -25,110 -41,136 24,34 61,61 110,83l-4 9c-8,-2 -15,-3 -22,-3 -13,0 -25,4 -35,12 -3,2 -5,3 -6,3 -3,0 -13,-9 -30,-29 -18,-19 -29,-35 -35,-45 -16,19 -34,35 -56,48 -22,13 -50,27 -84,40l-4 -9c58,-34 100,-70 127,-111 -12,-28 -20,-71 -23,-127 -11,18 -24,39 -40,60l-8 -4c35,-67 56,-146 64,-236 11,2 21,4 32,8 11,3 18,6 21,8 3,2 5,4 5,6 0,2 -3,4 -8,5 -5,1 -9,4 -11,8 -3,4 -5,13 -8,29 -3,15 -8,32 -15,50zm38 14l-44 0 -13 28c4,51 13,91 28,121 12,-31 22,-80 29,-149zm-125 -109c7,4 16,8 24,13 9,5 15,8 16,9 1,2 2,4 2,5 0,2 -1,3 -2,4 -1,1 -4,1 -9,1 -6,0 -11,3 -16,8 -17,17 -36,32 -56,46l-5 -7c21,-29 36,-55 46,-79zm-174 7c24,8 41,16 49,22 9,5 13,13 13,21 0,8 -2,16 -6,22 -4,6 -8,10 -11,10 -4,0 -7,-1 -9,-3 -2,-2 -4,-6 -6,-13 -2,-7 -6,-15 -13,-26 -7,-10 -14,-20 -22,-28l5 -5z"/>
  <path id="14" class="fil1" d="M8737 7720l17 0 0 257c0,16 2,25 6,29 3,4 12,5 25,5l22 0 0 19 -147 0 0 -19 24 0c13,0 21,-2 26,-6 4,-4 7,-13 7,-28l0 -211 -57 0 0 -19c31,-4 56,-13 77,-27z"/>
  <path id="15" class="fil1" d="M11280 7875c0,-51 10,-90 32,-118 21,-28 50,-42 86,-42 36,0 65,14 86,43 21,29 31,69 31,120 0,47 -11,86 -33,114 -22,29 -51,44 -87,44 -34,0 -62,-15 -83,-43 -22,-29 -32,-68 -32,-118zm193 0c0,-44 -7,-78 -20,-102 -14,-24 -32,-36 -56,-36 -24,0 -42,13 -55,38 -13,25 -20,60 -20,105 0,42 7,75 21,98 13,24 31,35 54,35 23,0 42,-12 55,-36 14,-25 21,-59 21,-102z"/>
  <path id="16" class="fil2" d="M7291 7816l15 0 20 68 -20 7c-8,-19 -20,-33 -34,-44 -14,-10 -28,-15 -44,-15 -11,0 -20,3 -27,8 -7,6 -11,12 -11,20 0,9 4,16 13,21 8,5 18,9 29,13l43 15c22,8 38,16 48,26 10,10 15,22 15,36 0,18 -7,33 -23,45 -15,13 -34,20 -58,20 -24,0 -45,-8 -63,-22l-5 16 -16 0 -27 -73 20 -7c27,42 57,64 92,64 12,0 23,-4 32,-10 8,-7 12,-15 12,-23 0,-8 -2,-15 -8,-20 -6,-5 -16,-10 -30,-16l-52 -19c-20,-7 -34,-16 -44,-25 -9,-9 -14,-20 -14,-34 0,-15 7,-28 21,-39 14,-12 32,-18 53,-18 23,0 42,7 57,19l6 -13z"/>
  <path id="17" class="fil2" d="M7435 7740c0,-7 2,-13 7,-18 5,-5 11,-7 19,-7 7,0 13,2 18,7 5,5 7,11 7,18 0,8 -2,14 -7,19 -5,5 -11,7 -18,7 -8,0 -14,-2 -19,-7 -5,-5 -7,-11 -7,-19zm-31 108l0 -18c23,-3 43,-10 59,-20l17 0 0 179c0,10 2,16 7,19 5,2 12,3 20,3l11 0 0 19 -114 0 0 -19 9 0c13,0 21,-2 24,-6 4,-4 6,-13 6,-27l0 -130 -39 0z"/>
  <path id="18" class="fil2" d="M7748 7832c13,-15 26,-22 39,-22 5,0 9,2 13,5 4,3 6,7 6,11 0,4 -2,8 -5,11 -3,3 -8,5 -13,5 -3,0 -6,0 -9,-1l-10 -1c-3,0 -7,1 -11,5 9,10 14,23 14,37 0,20 -9,37 -26,51 -18,14 -39,21 -65,21 -15,0 -29,-3 -44,-8 -9,5 -14,9 -16,12 -3,2 -4,5 -4,8 0,4 3,8 8,11 5,3 16,5 32,8l64 9c29,4 50,11 64,21 14,9 20,22 20,39 0,21 -12,37 -36,48 -24,12 -54,17 -89,17 -33,0 -59,-5 -77,-14 -18,-10 -28,-21 -28,-35 0,-18 17,-38 51,-60 -14,-3 -24,-7 -31,-12 -7,-5 -11,-12 -11,-20 0,-8 2,-14 7,-18 4,-4 14,-12 31,-23 -22,-14 -33,-33 -33,-55 0,-20 9,-37 27,-51 17,-14 40,-21 66,-21 13,0 24,2 34,5 10,3 20,9 32,17zm-15 51c0,-16 -5,-29 -15,-39 -10,-9 -23,-14 -38,-14 -15,0 -27,5 -37,15 -10,10 -15,23 -15,38 0,14 5,27 16,37 10,10 22,16 36,16 16,0 28,-6 38,-16 10,-10 15,-22 15,-37zm-89 132c-23,19 -35,36 -35,49 0,10 6,19 19,25 12,7 30,10 53,10 25,0 47,-4 65,-11 17,-7 26,-17 26,-30 0,-10 -6,-18 -19,-23 -13,-4 -25,-8 -37,-9l-72 -11z"/>
  <path id="19" class="fil2" d="M7846 7848l0 -19c14,-1 24,-3 31,-5 6,-3 16,-7 27,-14l16 0 0 43c17,-14 32,-25 46,-32 15,-7 30,-11 46,-11 11,0 21,2 29,5 9,4 16,8 22,14 6,6 10,12 13,20 3,7 5,18 5,33l0 98c0,10 0,17 2,21 1,4 4,7 9,8 5,2 14,2 26,2l0 19 -114 0 0 -19 6 0c14,0 23,-1 27,-5 4,-4 6,-14 6,-29l0 -81c0,-18 -2,-30 -5,-36 -2,-7 -7,-12 -14,-16 -6,-3 -14,-5 -24,-5 -26,0 -52,12 -78,36l0 102c0,11 1,19 3,24 2,5 5,7 9,9 4,1 11,1 20,1l7 0 0 19 -115 0 0 -19 6 0c10,0 17,0 21,-2 4,-1 7,-4 9,-9 1,-5 2,-14 2,-26l0 -126 -38 0z"/>
  <g style="clip-path:url(#id0)">
   <polygon class="fil7" points="5616,12240 5612,12252 5603,12259 5592,12263 5582,12266 5573,12263 5565,12259 5561,12253 5559,12246 5561,12238 5564,12229 5570,12222 5576,12217 5579,12216 5574,12213 5568,12211 5561,12210 5551,12210 5539,12211 5528,12214 5519,12220 5509,12229 5501,12238 5492,12250 5485,12263 5478,12278 5433,12447 5430,12456 5422,12463 5413,12468 5406,12469 5397,12468 5391,12463 5388,12459 5388,12453 5388,12445 5434,12263 5439,12247 5440,12231 5440,12225 5439,12217 5436,12214 5431,12211 5425,12210 5419,12211 5413,12216 5408,12222 5403,12232 5399,12243 5394,12256 5390,12271 5385,12287 5381,12293 5375,12295 5367,12295 5363,12293 5360,12289 5360,12286 5369,12256 5373,12240 5381,12225 5390,12211 5400,12201 5412,12193 5428,12190 5439,12192 5449,12193 5458,12198 5466,12204 5472,12210 5476,12216 5479,12223 5482,12229 5494,12216 5510,12202 5521,12198 5531,12193 5542,12190 5553,12190 5579,12193 5591,12196 5601,12201 5609,12208 5615,12216 5618,12229 5616,12240 "/>
   <path id="1" class="fil7" d="M5862 12390l3 5 -3 5 -12 15 -15 15 -16 11 -18 10 -18 8 -20 6 -17 3 -18 1 -14 -1 -12 -3 -11 -3 -9 -6 -18 -17 -12 -18 -9 -23 -5 -27 0 -8 2 -25 4 -25 9 -24 12 -23 17 -20 20 -20 23 -15 24 -12 23 -6 26 -3 13 2 14 3 11 6 11 9 6 9 6 12 0 12 -2 14 -3 12 -6 9 -6 9 -9 8 -19 12 -21 7 -25 6 -25 2 -24 1 -23 0 -4 22 -4 24 0 15 0 15 3 13 5 15 9 12 11 8 15 3 15 -2 16 -3 15 -6 16 -6 15 -9 12 -10 24 -25 3 -5 3 -1 1 0 6 3 5 4 0 0zm-33 -134l1 -12 -1 -12 -6 -9 -4 -6 -8 -4 -9 -2 -9 -1 -15 1 -16 6 -13 11 -14 12 -12 15 -10 16 -6 16 -6 17 42 -2 20 -3 20 -4 16 -6 14 -8 10 -12 6 -13 0 0z"/>
   <path id="2" class="fil7" d="M6183 12372l-7 31 -6 17 -6 13 -9 14 -10 12 -14 7 -15 3 -10 -1 -10 -3 -9 -3 -8 -6 -10 -14 -5 -12 -13 12 -18 14 -10 6 -11 3 -10 3 -12 1 -12 -1 -10 -2 -9 -4 -9 -5 -14 -15 -12 -16 -7 -23 -3 -23 0 -5 1 -24 5 -22 9 -25 10 -26 17 -23 19 -23 18 -16 21 -14 12 -4 12 -5 10 -3 12 0 18 3 15 8 10 10 6 8 -1 4 4 -9 6 -7 7 -3 9 -2 9 2 6 3 3 6 2 6 0 6 -44 170 -4 22 -1 10 1 8 2 6 2 4 3 3 6 2 6 -2 6 -4 6 -6 5 -9 4 -12 5 -14 9 -31 3 -6 7 -1 6 0 6 1 1 5 0 1 0 0zm-84 -107l-3 -12 -3 -10 -6 -14 -8 -10 -10 -6 -12 -3 -14 3 -11 6 -12 10 -11 14 -13 20 -9 21 -14 46 -8 45 -3 23 3 19 3 13 5 11 9 6 12 3 14 -3 13 -8 14 -10 13 -14 9 -10 7 -12 35 -128 0 0z"/>
   <polygon id="3" class="fil7" points="6282,12395 6277,12417 6276,12427 6277,12435 6279,12441 6282,12445 6285,12448 6291,12450 6297,12448 6303,12444 6307,12438 6312,12429 6318,12417 6320,12403 6329,12372 6334,12366 6340,12365 6347,12365 6352,12366 6355,12371 6355,12372 6350,12387 6346,12402 6334,12433 6326,12447 6316,12459 6303,12466 6288,12469 6273,12468 6261,12463 6250,12456 6242,12445 6237,12435 6234,12421 6233,12414 6236,12393 6313,12094 6315,12085 6316,12079 6316,12077 6315,12074 6310,12071 6301,12070 6291,12070 6279,12070 6274,12068 6271,12067 6270,12062 6270,12059 6271,12055 6276,12049 6283,12046 6362,12039 6364,12039 6370,12040 6371,12046 6370,12049 "/>
   <polygon id="4" class="fil7" points="6883,12061 6879,12067 6872,12070 6851,12071 6840,12074 6831,12079 6825,12085 6819,12091 6813,12106 6724,12453 6720,12460 6712,12462 6706,12462 6700,12460 6697,12457 6630,12274 6596,12185 6565,12100 6487,12403 6486,12412 6486,12417 6487,12424 6492,12429 6498,12433 6505,12436 6526,12438 6533,12439 6535,12444 6535,12448 6533,12453 6529,12459 6522,12462 6460,12460 6398,12462 6390,12459 6389,12454 6389,12451 6390,12447 6395,12441 6402,12438 6425,12436 6434,12433 6443,12429 6455,12417 6460,12402 6545,12073 6538,12071 6528,12070 6498,12070 6495,12068 6492,12067 6490,12062 6490,12059 6492,12055 6496,12047 6504,12046 6598,12046 6603,12047 6605,12050 6721,12360 6787,12104 6788,12094 6787,12085 6782,12079 6776,12074 6767,12071 6748,12070 6740,12067 6739,12062 6740,12059 6740,12055 6745,12047 6752,12046 6815,12047 6876,12046 6880,12046 6883,12049 6885,12053 6883,12056 "/>
   <polygon id="5" class="fil7" points="7150,12374 7143,12403 7138,12420 7131,12433 7122,12447 7111,12459 7099,12466 7083,12469 7064,12466 7049,12457 7038,12447 7032,12435 7020,12447 7006,12459 6986,12466 6965,12469 6946,12466 6930,12460 6915,12451 6903,12438 6897,12420 6895,12400 6895,12398 6897,12377 6900,12354 6906,12333 6915,12311 6931,12263 6939,12241 6942,12223 6940,12217 6939,12213 6934,12211 6930,12210 6919,12211 6912,12216 6903,12223 6895,12232 6889,12244 6883,12257 6875,12287 6870,12293 6864,12295 6857,12295 6851,12293 6849,12289 6849,12286 6861,12253 6869,12237 6877,12222 6889,12210 6903,12199 6916,12193 6933,12190 6947,12192 6959,12196 6968,12204 6976,12214 6980,12226 6982,12238 6982,12240 6980,12253 6976,12266 6959,12313 6952,12336 6946,12356 6942,12375 6939,12395 6937,12405 6939,12417 6942,12427 6946,12436 6952,12444 6959,12448 6968,12450 6979,12448 6988,12447 6995,12442 7004,12438 7017,12423 7029,12405 7031,12399 7031,12393 7077,12219 7080,12210 7087,12202 7096,12199 7104,12198 7113,12199 7119,12202 7122,12207 7123,12213 7122,12220 7077,12395 7073,12412 7073,12427 7073,12435 7074,12441 7077,12445 7082,12448 7086,12450 7093,12448 7098,12444 7104,12436 7108,12427 7113,12415 7117,12402 7122,12389 7126,12372 7131,12366 7137,12365 7144,12365 7150,12366 7152,12371 7150,12374 "/>
   <polygon id="6" class="fil7" points="7652,12374 7647,12389 7642,12405 7633,12421 7624,12436 7613,12448 7600,12459 7585,12466 7569,12469 7555,12468 7543,12462 7533,12454 7525,12445 7522,12433 7519,12420 7519,12418 7521,12405 7525,12393 7543,12341 7558,12290 7563,12272 7566,12256 7566,12249 7566,12238 7563,12229 7560,12220 7555,12214 7548,12211 7540,12210 7525,12211 7512,12216 7499,12222 7487,12231 7476,12243 7466,12256 7457,12271 7448,12287 7429,12368 7408,12447 7403,12456 7396,12463 7388,12468 7379,12469 7372,12468 7365,12463 7362,12459 7360,12453 7362,12445 7402,12290 7406,12272 7408,12256 7408,12249 7406,12229 7403,12220 7397,12214 7391,12211 7382,12210 7367,12211 7354,12216 7342,12222 7330,12231 7320,12243 7309,12256 7299,12271 7290,12287 7250,12447 7245,12456 7238,12463 7230,12468 7222,12469 7214,12468 7208,12463 7205,12459 7204,12453 7204,12445 7251,12263 7254,12247 7256,12231 7256,12225 7254,12217 7251,12214 7247,12211 7241,12210 7235,12211 7229,12216 7225,12222 7219,12232 7214,12243 7211,12256 7207,12271 7202,12287 7198,12293 7190,12295 7184,12295 7178,12293 7177,12289 7177,12286 7184,12256 7190,12240 7196,12225 7205,12211 7216,12201 7229,12193 7244,12190 7256,12192 7266,12193 7275,12199 7284,12205 7290,12213 7295,12220 7297,12228 7297,12235 7314,12219 7333,12204 7345,12198 7359,12193 7372,12192 7385,12190 7403,12192 7420,12196 7433,12205 7443,12219 7449,12229 7451,12240 7467,12222 7488,12205 7500,12199 7513,12195 7528,12192 7543,12190 7561,12192 7577,12196 7591,12205 7601,12219 7607,12234 7610,12252 7610,12253 7609,12272 7604,12292 7588,12344 7570,12396 7563,12418 7560,12436 7561,12442 7563,12445 7567,12448 7572,12450 7582,12448 7591,12442 7598,12436 7606,12426 7612,12415 7618,12402 7627,12372 7631,12366 7639,12365 7645,12365 7652,12366 7653,12371 7652,12374 "/>
   <line id="7" class="fil0 str2" x1="8044" y1="12219" x2="8464" y2= "12219" />
   <line id="8" class="fil0 str2" x1="8044" y1="12344" x2="8464" y2= "12344" />
   <polygon id="9" class="fil8" points="9335,12465 9353,12478 9365,12488 9371,12496 9371,12500 9366,12500 9356,12497 9341,12488 9320,12476 9299,12460 9277,12442 9256,12421 9235,12398 9216,12371 9202,12341 9192,12307 9186,12268 9186,12229 9192,12192 9202,12158 9220,12125 9241,12095 9263,12068 9287,12045 9314,12024 9327,12016 9338,12009 9347,12003 9356,11998 9362,11995 9366,11992 9369,11992 9369,11994 9368,11998 9362,12006 9350,12015 9333,12028 9316,12045 9298,12065 9278,12088 9260,12113 9246,12143 9234,12176 9228,12213 9225,12253 9228,12293 9234,12329 9244,12359 9259,12386 9277,12408 9296,12429 9316,12448 "/>
   <line id="10" class="fil0 str2" x1="9610" y1="12281" x2="10030" y2= "12281" />
   <polygon id="11" class="fil9" points="10424,12460 10370,12459 10316,12457 10264,12459 10211,12460 10211,12435 10231,12435 10249,12435 10266,12433 10279,12430 10284,12429 10287,12426 10290,12421 10291,12415 10291,12092 10275,12098 10254,12103 10231,12106 10206,12106 10206,12082 10240,12080 10272,12073 10287,12068 10300,12061 10313,12052 10324,12042 10333,12042 10340,12045 10343,12050 10343,12415 10343,12421 10346,12426 10349,12429 10355,12430 10367,12433 10383,12435 10401,12435 10424,12435 10424,12460 "/>
   <polygon id="12" class="fil8" points="10747,12395 10724,12420 10701,12442 10677,12462 10651,12478 10640,12485 10629,12491 10619,12496 10611,12499 10607,12502 10602,12503 10599,12503 10598,12502 10599,12497 10607,12490 10619,12479 10637,12466 10656,12451 10675,12432 10695,12408 10716,12381 10732,12348 10744,12316 10750,12278 10751,12240 10747,12201 10738,12167 10726,12135 10710,12107 10692,12082 10674,12059 10654,12040 10637,12022 10619,12009 10607,11998 10599,11991 10598,11985 10602,11985 10605,11986 10611,11989 10619,11992 10626,11998 10637,12004 10648,12012 10672,12030 10698,12052 10721,12077 10745,12107 10757,12123 10766,12140 10775,12158 10781,12176 10786,12195 10790,12214 10791,12234 10791,12255 10788,12296 10780,12332 10766,12366 "/>
   <polygon id="13" class="fil7" points="11343,12103 11340,12109 11335,12113 11329,12116 11323,12116 11319,12116 11314,12113 11311,12106 11313,12103 11314,12098 11319,12094 11326,12091 11323,12085 11317,12080 11310,12077 11299,12077 11287,12077 11276,12083 11268,12091 11264,12100 11264,12106 11264,12110 11267,12115 11271,12119 11278,12122 11298,12125 11307,12128 11314,12132 11322,12137 11328,12143 11331,12149 11334,12156 11334,12162 11332,12173 11323,12192 11316,12201 11305,12208 11293,12214 11281,12219 11258,12222 11237,12219 11219,12210 11213,12204 11208,12196 11207,12189 11208,12179 11211,12173 11217,12168 11223,12165 11229,12165 11235,12165 11241,12168 11244,12176 11243,12180 11240,12186 11235,12190 11229,12193 11225,12195 11229,12201 11237,12205 11247,12210 11259,12210 11276,12208 11284,12207 11290,12202 11301,12193 11307,12182 11308,12174 11307,12170 11304,12164 11296,12158 11286,12153 11267,12150 11253,12144 11243,12135 11238,12128 11237,12119 11238,12109 11243,12100 11247,12091 11253,12083 11261,12077 11271,12071 11281,12068 11302,12065 11320,12068 11334,12076 11340,12082 11343,12088 11344,12095 11343,12103 "/>
   <path id="14" class="fil7" d="M11462 12009l-3 6 -5 4 -7 3 -6 2 -8 -2 -4 -3 -2 -3 -1 -3 0 -6 3 -4 6 -6 6 -3 7 0 6 0 6 4 2 3 0 3 0 5 0 0zm1 159l-1 9 -5 9 -4 9 -6 9 -8 7 -7 5 -9 4 -10 2 -9 -2 -8 -3 -6 -3 -4 -6 -3 -6 -2 -7 0 -2 0 -7 3 -7 31 -72 5 -13 1 -9 -1 -6 -6 -2 -6 0 -6 3 -4 5 -5 4 -4 6 -3 8 -6 17 -3 3 -5 2 -4 0 -3 -2 -2 -3 0 -1 8 -18 10 -18 8 -6 7 -6 11 -4 8 -2 9 2 8 3 6 4 4 5 3 7 2 6 0 2 -2 7 -1 8 -31 73 -5 11 -1 11 0 0 1 4 6 3 6 -1 6 -3 9 -9 7 -13 6 -18 3 -3 5 0 3 0 4 0 2 3 -2 1 0 0z"/>
   <path id="15" class="fil7" d="M11603 12238l-4 11 -8 8 -7 9 -11 8 -10 6 -13 3 -12 3 -12 1 -20 -1 -16 -3 -7 -3 -5 -5 -3 -4 0 -5 0 -6 3 -5 6 -5 6 -3 6 0 7 0 5 3 1 3 2 4 -2 5 -1 4 -3 5 -3 1 0 2 1 0 6 1 9 0 9 0 8 0 7 -3 8 -3 5 -4 12 -13 5 -6 1 -8 11 -36 -6 5 -9 4 -12 5 -12 1 -13 -1 -12 -5 -9 -7 -8 -9 -4 -13 -3 -12 0 -3 1 -12 3 -14 6 -13 6 -15 11 -12 12 -12 12 -9 13 -7 13 -6 15 -2 11 2 9 4 7 6 3 5 0 3 2 -6 4 -3 6 -3 4 0 6 0 5 3 1 6 0 3 -43 153zm9 -131l-1 -6 -2 -6 -4 -7 -5 -6 -6 -3 -9 -2 -7 2 -8 3 -7 6 -8 7 -7 11 -6 11 -7 24 -6 26 -2 12 2 11 1 6 5 6 6 3 7 2 7 -2 9 -3 9 -6 8 -7 10 -13 21 -69 0 0z"/>
   <polygon id="16" class="fil7" points="11856,12168 11849,12186 11844,12195 11838,12204 11831,12211 11824,12216 11815,12220 11804,12222 11795,12220 11788,12217 11782,12214 11777,12208 11774,12202 11773,12195 11773,12193 11773,12186 11776,12179 11788,12150 11798,12122 11801,12103 11803,12097 11800,12088 11795,12079 11786,12077 11777,12077 11768,12080 11754,12089 11740,12103 11728,12120 11703,12210 11700,12214 11695,12219 11691,12220 11685,12222 11681,12220 11676,12219 11675,12213 11675,12208 11703,12107 11706,12097 11706,12089 11706,12085 11704,12079 11697,12077 11694,12077 11690,12080 11684,12089 11678,12103 11673,12120 11670,12123 11666,12125 11661,12125 11658,12123 11657,12120 11657,12119 11663,12103 11666,12094 11670,12085 11675,12077 11682,12071 11690,12067 11700,12065 11713,12068 11724,12074 11731,12082 11733,12091 11743,12082 11755,12073 11771,12068 11788,12065 11800,12067 11809,12070 11818,12074 11824,12082 11828,12091 11830,12100 11830,12101 11830,12112 11827,12122 11816,12152 11804,12182 11800,12193 11798,12204 11801,12208 11806,12211 11812,12210 11818,12207 11822,12204 11827,12198 11831,12192 11835,12185 11840,12167 11843,12164 11847,12164 11852,12164 11855,12164 11856,12167 11856,12168 "/>
   <polygon id="17" class="fil10" points="12376,12204 12370,12210 12363,12213 12358,12213 12354,12213 12348,12210 12273,12156 12281,12250 12281,12252 12281,12257 12276,12263 12270,12268 12261,12269 12254,12268 12247,12263 12244,12257 12242,12252 12242,12250 12251,12156 12175,12210 12171,12213 12165,12213 12160,12213 12153,12210 12147,12204 12145,12198 12145,12192 12145,12189 12148,12182 12154,12177 12241,12137 12154,12098 12148,12094 12145,12086 12145,12083 12145,12077 12147,12071 12153,12065 12160,12062 12165,12061 12171,12062 12175,12064 12251,12119 12242,12024 12242,12024 12244,12016 12247,12010 12254,12007 12261,12006 12270,12007 12276,12010 12281,12016 12281,12024 12281,12024 12273,12119 12348,12064 12354,12062 12358,12061 12364,12062 12370,12065 12376,12071 12378,12077 12379,12083 12379,12086 12375,12094 12369,12098 12282,12137 12369,12177 12375,12182 12379,12187 12379,12192 12378,12198 12376,12204 "/>
   <polygon id="18" class="fil9" points="12938,12460 12696,12460 12696,12444 12698,12439 12795,12333 12830,12295 12847,12274 12862,12255 12874,12234 12884,12211 12890,12189 12891,12165 12890,12146 12887,12128 12880,12110 12871,12097 12860,12085 12845,12074 12830,12068 12811,12067 12796,12067 12783,12071 12771,12076 12759,12085 12748,12094 12740,12103 12734,12113 12729,12123 12729,12123 12734,12123 12738,12123 12747,12126 12754,12129 12760,12135 12765,12141 12768,12149 12769,12159 12766,12174 12757,12186 12745,12192 12732,12195 12720,12192 12708,12186 12702,12180 12699,12174 12696,12159 12699,12135 12705,12113 12717,12094 12732,12076 12750,12062 12771,12050 12793,12045 12817,12042 12847,12045 12874,12050 12897,12062 12917,12077 12933,12095 12945,12116 12952,12140 12955,12165 12955,12180 12952,12193 12948,12207 12942,12220 12927,12244 12908,12266 12887,12287 12866,12307 12844,12325 12824,12342 12756,12406 12845,12406 12863,12406 12881,12406 12896,12405 12908,12405 12917,12403 12918,12403 12920,12403 12921,12400 12924,12396 12927,12381 12932,12365 12935,12345 12957,12345 "/>
   <path id="19" class="fil8" d="M13200 12176l-3 10 -5 9 -7 7 -9 6 -9 6 -10 3 -12 3 -12 2 -17 -2 -18 -4 -14 -8 -14 -10 -10 -12 -8 -13 -4 -15 -3 -17 1 -15 5 -13 7 -15 11 -12 13 -9 13 -7 17 -5 16 -1 14 1 15 3 13 6 10 9 9 12 6 12 3 13 2 14 -2 4 -4 2 -112 0 0 1 2 26 4 12 6 11 9 8 9 6 12 4 10 2 9 -2 9 -1 8 -3 7 -5 6 -4 6 -6 4 -7 3 -8 2 -3 4 0 2 0 4 2 2 3 0 0zm-30 -47l-3 -20 -3 -11 -6 -9 -6 -6 -7 -4 -8 -3 -9 -2 -10 2 -11 4 -7 6 -8 8 -4 9 -3 9 -3 17 88 0 0 0z"/>
   <polygon id="20" class="fil8" points="13407,12217 13371,12216 13367,12216 13325,12217 13325,12204 13332,12202 13337,12201 13338,12196 13337,12195 13302,12155 13274,12185 13271,12190 13270,12195 13271,12198 13274,12202 13282,12204 13282,12217 13262,12217 13246,12216 13240,12216 13209,12217 13209,12204 13224,12202 13237,12198 13249,12192 13259,12183 13294,12146 13249,12094 13243,12089 13235,12085 13225,12083 13210,12083 13210,12068 13247,12070 13252,12070 13273,12070 13294,12068 13294,12083 13286,12083 13280,12086 13279,12089 13280,12092 13311,12126 13334,12101 13338,12097 13338,12092 13338,12089 13335,12085 13328,12083 13328,12068 13364,12070 13368,12070 13383,12070 13401,12068 13401,12083 13384,12085 13371,12088 13359,12095 13350,12104 13319,12137 13368,12192 13374,12198 13381,12202 13392,12204 13407,12204 13407,12217 "/>
   <path id="21" class="fil8" d="M13611 12143l-2 16 -6 14 -7 13 -12 12 -12 10 -16 8 -17 4 -18 2 -13 -2 -13 -4 -11 -6 -7 -6 0 55 1 4 3 5 5 0 6 1 15 0 0 14 -45 -2 -46 2 0 -14 16 0 6 -1 4 0 3 -5 2 -4 0 -162 -2 -8 -1 -1 -2 -3 -4 -2 -6 0 -16 0 0 -13 59 -5 0 20 9 -6 12 -8 15 -4 16 -2 17 2 16 4 14 8 13 10 10 12 8 14 4 13 2 15 0 0zm-36 0l-1 -12 -3 -12 -5 -12 -6 -10 -7 -8 -8 -7 -10 -3 -9 -2 -15 2 -15 6 -10 9 -9 9 0 80 7 10 11 9 12 6 14 2 11 0 10 -5 9 -6 8 -7 7 -12 5 -12 3 -12 1 -13 0 0z"/>
   <polygon id="22" class="fil10" points="14131,12204 14125,12210 14119,12213 14114,12213 14108,12213 14104,12210 14028,12156 14037,12250 14037,12252 14035,12257 14031,12263 14025,12268 14016,12269 14008,12268 14002,12263 13998,12257 13997,12252 13997,12250 14005,12156 13929,12210 13925,12213 13919,12213 13915,12213 13907,12210 13903,12204 13900,12198 13900,12192 13900,12189 13903,12182 13910,12177 13995,12137 13910,12098 13903,12094 13900,12086 13900,12083 13900,12077 13903,12071 13907,12065 13915,12062 13919,12061 13925,12062 13929,12064 14005,12119 13997,12024 13997,12024 13998,12016 14002,12010 14008,12007 14016,12006 14025,12007 14031,12010 14035,12016 14037,12024 14037,12024 14028,12119 14104,12064 14108,12062 14114,12061 14119,12062 14126,12065 14131,12071 14134,12077 14134,12083 14134,12086 14131,12094 14123,12098 14038,12137 14123,12177 14131,12182 14134,12187 14134,12192 14134,12198 14131,12204 "/>
   <polygon id="23" class="fil9" points="14692,12460 14637,12459 14585,12457 14533,12459 14479,12460 14479,12435 14500,12435 14518,12435 14534,12433 14548,12430 14552,12429 14555,12426 14558,12421 14559,12415 14559,12092 14542,12098 14522,12103 14500,12106 14475,12107 14475,12082 14509,12080 14540,12073 14555,12068 14568,12061 14580,12052 14592,12042 14601,12042 14609,12045 14612,12050 14612,12415 14612,12421 14615,12426 14618,12429 14624,12430 14628,12432 14635,12433 14652,12435 14670,12435 14692,12435 14692,12460 "/>
   <polygon id="24" class="fil10" points="14918,12426 14915,12441 14908,12451 14896,12459 14883,12462 14869,12459 14857,12451 14850,12441 14847,12426 14850,12414 14857,12402 14869,12395 14883,12392 14896,12395 14908,12402 14915,12414 "/>
   <polygon id="25" class="fil7" points="15452,12374 15447,12390 15440,12406 15432,12421 15423,12436 15411,12450 15399,12460 15385,12466 15368,12469 15353,12468 15341,12462 15332,12456 15325,12445 15321,12433 15319,12421 15319,12418 15321,12406 15324,12393 15343,12341 15358,12290 15362,12274 15365,12257 15365,12249 15364,12238 15362,12229 15359,12220 15353,12214 15347,12211 15340,12210 15325,12211 15310,12216 15298,12222 15286,12232 15276,12243 15265,12256 15256,12271 15248,12289 15227,12368 15206,12447 15203,12457 15195,12463 15186,12468 15179,12469 15170,12468 15164,12463 15161,12459 15160,12453 15160,12445 15201,12290 15204,12274 15207,12257 15207,12249 15207,12238 15204,12229 15201,12220 15197,12214 15189,12211 15182,12210 15167,12211 15154,12216 15140,12222 15128,12232 15118,12243 15108,12256 15099,12271 15090,12289 15048,12447 15045,12457 15038,12463 15029,12468 15021,12469 15012,12468 15006,12463 15003,12459 15003,12453 15003,12445 15049,12265 15054,12247 15055,12232 15055,12225 15054,12219 15051,12214 15046,12211 15041,12210 15035,12211 15029,12216 15023,12222 15018,12232 15014,12243 15009,12256 15005,12271 15000,12287 14996,12293 14990,12296 14982,12296 14978,12293 14975,12289 14975,12286 14984,12256 14988,12241 14996,12225 15005,12213 15015,12201 15027,12193 15044,12190 15055,12192 15066,12195 15075,12199 15082,12205 15088,12213 15094,12220 15096,12228 15097,12235 15112,12219 15133,12204 15145,12198 15157,12193 15170,12192 15185,12190 15203,12192 15219,12198 15233,12205 15243,12219 15249,12231 15251,12240 15267,12222 15288,12205 15300,12199 15313,12195 15328,12192 15343,12190 15361,12192 15376,12198 15391,12205 15399,12219 15407,12235 15408,12252 15408,12253 15407,12272 15404,12292 15396,12319 15388,12344 15368,12396 15362,12418 15359,12436 15361,12442 15362,12447 15365,12448 15371,12450 15380,12448 15389,12444 15398,12436 15404,12427 15411,12415 15417,12402 15426,12372 15431,12366 15437,12365 15444,12365 15450,12366 15452,12371 15452,12374 "/>
   <path id="26" class="fil7" d="M15764 12372l-7 31 -6 17 -6 15 -9 12 -10 12 -14 7 -15 3 -12 -1 -9 -2 -8 -4 -8 -6 -10 -12 -6 -14 -12 12 -18 14 -10 6 -11 4 -12 2 -10 1 -12 -1 -11 -2 -9 -4 -8 -5 -15 -13 -11 -18 -7 -23 -5 -23 0 -5 3 -22 5 -24 7 -25 12 -26 15 -23 19 -23 20 -16 21 -14 22 -9 12 -1 12 -2 18 3 15 8 10 10 6 8 -2 6 3 -11 8 -6 7 -4 9 -2 8 2 7 4 3 5 2 6 0 6 -45 170 -2 11 -1 11 -2 10 2 8 1 7 2 3 4 3 6 2 6 -2 6 -4 5 -6 6 -9 4 -12 5 -14 3 -14 4 -17 5 -6 5 -1 8 0 6 1 1 5 0 1 0 0zm-86 -107l-2 -10 -2 -12 -6 -12 -8 -11 -10 -7 -12 -3 -14 3 -12 6 -11 12 -11 12 -13 20 -9 21 -14 46 -10 47 -2 21 2 20 4 12 6 11 9 6 11 3 15 -3 13 -8 13 -10 14 -14 9 -10 7 -12 33 -128 0 0z"/>
   <polygon id="27" class="fil7" points="16105,12372 16101,12389 16093,12406 16086,12421 16077,12436 16065,12450 16052,12460 16038,12466 16022,12469 16007,12468 15995,12462 15986,12456 15979,12445 15974,12433 15973,12421 15973,12418 15974,12405 15977,12393 15997,12341 16012,12290 16016,12274 16019,12257 16019,12247 16016,12229 16013,12220 16009,12214 16001,12211 15994,12210 15979,12211 15965,12216 15952,12222 15940,12231 15930,12243 15921,12256 15910,12271 15901,12287 15860,12447 15857,12457 15849,12463 15842,12468 15833,12469 15825,12468 15818,12463 15816,12459 15815,12453 15815,12445 15861,12265 15866,12247 15867,12232 15867,12225 15866,12219 15863,12214 15858,12211 15852,12210 15846,12211 15840,12216 15836,12222 15830,12232 15825,12243 15821,12256 15818,12271 15814,12287 15809,12293 15802,12296 15794,12296 15790,12293 15788,12289 15788,12286 15796,12256 15802,12241 15808,12225 15816,12213 15827,12201 15840,12193 15855,12190 15867,12192 15878,12195 15886,12199 15894,12205 15901,12213 15906,12220 15909,12228 15909,12234 15925,12219 15945,12204 15956,12198 15968,12193 15983,12192 15997,12190 16015,12192 16031,12198 16044,12205 16055,12219 16061,12235 16064,12252 16064,12253 16062,12272 16058,12292 16041,12344 16023,12396 16016,12418 16013,12436 16015,12442 16016,12447 16021,12448 16025,12450 16035,12448 16044,12444 16052,12436 16059,12427 16065,12415 16071,12402 16080,12372 16085,12366 16091,12365 16098,12365 16104,12366 16105,12371 16105,12372 "/>
   <polygon id="28" class="fil7" points="16314,12213 16309,12220 16302,12222 16245,12222 16201,12395 16196,12412 16195,12427 16196,12435 16198,12442 16201,12447 16205,12448 16210,12450 16222,12448 16232,12444 16242,12436 16251,12426 16260,12415 16268,12402 16281,12371 16283,12368 16286,12366 16290,12365 16298,12365 16302,12365 16305,12368 16305,12371 16305,12374 16299,12390 16290,12408 16280,12423 16268,12438 16254,12450 16241,12460 16225,12466 16207,12469 16193,12468 16180,12463 16169,12456 16162,12447 16156,12435 16153,12421 16153,12414 16153,12403 16156,12393 16199,12222 16143,12222 16137,12220 16135,12214 16135,12211 16137,12207 16141,12199 16147,12198 16205,12198 16231,12101 16235,12092 16241,12085 16250,12082 16257,12080 16266,12082 16272,12086 16275,12091 16277,12097 16275,12103 16251,12198 16306,12198 16312,12199 16315,12205 16315,12208 "/>
   <path id="29" class="fil7" d="M16493 12089l-5 11 -9 9 -10 4 -11 3 -10 -3 -7 -6 -5 -4 -1 -8 1 -7 5 -11 8 -9 11 -4 10 -3 11 3 9 6 3 6 0 6 0 7 0 0zm3 285l-5 16 -6 16 -7 15 -11 15 -10 14 -12 10 -15 6 -18 3 -13 -1 -12 -6 -9 -6 -7 -11 -5 -10 -1 -14 -2 -1 2 -14 4 -13 49 -130 8 -22 1 -18 0 -6 -3 -3 -3 -3 -4 -1 -11 1 -9 5 -7 7 -8 9 -6 12 -5 13 -9 30 -5 6 -7 3 -6 0 -6 -3 -2 -4 0 -3 5 -17 6 -16 9 -16 9 -14 11 -13 12 -11 15 -6 17 -3 15 2 10 4 10 9 6 9 5 12 1 12 0 3 0 12 -4 13 -49 130 -6 22 -3 18 0 0 0 6 3 5 3 1 6 2 9 -2 9 -4 8 -8 6 -9 8 -12 4 -13 11 -30 3 -6 7 -1 6 0 8 1 1 5 -1 3 0 0z"/>
   <polygon id="30" class="fil7" points="16744,12257 16740,12268 16732,12275 16723,12280 16715,12281 16706,12280 16700,12275 16697,12269 16695,12263 16695,12256 16700,12247 16706,12241 16713,12237 16719,12234 16715,12226 16704,12217 16691,12213 16676,12210 16656,12213 16648,12216 16639,12222 16631,12228 16627,12235 16622,12243 16619,12252 16618,12262 16618,12269 16622,12277 16631,12286 16643,12290 16673,12298 16688,12302 16700,12308 16712,12317 16719,12328 16726,12339 16729,12353 16731,12363 16729,12374 16728,12383 16722,12400 16713,12417 16701,12433 16686,12447 16667,12457 16648,12465 16628,12468 16609,12469 16591,12468 16575,12463 16560,12457 16548,12450 16537,12438 16531,12424 16528,12418 16528,12409 16530,12393 16536,12383 16543,12374 16554,12369 16564,12368 16575,12369 16582,12374 16586,12380 16588,12387 16586,12395 16581,12406 16573,12414 16564,12420 16557,12421 16558,12427 16563,12432 16569,12436 16575,12441 16592,12447 16612,12450 16625,12448 16639,12447 16651,12442 16662,12436 16671,12427 16679,12418 16685,12408 16688,12398 16689,12386 16688,12375 16683,12366 16671,12356 16655,12348 16624,12342 16612,12338 16601,12332 16592,12325 16585,12316 16579,12301 16576,12286 16578,12275 16579,12266 16583,12252 16591,12237 16601,12223 16615,12210 16630,12201 16646,12195 16662,12192 16679,12190 16694,12192 16709,12195 16721,12201 16731,12208 16738,12219 16744,12231 16746,12243 16744,12257 "/>
   <polygon id="31" class="fil7" points="16992,12257 16987,12268 16980,12275 16971,12280 16962,12281 16954,12280 16948,12275 16944,12269 16942,12263 16944,12256 16948,12247 16954,12241 16962,12237 16966,12234 16962,12226 16953,12217 16939,12213 16923,12210 16904,12213 16895,12216 16886,12222 16880,12228 16874,12235 16866,12252 16865,12262 16866,12269 16869,12277 16878,12286 16892,12290 16922,12298 16935,12302 16948,12308 16959,12317 16968,12328 16974,12339 16978,12353 16978,12363 16978,12374 16975,12383 16969,12400 16960,12417 16948,12433 16933,12447 16916,12457 16895,12465 16875,12468 16858,12469 16840,12468 16823,12463 16808,12457 16795,12450 16785,12438 16779,12424 16777,12418 16776,12409 16779,12393 16783,12383 16792,12374 16802,12369 16811,12368 16822,12369 16831,12374 16834,12380 16835,12387 16834,12395 16829,12406 16820,12414 16811,12420 16804,12421 16807,12427 16810,12432 16816,12436 16823,12441 16840,12447 16861,12450 16874,12448 16886,12447 16899,12442 16910,12436 16919,12427 16926,12418 16932,12408 16936,12398 16938,12386 16936,12375 16931,12366 16919,12356 16902,12348 16872,12342 16861,12338 16849,12332 16840,12325 16832,12316 16826,12301 16825,12286 16825,12275 16826,12266 16832,12252 16840,12237 16850,12223 16862,12210 16878,12201 16895,12195 16911,12192 16928,12190 16942,12192 16956,12195 16968,12201 16978,12208 16987,12219 16993,12231 16993,12243 16992,12257 "/>
   <path id="32" class="fil7" d="M17307 12372l-7 31 -5 17 -7 15 -9 12 -10 12 -14 7 -15 3 -10 -1 -11 -2 -9 -4 -7 -6 -10 -12 -5 -14 -13 12 -18 14 -11 6 -10 4 -10 2 -12 1 -12 -1 -11 -2 -9 -4 -9 -5 -13 -13 -12 -18 -7 -23 -3 -23 0 -5 1 -22 5 -24 9 -25 10 -26 16 -23 20 -23 18 -16 21 -14 23 -9 11 -1 12 -2 18 3 14 8 11 10 6 8 -2 6 5 -11 6 -6 7 -4 9 -2 9 2 6 4 3 5 2 6 0 6 -44 170 -3 11 -1 11 -2 10 2 8 1 7 3 3 3 3 6 2 6 -2 6 -4 6 -6 5 -9 4 -12 5 -14 4 -14 4 -17 3 -6 8 -1 6 0 6 1 1 5 0 1 0 0zm-86 -107l-2 -10 -3 -12 -6 -12 -7 -11 -10 -7 -12 -3 -14 3 -12 6 -12 12 -10 12 -13 20 -9 21 -14 46 -9 47 -3 21 3 20 3 12 6 11 9 6 12 3 14 -3 13 -8 13 -10 14 -14 9 -10 7 -12 33 -128 0 0z"/>
  </g>
  <rect class="fil0" x="5300" y="11855" width="12135" height="904"/>
 </g>
</svg>
